%TF.GenerationSoftware,Altium Limited,Altium Designer,26.4.1 (12)*%
G04 Layer_Color=8388736*
%FSLAX45Y45*%
%MOMM*%
%TF.SameCoordinates,DAE7519C-F33C-4434-B054-6429215D859A*%
%TF.FilePolarity,Negative*%
%TF.FileFunction,Soldermask,Top*%
%TF.Part,Single*%
G01*
G75*
%TA.AperFunction,SMDPad,CuDef*%
%ADD49R,3.15000X1.75000*%
%ADD50R,5.65000X1.65000*%
G04:AMPARAMS|DCode=51|XSize=1.35mm|YSize=1.97mm|CornerRadius=0.225mm|HoleSize=0mm|Usage=FLASHONLY|Rotation=270.000|XOffset=0mm|YOffset=0mm|HoleType=Round|Shape=RoundedRectangle|*
%AMROUNDEDRECTD51*
21,1,1.35000,1.52000,0,0,270.0*
21,1,0.90000,1.97000,0,0,270.0*
1,1,0.45000,-0.76000,-0.45000*
1,1,0.45000,-0.76000,0.45000*
1,1,0.45000,0.76000,0.45000*
1,1,0.45000,0.76000,-0.45000*
%
%ADD51ROUNDEDRECTD51*%
%ADD52R,1.90000X2.35000*%
%ADD53R,1.35000X0.72000*%
%ADD54R,0.79000X0.57000*%
%ADD55R,0.57000X0.79000*%
G04:AMPARAMS|DCode=56|XSize=1.2mm|YSize=1.53mm|CornerRadius=0.20625mm|HoleSize=0mm|Usage=FLASHONLY|Rotation=270.000|XOffset=0mm|YOffset=0mm|HoleType=Round|Shape=RoundedRectangle|*
%AMROUNDEDRECTD56*
21,1,1.20000,1.11750,0,0,270.0*
21,1,0.78750,1.53000,0,0,270.0*
1,1,0.41250,-0.55875,-0.39375*
1,1,0.41250,-0.55875,0.39375*
1,1,0.41250,0.55875,0.39375*
1,1,0.41250,0.55875,-0.39375*
%
%ADD56ROUNDEDRECTD56*%
%ADD57R,1.45000X1.65000*%
%ADD58R,1.05000X1.65000*%
%ADD59R,1.65000X1.05000*%
%TA.AperFunction,BGAPad,CuDef*%
%ADD60R,1.05000X1.05000*%
%TA.AperFunction,SMDPad,CuDef*%
%ADD61R,2.30000X3.40000*%
%ADD62R,2.30000X1.10000*%
%ADD63R,1.55000X2.25000*%
%ADD64R,1.57000X1.15000*%
%ADD65R,1.15000X1.57000*%
%ADD66R,5.65000X1.15000*%
%ADD67R,1.65000X1.45000*%
G04:AMPARAMS|DCode=68|XSize=1.36mm|YSize=0.74mm|CornerRadius=0.2225mm|HoleSize=0mm|Usage=FLASHONLY|Rotation=0.000|XOffset=0mm|YOffset=0mm|HoleType=Round|Shape=RoundedRectangle|*
%AMROUNDEDRECTD68*
21,1,1.36000,0.29500,0,0,0.0*
21,1,0.91500,0.74000,0,0,0.0*
1,1,0.44500,0.45750,-0.14750*
1,1,0.44500,-0.45750,-0.14750*
1,1,0.44500,-0.45750,0.14750*
1,1,0.44500,0.45750,0.14750*
%
%ADD68ROUNDEDRECTD68*%
G04:AMPARAMS|DCode=69|XSize=1.26mm|YSize=1.62mm|CornerRadius=0.21375mm|HoleSize=0mm|Usage=FLASHONLY|Rotation=270.000|XOffset=0mm|YOffset=0mm|HoleType=Round|Shape=RoundedRectangle|*
%AMROUNDEDRECTD69*
21,1,1.26000,1.19250,0,0,270.0*
21,1,0.83250,1.62000,0,0,270.0*
1,1,0.42750,-0.59625,-0.41625*
1,1,0.42750,-0.59625,0.41625*
1,1,0.42750,0.59625,0.41625*
1,1,0.42750,0.59625,-0.41625*
%
%ADD69ROUNDEDRECTD69*%
%ADD70R,1.65000X5.65000*%
%ADD71R,1.75000X3.15000*%
%TA.AperFunction,ComponentPad*%
%ADD72R,1.35000X1.35000*%
%ADD73C,1.35000*%
%ADD74C,1.95000*%
%ADD75C,1.66500*%
%ADD76C,1.80000*%
%ADD77R,1.80000X1.80000*%
%TA.AperFunction,ViaPad*%
%ADD78C,3.65000*%
%ADD79C,0.75000*%
D49*
X7848600Y8318500D02*
D03*
Y7638500D02*
D03*
X7835900Y7157000D02*
D03*
Y6477000D02*
D03*
X15951199Y7080000D02*
D03*
Y8160000D02*
D03*
D50*
X8073600Y8078500D02*
D03*
Y7878500D02*
D03*
X8060900Y6917000D02*
D03*
Y6717000D02*
D03*
D51*
X10858500Y10052000D02*
D03*
Y9760000D02*
D03*
D52*
X9740900Y6500600D02*
D03*
Y6910600D02*
D03*
X9728200Y8294900D02*
D03*
Y7884900D02*
D03*
D53*
X12966701Y9007900D02*
D03*
Y8822900D02*
D03*
X13017500Y11179600D02*
D03*
Y10994600D02*
D03*
D54*
X14208900Y7632700D02*
D03*
X14058900D02*
D03*
X13755299D02*
D03*
X13905299D02*
D03*
D55*
X12598400Y10593000D02*
D03*
Y10743000D02*
D03*
X12573000Y9056300D02*
D03*
Y9206300D02*
D03*
D56*
X14516100Y10769700D02*
D03*
Y10947300D02*
D03*
D57*
X13887199Y11315700D02*
D03*
X13697200D02*
D03*
D58*
X15390401Y10438100D02*
D03*
X15263400D02*
D03*
X15136400D02*
D03*
X15009399D02*
D03*
X14882401D02*
D03*
X14755400D02*
D03*
X14628400D02*
D03*
X14501401D02*
D03*
X14374400D02*
D03*
X14247400D02*
D03*
X14120399D02*
D03*
X13993401D02*
D03*
X13866400D02*
D03*
Y8688100D02*
D03*
X13993401D02*
D03*
X14120399D02*
D03*
X14247400D02*
D03*
X14374400D02*
D03*
X14501401D02*
D03*
X14628400D02*
D03*
X14755400D02*
D03*
X14882401D02*
D03*
X15009399D02*
D03*
X15136400D02*
D03*
X15263400D02*
D03*
X15390401D02*
D03*
X15517400D02*
D03*
Y10438100D02*
D03*
D59*
X13741400Y10007600D02*
D03*
Y9880600D02*
D03*
Y9753600D02*
D03*
Y9626600D02*
D03*
Y9499600D02*
D03*
Y9372600D02*
D03*
Y9245600D02*
D03*
Y9118600D02*
D03*
Y8991600D02*
D03*
Y10134600D02*
D03*
D60*
X14745399Y9713100D02*
D03*
X14885400D02*
D03*
Y9573100D02*
D03*
X14745399D02*
D03*
X14605400D02*
D03*
Y9713100D02*
D03*
Y9853100D02*
D03*
X14745399D02*
D03*
X14885400D02*
D03*
D61*
X10577000Y10033000D02*
D03*
D62*
X9997000Y9803000D02*
D03*
Y10033000D02*
D03*
Y10263000D02*
D03*
D63*
X11876700Y11112500D02*
D03*
X12331700Y10202500D02*
D03*
X11876700D02*
D03*
X12331700Y11112500D02*
D03*
X11875600Y8676300D02*
D03*
X12330600Y9586300D02*
D03*
Y8676300D02*
D03*
X11875600Y9586300D02*
D03*
D64*
X9359900Y7218200D02*
D03*
Y7031200D02*
D03*
X13182600Y8767600D02*
D03*
Y8580600D02*
D03*
X13233400Y10952000D02*
D03*
Y10765000D02*
D03*
X11087100Y9872500D02*
D03*
Y9685500D02*
D03*
X14808200Y10765000D02*
D03*
Y10952000D02*
D03*
X9385300Y8428200D02*
D03*
Y8615200D02*
D03*
D65*
X14079700Y11315700D02*
D03*
X14266701D02*
D03*
X14067000Y11557000D02*
D03*
X14253999D02*
D03*
X13873000D02*
D03*
X13686000D02*
D03*
X11958800Y7785100D02*
D03*
X12145800D02*
D03*
X10342400Y11214100D02*
D03*
X10155400D02*
D03*
X10371300Y9474200D02*
D03*
X10558300D02*
D03*
X14609599Y7924800D02*
D03*
X14422600D02*
D03*
X13568201D02*
D03*
X13381200D02*
D03*
X13876500Y8216900D02*
D03*
X14063499D02*
D03*
X8885400Y8394700D02*
D03*
X9072400D02*
D03*
X8898100Y7200900D02*
D03*
X9085100D02*
D03*
D66*
X15726199Y7920000D02*
D03*
Y7520000D02*
D03*
Y7320000D02*
D03*
Y7720000D02*
D03*
D67*
X15481300Y10788900D02*
D03*
Y10978900D02*
D03*
X9728200Y9582400D02*
D03*
Y9772400D02*
D03*
D68*
X9142500Y7835900D02*
D03*
X8891500Y7930900D02*
D03*
Y7740900D02*
D03*
X9117100Y6616700D02*
D03*
X8866100Y6711700D02*
D03*
Y6521700D02*
D03*
D69*
X15227299Y10781200D02*
D03*
Y10961200D02*
D03*
D70*
X12128500Y7137400D02*
D03*
X11928500D02*
D03*
D71*
X12368500Y6912400D02*
D03*
X11688500D02*
D03*
D72*
X10655300Y7310500D02*
D03*
D73*
Y7810500D02*
D03*
D74*
X7988300Y11264900D02*
D03*
Y10756900D02*
D03*
X7975600Y9156700D02*
D03*
Y9664700D02*
D03*
D75*
X9035400Y10233200D02*
D03*
X8915400Y9728200D02*
D03*
D76*
X13525500Y6654800D02*
D03*
X13779500D02*
D03*
X14033501D02*
D03*
X14287500D02*
D03*
X10236200Y11557000D02*
D03*
X9728200D02*
D03*
X9982200D02*
D03*
D77*
X14541499Y6654800D02*
D03*
X9474200Y11557000D02*
D03*
D78*
X15902699Y6411000D02*
D03*
Y11811000D02*
D03*
X8902700D02*
D03*
X10902700Y6411000D02*
D03*
D79*
X9634700Y9017000D02*
D03*
Y9144000D02*
D03*
X9906000Y8636000D02*
D03*
X7620000Y6096000D02*
D03*
X7874000Y8636000D02*
D03*
X7620000Y10160000D02*
D03*
X7874000Y10668000D02*
D03*
X7620000Y11176000D02*
D03*
X7874000Y11684000D02*
D03*
X8128000Y6096000D02*
D03*
X8382000Y6604000D02*
D03*
X8128000Y7112000D02*
D03*
X8382000Y7620000D02*
D03*
Y8636000D02*
D03*
X8128000Y9144000D02*
D03*
X8382000Y9652000D02*
D03*
X8128000Y10160000D02*
D03*
X8382000Y10668000D02*
D03*
Y11684000D02*
D03*
X8636000Y6096000D02*
D03*
X8890000Y6604000D02*
D03*
X8636000Y7112000D02*
D03*
X8890000Y8636000D02*
D03*
X8636000Y9144000D02*
D03*
Y10160000D02*
D03*
X8890000Y10668000D02*
D03*
X8636000Y11176000D02*
D03*
X9144000Y6096000D02*
D03*
Y8128000D02*
D03*
Y9144000D02*
D03*
Y10160000D02*
D03*
Y11176000D02*
D03*
X9398000Y11684000D02*
D03*
X9652000Y6096000D02*
D03*
X9906000Y6604000D02*
D03*
Y7620000D02*
D03*
X9652000Y8128000D02*
D03*
Y10160000D02*
D03*
X9906000Y10668000D02*
D03*
X9652000Y11176000D02*
D03*
X9906000Y11684000D02*
D03*
X10160000Y6096000D02*
D03*
X10414000Y6604000D02*
D03*
X10160000Y7112000D02*
D03*
X10414000Y7620000D02*
D03*
X10160000Y8128000D02*
D03*
X10414000Y9652000D02*
D03*
Y10668000D02*
D03*
Y11684000D02*
D03*
X10668000Y6096000D02*
D03*
Y7112000D02*
D03*
X10922000Y7620000D02*
D03*
X10668000Y8128000D02*
D03*
X10922000Y9652000D02*
D03*
Y10668000D02*
D03*
X10668000Y11176000D02*
D03*
X10922000Y11684000D02*
D03*
X11176000Y6096000D02*
D03*
X11430000Y6604000D02*
D03*
X11176000Y7112000D02*
D03*
X11430000Y7620000D02*
D03*
X11176000Y8128000D02*
D03*
Y10160000D02*
D03*
X11430000Y10668000D02*
D03*
X11176000Y11176000D02*
D03*
X11430000Y11684000D02*
D03*
X11684000Y6096000D02*
D03*
X11938000Y6604000D02*
D03*
X11684000Y7112000D02*
D03*
Y8128000D02*
D03*
Y10160000D02*
D03*
X11938000Y10668000D02*
D03*
X11684000Y11176000D02*
D03*
X11938000Y11684000D02*
D03*
X12192000Y6096000D02*
D03*
X12446000Y6604000D02*
D03*
Y7620000D02*
D03*
X12192000Y8128000D02*
D03*
X12446000Y8636000D02*
D03*
X12192000Y9144000D02*
D03*
X12446000Y9652000D02*
D03*
X12192000Y10160000D02*
D03*
X12446000Y10668000D02*
D03*
X12192000Y11176000D02*
D03*
X12446000Y11684000D02*
D03*
X12700000Y6096000D02*
D03*
X12953999Y6604000D02*
D03*
X12700000Y7112000D02*
D03*
X12953999Y8636000D02*
D03*
X12700000Y9144000D02*
D03*
X12953999Y9652000D02*
D03*
X12700000Y10160000D02*
D03*
X12953999Y10668000D02*
D03*
X12700000Y11176000D02*
D03*
X12953999Y11684000D02*
D03*
X13208000Y6096000D02*
D03*
Y7112000D02*
D03*
X13462000Y7620000D02*
D03*
X13208000Y8128000D02*
D03*
X13462000Y9652000D02*
D03*
X13208000Y10160000D02*
D03*
X13462000Y11684000D02*
D03*
X13716000Y6096000D02*
D03*
Y7112000D02*
D03*
X13970000Y9652000D02*
D03*
Y10668000D02*
D03*
X13716000Y11176000D02*
D03*
X13970000Y11684000D02*
D03*
X14224001Y6096000D02*
D03*
Y9144000D02*
D03*
X14478000Y9652000D02*
D03*
X14224001Y10160000D02*
D03*
Y11176000D02*
D03*
X14478000Y11684000D02*
D03*
X14732001Y6096000D02*
D03*
Y7112000D02*
D03*
Y8128000D02*
D03*
Y9144000D02*
D03*
X14986000Y9652000D02*
D03*
X14732001Y10160000D02*
D03*
X14986000Y11684000D02*
D03*
X15239999Y6096000D02*
D03*
X15494000Y6604000D02*
D03*
Y7620000D02*
D03*
X15239999Y8128000D02*
D03*
Y9144000D02*
D03*
X15494000Y9652000D02*
D03*
X15239999Y10160000D02*
D03*
Y11176000D02*
D03*
X15494000Y11684000D02*
D03*
X15748000Y6096000D02*
D03*
Y7112000D02*
D03*
X16002000Y7620000D02*
D03*
X15748000Y8128000D02*
D03*
Y11176000D02*
D03*
X14368300Y8346312D02*
D03*
X13849500Y10906213D02*
D03*
X13741400Y8305800D02*
D03*
X13576300Y8877300D02*
D03*
X13411200Y10896600D02*
D03*
X12649200Y7785100D02*
D03*
X13639799Y8382000D02*
D03*
X13474699Y8572500D02*
D03*
X13309599Y9791700D02*
D03*
X13322301Y9677400D02*
D03*
X15151100Y7556500D02*
D03*
X15367000D02*
D03*
X14338300Y10655300D02*
D03*
X14084300Y11163300D02*
D03*
X14109700Y10744200D02*
D03*
X12801601Y10502900D02*
D03*
X8623300Y8242300D02*
D03*
X8674100Y7975600D02*
D03*
X9410700Y6858000D02*
D03*
X14770100Y7581900D02*
D03*
X14808200Y7886700D02*
D03*
X15367000Y7327900D02*
D03*
X14897099Y7543800D02*
D03*
X14160500Y7010400D02*
D03*
X13919200Y7023100D02*
D03*
X10071100Y9448800D02*
D03*
X9448800Y9880600D02*
D03*
%TF.MD5,716ad1451eee90fd3a55ed55586ca4fd*%
M02*
