%TF.GenerationSoftware,Altium Limited,Altium Designer,26.4.1 (12)*%
G04 Layer_Physical_Order=1*
G04 Layer_Color=255*
%FSLAX45Y45*%
%MOMM*%
%TF.SameCoordinates,DAE7519C-F33C-4434-B054-6429215D859A*%
%TF.FilePolarity,Positive*%
%TF.FileFunction,Copper,L1,Top,Signal*%
%TF.Part,Single*%
G01*
G75*
%TA.AperFunction,SMDPad,CuDef*%
%ADD10R,3.00000X1.60000*%
%ADD11R,5.50000X1.50000*%
G04:AMPARAMS|DCode=12|XSize=1.2mm|YSize=1.82mm|CornerRadius=0.15mm|HoleSize=0mm|Usage=FLASHONLY|Rotation=270.000|XOffset=0mm|YOffset=0mm|HoleType=Round|Shape=RoundedRectangle|*
%AMROUNDEDRECTD12*
21,1,1.20000,1.52000,0,0,270.0*
21,1,0.90000,1.82000,0,0,270.0*
1,1,0.30000,-0.76000,-0.45000*
1,1,0.30000,-0.76000,0.45000*
1,1,0.30000,0.76000,0.45000*
1,1,0.30000,0.76000,-0.45000*
%
%ADD12ROUNDEDRECTD12*%
%ADD13R,1.75000X2.20000*%
%ADD14R,1.20000X0.57000*%
%ADD15R,0.64000X0.42000*%
%ADD16R,0.42000X0.64000*%
G04:AMPARAMS|DCode=17|XSize=1.05mm|YSize=1.38mm|CornerRadius=0.13125mm|HoleSize=0mm|Usage=FLASHONLY|Rotation=270.000|XOffset=0mm|YOffset=0mm|HoleType=Round|Shape=RoundedRectangle|*
%AMROUNDEDRECTD17*
21,1,1.05000,1.11750,0,0,270.0*
21,1,0.78750,1.38000,0,0,270.0*
1,1,0.26250,-0.55875,-0.39375*
1,1,0.26250,-0.55875,0.39375*
1,1,0.26250,0.55875,0.39375*
1,1,0.26250,0.55875,-0.39375*
%
%ADD17ROUNDEDRECTD17*%
%ADD18R,1.30000X1.50000*%
%ADD19R,0.90000X1.50000*%
%ADD20R,1.50000X0.90000*%
%TA.AperFunction,BGAPad,CuDef*%
%ADD21R,0.90000X0.90000*%
%TA.AperFunction,SMDPad,CuDef*%
%ADD22R,2.15000X3.25000*%
%ADD23R,2.15000X0.95000*%
%ADD24R,1.40000X2.10000*%
%ADD25R,1.42000X1.00000*%
%ADD26R,1.00000X1.42000*%
%ADD27R,5.50000X1.00000*%
%ADD28R,1.50000X1.30000*%
G04:AMPARAMS|DCode=29|XSize=1.21mm|YSize=0.59mm|CornerRadius=0.1475mm|HoleSize=0mm|Usage=FLASHONLY|Rotation=0.000|XOffset=0mm|YOffset=0mm|HoleType=Round|Shape=RoundedRectangle|*
%AMROUNDEDRECTD29*
21,1,1.21000,0.29500,0,0,0.0*
21,1,0.91500,0.59000,0,0,0.0*
1,1,0.29500,0.45750,-0.14750*
1,1,0.29500,-0.45750,-0.14750*
1,1,0.29500,-0.45750,0.14750*
1,1,0.29500,0.45750,0.14750*
%
%ADD29ROUNDEDRECTD29*%
G04:AMPARAMS|DCode=30|XSize=1.11mm|YSize=1.47mm|CornerRadius=0.13875mm|HoleSize=0mm|Usage=FLASHONLY|Rotation=270.000|XOffset=0mm|YOffset=0mm|HoleType=Round|Shape=RoundedRectangle|*
%AMROUNDEDRECTD30*
21,1,1.11000,1.19250,0,0,270.0*
21,1,0.83250,1.47000,0,0,270.0*
1,1,0.27750,-0.59625,-0.41625*
1,1,0.27750,-0.59625,0.41625*
1,1,0.27750,0.59625,0.41625*
1,1,0.27750,0.59625,-0.41625*
%
%ADD30ROUNDEDRECTD30*%
%ADD31R,1.50000X5.50000*%
%ADD32R,1.60000X3.00000*%
%TA.AperFunction,Conductor*%
%ADD33C,0.30480*%
%ADD34C,1.01600*%
%ADD35C,0.63500*%
%TA.AperFunction,ComponentPad*%
%ADD36R,1.20000X1.20000*%
%ADD37C,1.20000*%
%ADD38C,1.80000*%
%ADD39C,1.51500*%
%ADD40C,1.65000*%
%ADD41R,1.65000X1.65000*%
%TA.AperFunction,ViaPad*%
%ADD42C,3.50000*%
%ADD43C,0.60000*%
G36*
X16451509Y10834146D02*
X15608299D01*
X15598579Y10830120D01*
X15594554Y10820400D01*
Y8445500D01*
X15598579Y8435780D01*
X15608299Y8431754D01*
X16451509D01*
Y5989391D01*
X7157791D01*
Y12209709D01*
X16451509D01*
Y10834146D01*
D02*
G37*
%LPC*%
G36*
X15921187Y11998700D02*
X15884213D01*
X15847951Y11991487D01*
X15813791Y11977337D01*
X15783047Y11956796D01*
X15756905Y11930652D01*
X15736362Y11899909D01*
X15722214Y11865750D01*
X15714999Y11829487D01*
Y11792513D01*
X15722214Y11756250D01*
X15736362Y11722091D01*
X15756905Y11691348D01*
X15783047Y11665204D01*
X15813791Y11644663D01*
X15847951Y11630513D01*
X15884213Y11623300D01*
X15921187D01*
X15957449Y11630513D01*
X15991609Y11644663D01*
X16022353Y11665204D01*
X16048495Y11691348D01*
X16069037Y11722091D01*
X16083186Y11756250D01*
X16090401Y11792513D01*
Y11829487D01*
X16083186Y11865750D01*
X16069037Y11899909D01*
X16048495Y11930652D01*
X16022353Y11956796D01*
X15991609Y11977337D01*
X15957449Y11991487D01*
X15921187Y11998700D01*
D02*
G37*
G36*
X8921187D02*
X8884213D01*
X8847950Y11991487D01*
X8813791Y11977337D01*
X8783048Y11956796D01*
X8756904Y11930652D01*
X8736363Y11899909D01*
X8722213Y11865750D01*
X8715000Y11829487D01*
Y11792513D01*
X8722213Y11756250D01*
X8736363Y11722091D01*
X8756904Y11691348D01*
X8783048Y11665204D01*
X8813791Y11644663D01*
X8847950Y11630513D01*
X8884213Y11623300D01*
X8921187D01*
X8957450Y11630513D01*
X8991609Y11644663D01*
X9022352Y11665204D01*
X9048496Y11691348D01*
X9069037Y11722091D01*
X9083187Y11756250D01*
X9090400Y11792513D01*
Y11829487D01*
X9083187Y11865750D01*
X9069037Y11899909D01*
X9048496Y11930652D01*
X9022352Y11956796D01*
X8991609Y11977337D01*
X8957450Y11991487D01*
X8921187Y11998700D01*
D02*
G37*
G36*
X9994733Y11652200D02*
X9988550D01*
Y11563350D01*
X10077400D01*
Y11569533D01*
X10070912Y11593746D01*
X10058379Y11615454D01*
X10040654Y11633179D01*
X10018946Y11645712D01*
X9994733Y11652200D01*
D02*
G37*
G36*
X9975850D02*
X9969667D01*
X9945454Y11645712D01*
X9923746Y11633179D01*
X9906021Y11615454D01*
X9893488Y11593746D01*
X9887000Y11569533D01*
Y11563350D01*
X9975850D01*
Y11652200D01*
D02*
G37*
G36*
X9740733D02*
X9734550D01*
Y11563350D01*
X9823400D01*
Y11569533D01*
X9816912Y11593746D01*
X9804379Y11615454D01*
X9786654Y11633179D01*
X9764946Y11645712D01*
X9740733Y11652200D01*
D02*
G37*
G36*
X9721850D02*
X9715667D01*
X9691454Y11645712D01*
X9669746Y11633179D01*
X9652021Y11615454D01*
X9639488Y11593746D01*
X9633000Y11569533D01*
Y11563350D01*
X9721850D01*
Y11652200D01*
D02*
G37*
G36*
X13601083Y11850344D02*
X9702800D01*
X9678023Y11845416D01*
X9657019Y11831381D01*
X9477838Y11652200D01*
X9379000D01*
Y11461800D01*
X9409456D01*
Y10199518D01*
X9307682Y10097744D01*
X8343900D01*
X8319124Y10092816D01*
X8298119Y10078781D01*
X7986738Y9767400D01*
X7962079D01*
X7935959Y9760401D01*
X7912541Y9746880D01*
X7893420Y9727759D01*
X7879899Y9704341D01*
X7872900Y9678221D01*
Y9653562D01*
X7561519Y9342181D01*
X7547484Y9321176D01*
X7542556Y9296400D01*
Y8001000D01*
X7547484Y7976224D01*
X7561519Y7955219D01*
X7659819Y7856919D01*
X7680824Y7842884D01*
X7705600Y7837956D01*
X7785900D01*
Y7790800D01*
X8008856D01*
Y7731200D01*
X7854950D01*
Y7638500D01*
Y7545800D01*
X7967547D01*
X7972407Y7534067D01*
X7906585Y7468244D01*
X7762597D01*
X7737821Y7463316D01*
X7716816Y7449281D01*
X7523419Y7255884D01*
X7509384Y7234879D01*
X7504456Y7210103D01*
Y6934200D01*
X7509384Y6909424D01*
X7523419Y6888419D01*
X7716419Y6695419D01*
X7737423Y6681384D01*
X7762200Y6676456D01*
X7773200D01*
Y6629300D01*
X8348600D01*
Y6804700D01*
X8042956D01*
X8036700Y6805944D01*
X7789018D01*
X7778362Y6816600D01*
X7783622Y6829300D01*
X8348600D01*
Y6871679D01*
X8418527D01*
X8603379Y6686828D01*
Y6412598D01*
X8606829Y6395254D01*
X8616653Y6380551D01*
X8653850Y6343354D01*
X8653851Y6343353D01*
X8668554Y6333529D01*
X8685898Y6330079D01*
X9004300D01*
X9021644Y6333529D01*
X9036347Y6343353D01*
X9125246Y6432253D01*
X9125247Y6432253D01*
X9135071Y6446956D01*
X9138521Y6464300D01*
X9138521Y6464301D01*
Y6571379D01*
X9404627D01*
X9507453Y6468554D01*
X9507453Y6468553D01*
X9522156Y6458729D01*
X9539500Y6455279D01*
X9539501Y6455279D01*
X9640700D01*
Y6377900D01*
X9841100D01*
Y6623300D01*
X9640700D01*
Y6545921D01*
X9558272D01*
X9455447Y6648747D01*
X9440744Y6658571D01*
X9423400Y6662021D01*
X9095450D01*
X9082463Y6659438D01*
X9071350D01*
X9060639Y6657307D01*
X9051559Y6651240D01*
X9045492Y6642160D01*
X9043362Y6631450D01*
Y6601950D01*
X9045492Y6591240D01*
X9047879Y6587668D01*
Y6483072D01*
X8985527Y6420721D01*
X8704670D01*
X8694021Y6431370D01*
Y6705600D01*
X8690571Y6722943D01*
X8680747Y6737647D01*
X8680746Y6737647D01*
X8469347Y6949047D01*
X8454643Y6958871D01*
X8437300Y6962321D01*
X8348600D01*
Y7004700D01*
X7773200D01*
Y6839722D01*
X7760500Y6834462D01*
X7633944Y6961018D01*
Y7183285D01*
X7661467Y7210808D01*
X7673200Y7205947D01*
Y7163350D01*
X7829550D01*
Y7249700D01*
X7716953D01*
X7712093Y7261433D01*
X7789415Y7338756D01*
X7933403D01*
X7958179Y7343684D01*
X7979184Y7357719D01*
X8119381Y7497916D01*
X8133416Y7518921D01*
X8138344Y7543697D01*
Y7790800D01*
X8361300D01*
Y7813756D01*
X8464982D01*
X8768019Y7510719D01*
X8789024Y7496684D01*
X8813800Y7491756D01*
X9300384D01*
X9325160Y7496684D01*
X9346165Y7510719D01*
X9405681Y7570235D01*
X9419716Y7591239D01*
X9424644Y7616016D01*
Y7707482D01*
X9537318Y7820156D01*
X9628000D01*
Y7762200D01*
X9669806D01*
Y7033300D01*
X9640700D01*
Y6787900D01*
X9841100D01*
Y6920825D01*
X9845881Y6924019D01*
X10167618Y7245756D01*
X10582600D01*
Y7237800D01*
X10728000D01*
Y7383200D01*
X10582600D01*
Y7375244D01*
X10140800D01*
X10116023Y7370316D01*
X10095019Y7356281D01*
X9811027Y7072289D01*
X9799294Y7077150D01*
Y7762200D01*
X9828400D01*
Y8007600D01*
X9628000D01*
Y7949644D01*
X9510500D01*
X9485723Y7944716D01*
X9464719Y7930681D01*
X9314119Y7780081D01*
X9300084Y7759076D01*
X9295156Y7734300D01*
Y7642834D01*
X9273566Y7621244D01*
X8840618D01*
X8537581Y7924281D01*
X8516577Y7938316D01*
X8491800Y7943244D01*
X8361300D01*
Y7966200D01*
X8055656D01*
X8049400Y7967444D01*
X7732418D01*
X7672044Y8027818D01*
Y9269582D01*
X7964462Y9562000D01*
X7989121D01*
X8015241Y9568999D01*
X8038659Y9582520D01*
X8057780Y9601641D01*
X8071301Y9625059D01*
X8078300Y9651179D01*
Y9675838D01*
X8370718Y9968256D01*
X9334500D01*
X9359276Y9973184D01*
X9380281Y9987219D01*
X9519981Y10126919D01*
X9534016Y10147923D01*
X9538944Y10172700D01*
Y11461800D01*
X9569400D01*
Y11560638D01*
X9729618Y11720856D01*
X13574266D01*
X13621255Y11673866D01*
Y11557000D01*
X13623300Y11546723D01*
Y11473300D01*
X13748700D01*
Y11546723D01*
X13750745Y11557000D01*
Y11700684D01*
X13745816Y11725460D01*
X13731781Y11746465D01*
X13646864Y11831381D01*
X13625861Y11845416D01*
X13601083Y11850344D01*
D02*
G37*
G36*
X14316701Y11640700D02*
X14191299D01*
Y11513587D01*
X14148900Y11471187D01*
X14141525D01*
X14129700Y11473300D01*
X14129700Y11483888D01*
Y11640700D01*
X14004300D01*
Y11585487D01*
X13935699D01*
Y11640700D01*
X13810300D01*
Y11473300D01*
X13935699D01*
Y11528513D01*
X14004300D01*
Y11473300D01*
X14082431D01*
X14085130Y11469339D01*
X14087312Y11460600D01*
X14064156Y11437444D01*
X14057980Y11428202D01*
X14055812Y11417300D01*
X14055814Y11417299D01*
Y11399400D01*
X14017000D01*
Y11344187D01*
X13964900D01*
Y11403400D01*
X13809500D01*
Y11228000D01*
X13964900D01*
Y11287213D01*
X14017000D01*
Y11232000D01*
X14055814D01*
Y11195199D01*
X14048100Y11187487D01*
X14041600Y11171794D01*
Y11154806D01*
X14048100Y11139113D01*
X14060114Y11127101D01*
X14075806Y11120600D01*
X14092793D01*
X14108487Y11127101D01*
X14120499Y11139113D01*
X14127000Y11154806D01*
Y11171794D01*
X14120499Y11187487D01*
X14112787Y11195199D01*
Y11232000D01*
X14142400D01*
Y11399400D01*
X14137634D01*
X14130847Y11412100D01*
X14132259Y11414213D01*
X14160699D01*
X14160699Y11414212D01*
X14171602Y11416381D01*
X14180844Y11422556D01*
X14231587Y11473300D01*
X14316701D01*
Y11640700D01*
D02*
G37*
G36*
X10077400Y11550650D02*
X9988550D01*
Y11461800D01*
X9994733D01*
X10018946Y11468288D01*
X10040654Y11480821D01*
X10058379Y11498546D01*
X10070912Y11520254D01*
X10077400Y11544467D01*
Y11550650D01*
D02*
G37*
G36*
X9975850D02*
X9887000D01*
Y11544467D01*
X9893488Y11520254D01*
X9906021Y11498546D01*
X9923746Y11480821D01*
X9945454Y11468288D01*
X9969667Y11461800D01*
X9975850D01*
Y11550650D01*
D02*
G37*
G36*
X9823400D02*
X9734550D01*
Y11461800D01*
X9740733D01*
X9764946Y11468288D01*
X9786654Y11480821D01*
X9804379Y11498546D01*
X9816912Y11520254D01*
X9823400Y11544467D01*
Y11550650D01*
D02*
G37*
G36*
X9721850D02*
X9633000D01*
Y11544467D01*
X9639488Y11520254D01*
X9652021Y11498546D01*
X9669746Y11480821D01*
X9691454Y11468288D01*
X9715667Y11461800D01*
X9721850D01*
Y11550650D01*
D02*
G37*
G36*
X14329401Y11399400D02*
X14273051D01*
Y11322050D01*
X14329401D01*
Y11399400D01*
D02*
G37*
G36*
X13774899Y11403400D02*
X13703551D01*
Y11322050D01*
X13774899D01*
Y11403400D01*
D02*
G37*
G36*
X13690849D02*
X13619501D01*
Y11322050D01*
X13690849D01*
Y11403400D01*
D02*
G37*
G36*
X14260352Y11399400D02*
X14203999D01*
Y11322050D01*
X14260352D01*
Y11399400D01*
D02*
G37*
G36*
X14329401Y11309350D02*
X14273051D01*
Y11232000D01*
X14329401D01*
Y11309350D01*
D02*
G37*
G36*
X14260352D02*
X14203999D01*
Y11232000D01*
X14260352D01*
Y11309350D01*
D02*
G37*
G36*
X13774899D02*
X13703551D01*
Y11228000D01*
X13774899D01*
Y11309350D01*
D02*
G37*
G36*
X13690849D02*
X13619501D01*
Y11228000D01*
X13690849D01*
Y11309350D01*
D02*
G37*
G36*
X10248733Y11652200D02*
X10223667D01*
X10199454Y11645712D01*
X10177746Y11633179D01*
X10160021Y11615454D01*
X10147488Y11593746D01*
X10141000Y11569533D01*
Y11544467D01*
X10142746Y11537952D01*
X10109619Y11504825D01*
X10095584Y11483821D01*
X10090656Y11459044D01*
Y11214100D01*
X10092700Y11203823D01*
Y11130400D01*
X10218100D01*
Y11203823D01*
X10220144Y11214100D01*
Y11432226D01*
X10250078Y11462160D01*
X10272946Y11468288D01*
X10294654Y11480821D01*
X10312379Y11498546D01*
X10324912Y11520254D01*
X10331400Y11544467D01*
Y11569533D01*
X10324912Y11593746D01*
X10312379Y11615454D01*
X10294654Y11633179D01*
X10272946Y11645712D01*
X10248733Y11652200D01*
D02*
G37*
G36*
X12414400Y11230200D02*
X12338050D01*
Y11118850D01*
X12414400D01*
Y11230200D01*
D02*
G37*
G36*
X12325350D02*
X12249000D01*
Y11118850D01*
X12325350D01*
Y11230200D01*
D02*
G37*
G36*
X13090199Y11035800D02*
X13023849D01*
Y11000950D01*
X13090199D01*
Y11035800D01*
D02*
G37*
G36*
X13011150D02*
X12944800D01*
Y11000950D01*
X13011150D01*
Y11035800D01*
D02*
G37*
G36*
X12414400Y11106150D02*
X12338050D01*
Y10994800D01*
X12414400D01*
Y11106150D01*
D02*
G37*
G36*
X12325350D02*
X12249000D01*
Y10994800D01*
X12325350D01*
Y11106150D01*
D02*
G37*
G36*
X11959400Y11230200D02*
X11794000D01*
Y10994800D01*
X11959400D01*
Y11230200D01*
D02*
G37*
G36*
X15569000Y11056600D02*
X15487650D01*
Y10985250D01*
X15569000D01*
Y11056600D01*
D02*
G37*
G36*
X15474950D02*
X15393600D01*
Y10985250D01*
X15474950D01*
Y11056600D01*
D02*
G37*
G36*
X15286925Y11029921D02*
X15233650D01*
Y10967550D01*
X15314021D01*
Y11002825D01*
X15311958Y11013194D01*
X15306084Y11021985D01*
X15297295Y11027858D01*
X15286925Y11029921D01*
D02*
G37*
G36*
X15220950D02*
X15167674D01*
X15157306Y11027858D01*
X15148515Y11021985D01*
X15142642Y11013194D01*
X15140579Y11002825D01*
Y10967550D01*
X15220950D01*
Y11029921D01*
D02*
G37*
G36*
X14571976Y11013006D02*
X14522449D01*
Y10953650D01*
X14598306D01*
Y10986675D01*
X14596301Y10996751D01*
X14590594Y11005294D01*
X14582051Y11011002D01*
X14571976Y11013006D01*
D02*
G37*
G36*
X14509749D02*
X14460225D01*
X14450150Y11011002D01*
X14441606Y11005294D01*
X14435898Y10996751D01*
X14433894Y10986675D01*
Y10953650D01*
X14509749D01*
Y11013006D01*
D02*
G37*
G36*
X13090199Y10988250D02*
X13023849D01*
Y10953400D01*
X13090199D01*
Y10988250D01*
D02*
G37*
G36*
X13011150D02*
X12944800D01*
Y10953400D01*
X13011150D01*
Y10988250D01*
D02*
G37*
G36*
X15569000Y10972550D02*
X15487650D01*
Y10901200D01*
X15569000D01*
Y10972550D01*
D02*
G37*
G36*
X15474950D02*
X15393600D01*
Y10901200D01*
X15474950D01*
Y10972550D01*
D02*
G37*
G36*
X15314021Y10954850D02*
X15233650D01*
Y10892479D01*
X15286925D01*
X15297295Y10894542D01*
X15306084Y10900416D01*
X15311958Y10909206D01*
X15314021Y10919575D01*
Y10954850D01*
D02*
G37*
G36*
X15220950D02*
X15140579D01*
Y10919575D01*
X15142642Y10909206D01*
X15148515Y10900416D01*
X15157306Y10894542D01*
X15167674Y10892479D01*
X15220950D01*
Y10954850D01*
D02*
G37*
G36*
X13178999Y11224921D02*
X13017500D01*
X13000157Y11221471D01*
X12999152Y11220800D01*
X12944800D01*
Y11138400D01*
X12999152D01*
X13000157Y11137729D01*
X13017500Y11134279D01*
X13160226D01*
X13188078Y11106428D01*
Y11014700D01*
X13149699D01*
Y10889300D01*
X13317101D01*
Y11014700D01*
X13278722D01*
Y11125200D01*
X13275272Y11142543D01*
X13265446Y11157247D01*
X13265446Y11157247D01*
X13211047Y11211647D01*
X13196344Y11221471D01*
X13178999Y11224921D01*
D02*
G37*
G36*
X14598306Y10940950D02*
X14522449D01*
Y10881594D01*
X14571976D01*
X14582051Y10883598D01*
X14590594Y10889306D01*
X14596301Y10897848D01*
X14598306Y10907925D01*
Y10940950D01*
D02*
G37*
G36*
X14509749D02*
X14433894D01*
Y10907925D01*
X14435898Y10897848D01*
X14441606Y10889306D01*
X14450150Y10883598D01*
X14460225Y10881594D01*
X14509749D01*
Y10940950D01*
D02*
G37*
G36*
X13419695Y10939300D02*
X13402705D01*
X13387013Y10932799D01*
X13375002Y10920787D01*
X13368500Y10905094D01*
Y10888106D01*
X13369060Y10886758D01*
X13352956Y10870656D01*
X13346780Y10861414D01*
X13344612Y10850512D01*
X13344614Y10850511D01*
Y10806800D01*
X13331300Y10793487D01*
X13317101D01*
Y10827700D01*
X13149699D01*
Y10702300D01*
X13317101D01*
Y10736513D01*
X13343098D01*
X13343100Y10736512D01*
X13354002Y10738681D01*
X13363245Y10744856D01*
X13393243Y10774856D01*
X13393243Y10774856D01*
X13399419Y10784098D01*
X13401588Y10795000D01*
X13401587Y10795001D01*
Y10838712D01*
X13416776Y10853900D01*
X13419695D01*
X13435387Y10860401D01*
X13447398Y10872413D01*
X13453900Y10888106D01*
Y10905094D01*
X13447398Y10920787D01*
X13435387Y10932799D01*
X13419695Y10939300D01*
D02*
G37*
G36*
X8001821Y10859600D02*
X7994650D01*
Y10763250D01*
X8091000D01*
Y10770421D01*
X8084001Y10796541D01*
X8070480Y10819959D01*
X8051359Y10839080D01*
X8027941Y10852601D01*
X8001821Y10859600D01*
D02*
G37*
G36*
X7981950D02*
X7974779D01*
X7948659Y10852601D01*
X7925241Y10839080D01*
X7906120Y10819959D01*
X7892599Y10796541D01*
X7885600Y10770421D01*
Y10763250D01*
X7981950D01*
Y10859600D01*
D02*
G37*
G36*
X12632100Y10787700D02*
X12604750D01*
Y10749350D01*
X12632100D01*
Y10787700D01*
D02*
G37*
G36*
X12592050D02*
X12564700D01*
Y10749350D01*
X12592050D01*
Y10787700D01*
D02*
G37*
G36*
X12632100Y10736650D02*
X12604750D01*
Y10698300D01*
X12632100D01*
Y10736650D01*
D02*
G37*
G36*
X12592050D02*
X12564700D01*
Y10698300D01*
X12592050D01*
Y10736650D01*
D02*
G37*
G36*
X8091000Y10750550D02*
X7994650D01*
Y10654200D01*
X8001821D01*
X8027941Y10661199D01*
X8051359Y10674720D01*
X8070480Y10693841D01*
X8084001Y10717259D01*
X8091000Y10743379D01*
Y10750550D01*
D02*
G37*
G36*
X7981950D02*
X7885600D01*
Y10743379D01*
X7892599Y10717259D01*
X7906120Y10693841D01*
X7925241Y10674720D01*
X7948659Y10661199D01*
X7974779Y10654200D01*
X7981950D01*
Y10750550D01*
D02*
G37*
G36*
X14859000Y11259421D02*
X14401801D01*
X14384456Y11255971D01*
X14369753Y11246147D01*
X14192526Y11068921D01*
X13741402D01*
X13741400Y11068921D01*
X13724055Y11065471D01*
X13709354Y11055647D01*
X13429953Y10776247D01*
X13420129Y10761544D01*
X13416679Y10744200D01*
Y10712173D01*
X12998154Y10293647D01*
X12988329Y10278944D01*
X12984879Y10261600D01*
Y9950172D01*
X12960628Y9925921D01*
X11696701D01*
X11696700Y9925921D01*
X11679356Y9922471D01*
X11664653Y9912647D01*
X11664653Y9912646D01*
X11271527Y9519521D01*
X10621000D01*
Y9557900D01*
X10495600D01*
Y9390500D01*
X10621000D01*
Y9428879D01*
X11290300D01*
X11307644Y9432329D01*
X11322347Y9442153D01*
X11715472Y9835279D01*
X12979401D01*
X12996744Y9838729D01*
X13011447Y9848553D01*
X13062247Y9899353D01*
X13062247Y9899353D01*
X13072070Y9914056D01*
X13075520Y9931400D01*
X13075520Y9931401D01*
Y10242827D01*
X13494048Y10661353D01*
X13503871Y10676056D01*
X13507321Y10693400D01*
Y10725427D01*
X13760173Y10978279D01*
X14211301D01*
X14228644Y10981729D01*
X14243347Y10991553D01*
X14420573Y11168779D01*
X14840227D01*
X15016879Y10992127D01*
Y10819071D01*
X15020329Y10801727D01*
X15030153Y10787024D01*
X15067349Y10749827D01*
X15067351Y10749826D01*
X15082054Y10740002D01*
X15099397Y10736552D01*
X15141180D01*
X15142642Y10729206D01*
X15148515Y10720415D01*
X15157306Y10714542D01*
X15167674Y10712479D01*
X15286925D01*
X15297295Y10714542D01*
X15306084Y10720415D01*
X15311958Y10729206D01*
X15314021Y10739575D01*
Y10739729D01*
X15393600D01*
Y10711200D01*
X15423279D01*
Y10674072D01*
X15358353Y10609147D01*
X15348529Y10594444D01*
X15347826Y10590902D01*
X15335670Y10587216D01*
X15234744Y10688144D01*
X15225502Y10694319D01*
X15214600Y10696488D01*
X15214600Y10696487D01*
X15074001D01*
X14976387Y10794100D01*
Y10934144D01*
X14976389Y10934145D01*
X14974219Y10945047D01*
X14968044Y10954289D01*
X14968044Y10954289D01*
X14950189Y10972144D01*
X14940947Y10978319D01*
X14930045Y10980488D01*
X14930045Y10980487D01*
X14891901D01*
Y11014700D01*
X14764787D01*
X14697644Y11081844D01*
X14688402Y11088019D01*
X14677499Y11090188D01*
X14677499Y11090187D01*
X14427200D01*
X14427200Y11090188D01*
X14416298Y11088019D01*
X14407056Y11081844D01*
X14407056Y11081843D01*
X14259914Y10934700D01*
X13881398D01*
X13873688Y10942412D01*
X13857993Y10948913D01*
X13841006D01*
X13825311Y10942412D01*
X13813300Y10930400D01*
X13806799Y10914706D01*
Y10897719D01*
X13813300Y10882025D01*
X13821011Y10874314D01*
Y10813299D01*
X13251357Y10243644D01*
X13245181Y10234402D01*
X13243011Y10223500D01*
X13243013Y10223499D01*
Y10070200D01*
X13187856Y10015044D01*
X13181680Y10005802D01*
X13179512Y9994900D01*
X13179514Y9994899D01*
Y9423401D01*
X13179512Y9423400D01*
X13181680Y9412498D01*
X13187856Y9403256D01*
X13547813Y9043300D01*
Y8909199D01*
X13540102Y8901487D01*
X13533600Y8885794D01*
Y8868806D01*
X13540102Y8853113D01*
X13552113Y8841101D01*
X13567805Y8834600D01*
X13584795D01*
X13600487Y8841101D01*
X13612498Y8853113D01*
X13619000Y8868806D01*
Y8885794D01*
X13612498Y8901487D01*
X13604787Y8909199D01*
Y9055099D01*
X13604788Y9055100D01*
X13602618Y9066002D01*
X13596445Y9075244D01*
X13596443Y9075244D01*
X13236487Y9435200D01*
Y9983100D01*
X13291643Y10038256D01*
X13291644Y10038256D01*
X13297820Y10047498D01*
X13299986Y10058400D01*
Y10211700D01*
X13869643Y10781355D01*
X13875818Y10790597D01*
X13877988Y10801499D01*
X13877986Y10801500D01*
Y10874314D01*
X13881398Y10877725D01*
X14271712D01*
X14271713Y10877725D01*
X14282614Y10879894D01*
X14291856Y10886069D01*
X14439000Y11033213D01*
X14665700D01*
X14724500Y10974413D01*
Y10889300D01*
X14891901D01*
Y10923513D01*
X14918245D01*
X14919414Y10922345D01*
Y10782301D01*
X14919412Y10782300D01*
X14921581Y10771398D01*
X14927756Y10762156D01*
X15042056Y10647857D01*
X15042056Y10647856D01*
X15051299Y10641681D01*
X15062199Y10639512D01*
X15062201Y10639513D01*
X15199257D01*
X15204457Y10632825D01*
X15198817Y10620287D01*
X15014200D01*
X14891901Y10742588D01*
Y10827700D01*
X14724500D01*
Y10798187D01*
X14598306D01*
Y10809075D01*
X14596301Y10819152D01*
X14590594Y10827694D01*
X14582051Y10833402D01*
X14571976Y10835406D01*
X14460225D01*
X14450150Y10833402D01*
X14441606Y10827694D01*
X14435898Y10819152D01*
X14433894Y10809075D01*
Y10778336D01*
X14135951D01*
X14133887Y10780399D01*
X14118195Y10786900D01*
X14101205D01*
X14085513Y10780399D01*
X14073502Y10768387D01*
X14067000Y10752694D01*
Y10735706D01*
X14073502Y10720013D01*
X14085513Y10708001D01*
X14101205Y10701500D01*
X14118195D01*
X14133887Y10708001D01*
X14145898Y10720013D01*
X14146458Y10721361D01*
X14435677D01*
X14435898Y10720249D01*
X14441606Y10711706D01*
X14450150Y10705998D01*
X14460225Y10703994D01*
X14571976D01*
X14582051Y10705998D01*
X14590594Y10711706D01*
X14596301Y10720249D01*
X14598306Y10730325D01*
Y10741213D01*
X14724500D01*
Y10702300D01*
X14851611D01*
X14982256Y10571656D01*
X14991498Y10565481D01*
X15002400Y10563312D01*
X15002402Y10563313D01*
X15202800D01*
X15227612Y10538500D01*
X15222353Y10525800D01*
X15206799D01*
X15205701Y10525800D01*
X15194099D01*
X15192999Y10525800D01*
X15079800D01*
X15078700Y10525800D01*
X15067101D01*
X15066000Y10525800D01*
X14952800D01*
X14951700Y10525800D01*
X14940100D01*
X14939000Y10525800D01*
X14910887D01*
Y10581099D01*
X14910889Y10581100D01*
X14908719Y10592002D01*
X14902544Y10601244D01*
X14902544Y10601244D01*
X14828345Y10675444D01*
X14819102Y10681619D01*
X14808200Y10683788D01*
X14808199Y10683787D01*
X14370200D01*
X14362486Y10691499D01*
X14346794Y10698000D01*
X14329807D01*
X14314113Y10691499D01*
X14302101Y10679487D01*
X14295599Y10663794D01*
Y10646806D01*
X14302101Y10631113D01*
X14314113Y10619101D01*
X14329807Y10612600D01*
X14346794D01*
X14362486Y10619101D01*
X14370200Y10626813D01*
X14796400D01*
X14853912Y10569300D01*
Y10525800D01*
X14825800D01*
X14824699Y10525800D01*
X14813100D01*
X14812000Y10525800D01*
X14698801D01*
X14697701Y10525800D01*
X14686099D01*
X14685001Y10525800D01*
X14571800D01*
X14570700Y10525800D01*
X14559100D01*
X14558000Y10525800D01*
X14444800D01*
X14443700Y10525800D01*
X14432100D01*
X14431000Y10525800D01*
X14317799D01*
X14316701Y10525800D01*
X14305099D01*
X14303999Y10525800D01*
X14189700D01*
Y10525800D01*
X14178099D01*
Y10525800D01*
X14063800D01*
X14062700Y10525800D01*
X14051100D01*
X14050000Y10525800D01*
X13936800D01*
X13935699Y10525800D01*
X13924100D01*
X13923000Y10525800D01*
X13808701D01*
Y10350400D01*
X13923000D01*
X13924100Y10350400D01*
X13935699D01*
X13936800Y10350400D01*
X14050000D01*
X14051100Y10350400D01*
X14062700D01*
X14063800Y10350400D01*
X14091913D01*
Y10334900D01*
X14085201Y10328187D01*
X13589001D01*
X13589000Y10328188D01*
X13578098Y10326019D01*
X13568855Y10319844D01*
X13568855Y10319843D01*
X13365656Y10116644D01*
X13359480Y10107402D01*
X13357312Y10096500D01*
X13357314Y10096499D01*
Y9879700D01*
X13312012Y9834400D01*
X13301106D01*
X13285413Y9827899D01*
X13273401Y9815887D01*
X13266901Y9800194D01*
Y9783206D01*
X13273401Y9767513D01*
X13285413Y9755501D01*
X13301106Y9749000D01*
X13318094D01*
X13333788Y9755501D01*
X13345799Y9767513D01*
X13352299Y9783206D01*
Y9794112D01*
X13405943Y9847756D01*
X13412119Y9856998D01*
X13414288Y9867900D01*
X13414287Y9867901D01*
Y10084700D01*
X13600800Y10271213D01*
X13616565D01*
X13621825Y10258513D01*
X13454556Y10091244D01*
X13448381Y10082002D01*
X13446211Y10071100D01*
X13446213Y10071099D01*
Y9841600D01*
X13324712Y9720100D01*
X13313806D01*
X13298112Y9713599D01*
X13286101Y9701587D01*
X13279601Y9685894D01*
Y9668906D01*
X13286101Y9653213D01*
X13298112Y9641201D01*
X13313806Y9634700D01*
X13330794D01*
X13346487Y9641201D01*
X13358499Y9653213D01*
X13364999Y9668906D01*
Y9679812D01*
X13494843Y9809656D01*
X13494844Y9809656D01*
X13501019Y9818898D01*
X13503188Y9829800D01*
X13503188Y9829801D01*
Y10059300D01*
X13644403Y10200516D01*
X13653700Y10191852D01*
X13653700Y10179785D01*
Y10140950D01*
X13735049D01*
Y10192300D01*
X13666393D01*
X13654147Y10192300D01*
X13645483Y10201597D01*
X13664301Y10220413D01*
X14198599D01*
X14198599Y10220412D01*
X14209502Y10222581D01*
X14218744Y10228756D01*
X14267543Y10277556D01*
X14267545Y10277556D01*
X14273718Y10286798D01*
X14275887Y10297700D01*
Y10350400D01*
X14303999D01*
X14305099Y10350400D01*
X14316701D01*
X14317799Y10350400D01*
X14431000D01*
X14432100Y10350400D01*
X14443700D01*
X14444800Y10350400D01*
X14558000D01*
X14559100Y10350400D01*
X14570700D01*
X14571800Y10350400D01*
X14685001D01*
X14686099Y10350400D01*
X14697701D01*
X14698801Y10350400D01*
X14812000D01*
X14813100Y10350400D01*
X14824699D01*
X14825800Y10350400D01*
X14939000D01*
X14940100Y10350400D01*
X14951700D01*
X14952800Y10350400D01*
X15066000D01*
X15067101Y10350400D01*
X15078700D01*
X15079800Y10350400D01*
X15192999D01*
X15194099Y10350400D01*
X15205701D01*
X15206799Y10350400D01*
X15321098D01*
Y10350400D01*
X15332701D01*
Y10350400D01*
X15447000D01*
X15448100Y10350400D01*
X15459700D01*
X15460800Y10350400D01*
X15511050D01*
Y10438100D01*
Y10525800D01*
X15460800D01*
X15459700Y10525800D01*
X15448100D01*
X15435721Y10529229D01*
Y10558327D01*
X15500645Y10623253D01*
X15500647Y10623253D01*
X15510471Y10637957D01*
X15513921Y10655300D01*
X15513921Y10655301D01*
Y10711200D01*
X15569000D01*
Y10866600D01*
X15393600D01*
Y10830371D01*
X15312520D01*
X15311958Y10833194D01*
X15306084Y10841984D01*
X15297295Y10847858D01*
X15286925Y10849921D01*
X15167674D01*
X15157306Y10847858D01*
X15148515Y10841984D01*
X15142642Y10833194D01*
X15141447Y10827194D01*
X15118170D01*
X15107521Y10837843D01*
Y11010899D01*
X15107521Y11010900D01*
X15104071Y11028244D01*
X15094247Y11042947D01*
X14891048Y11246147D01*
X14876344Y11255971D01*
X14859000Y11259421D01*
D02*
G37*
G36*
X12632100Y10637700D02*
X12564700D01*
Y10548300D01*
X12569913D01*
Y10516159D01*
X12534341Y10480587D01*
X11925301D01*
X11925300Y10480588D01*
X11914398Y10478419D01*
X11905156Y10472244D01*
X11905156Y10472243D01*
X11856556Y10423644D01*
X11850381Y10414402D01*
X11848213Y10403500D01*
X11848213Y10403499D01*
Y10320200D01*
X11794000D01*
Y10084800D01*
X11959400D01*
Y10320200D01*
X11905188D01*
Y10391700D01*
X11937100Y10423613D01*
X12546140D01*
X12546141Y10423612D01*
X12557043Y10425781D01*
X12566285Y10431956D01*
X12618544Y10484215D01*
X12624719Y10493457D01*
X12626888Y10504359D01*
X12626887Y10504360D01*
Y10548300D01*
X12632100D01*
Y10564513D01*
X12699700D01*
X12758900Y10505313D01*
Y10494406D01*
X12765401Y10478713D01*
X12777413Y10466701D01*
X12793106Y10460200D01*
X12810094D01*
X12825787Y10466701D01*
X12837799Y10478713D01*
X12844299Y10494406D01*
Y10511394D01*
X12837799Y10527087D01*
X12825787Y10539099D01*
X12810094Y10545600D01*
X12799187D01*
X12731644Y10613144D01*
X12722402Y10619319D01*
X12711500Y10621488D01*
X12711499Y10621487D01*
X12632100D01*
Y10637700D01*
D02*
G37*
G36*
X15523750Y10525800D02*
Y10444450D01*
X15575101D01*
Y10525800D01*
X15523750D01*
D02*
G37*
G36*
X15575101Y10431750D02*
X15523750D01*
Y10350400D01*
X15575101D01*
Y10431750D01*
D02*
G37*
G36*
X10117200Y10323200D02*
X10003350D01*
Y10269350D01*
X10117200D01*
Y10323200D01*
D02*
G37*
G36*
X9990650D02*
X9876800D01*
Y10269350D01*
X9990650D01*
Y10323200D01*
D02*
G37*
G36*
X10117200Y10256650D02*
X10003350D01*
Y10202800D01*
X10117200D01*
Y10256650D01*
D02*
G37*
G36*
X9990650D02*
X9876800D01*
Y10202800D01*
X9990650D01*
Y10256650D01*
D02*
G37*
G36*
X8001821Y11367600D02*
X7974779D01*
X7948659Y11360601D01*
X7925241Y11347080D01*
X7906120Y11327959D01*
X7892599Y11304541D01*
X7885600Y11278421D01*
Y11251379D01*
X7892599Y11225259D01*
X7906120Y11201841D01*
X7925241Y11182720D01*
X7948659Y11169199D01*
X7974779Y11162200D01*
X7999438D01*
X8183819Y10977819D01*
X8204824Y10963784D01*
X8229600Y10958856D01*
X8511566D01*
X8533156Y10937266D01*
Y10388600D01*
X8538084Y10363824D01*
X8552119Y10342819D01*
X8707519Y10187419D01*
X8728523Y10173384D01*
X8753300Y10168456D01*
X8975057D01*
X8981090Y10162422D01*
X9001260Y10150778D01*
X9023755Y10144750D01*
X9047045D01*
X9069540Y10150778D01*
X9089710Y10162422D01*
X9106178Y10178890D01*
X9117822Y10199060D01*
X9123850Y10221555D01*
Y10244845D01*
X9117822Y10267340D01*
X9106178Y10287510D01*
X9089710Y10303978D01*
X9069540Y10315622D01*
X9047045Y10321650D01*
X9023755D01*
X9001260Y10315622D01*
X8981090Y10303978D01*
X8975057Y10297944D01*
X8780118D01*
X8662644Y10415418D01*
Y10964084D01*
X8657716Y10988861D01*
X8643681Y11009865D01*
X8584165Y11069381D01*
X8563160Y11083416D01*
X8538384Y11088344D01*
X8256418D01*
X8091000Y11253762D01*
Y11278421D01*
X8084001Y11304541D01*
X8070480Y11327959D01*
X8051359Y11347080D01*
X8027941Y11360601D01*
X8001821Y11367600D01*
D02*
G37*
G36*
X13747749Y10192300D02*
Y10140950D01*
X13829100D01*
Y10192300D01*
X13747749D01*
D02*
G37*
G36*
X12414400Y10320200D02*
X12249000D01*
Y10084800D01*
X12414400D01*
Y10320200D01*
D02*
G37*
G36*
X10405100Y11297800D02*
X10279700D01*
Y11224377D01*
X10277656Y11214100D01*
Y10978818D01*
X10190419Y10891581D01*
X10176384Y10870576D01*
X10171456Y10845800D01*
Y10015618D01*
X10129900Y9974062D01*
X10117200Y9979322D01*
X10117200Y9982798D01*
Y10093200D01*
X9876800D01*
Y10078321D01*
X9601200D01*
X9583856Y10074871D01*
X9569153Y10065047D01*
X9416753Y9912647D01*
X9406929Y9897944D01*
X9403479Y9880600D01*
X9406929Y9863256D01*
X9416753Y9848553D01*
X9431456Y9838729D01*
X9448800Y9835279D01*
X9466144Y9838729D01*
X9480847Y9848553D01*
X9619973Y9987679D01*
X9876800D01*
Y9972800D01*
X10107129D01*
X10110678Y9972799D01*
X10112939Y9967341D01*
X10115938Y9960100D01*
X10023582Y9867744D01*
X9997000D01*
X9974156Y9863200D01*
X9876800D01*
Y9742800D01*
X9930156D01*
Y9704218D01*
X9873082Y9647144D01*
X9815900D01*
Y9660100D01*
X9640500D01*
Y9504700D01*
X9663456D01*
Y9065053D01*
X9650756Y9056567D01*
X9643194Y9059700D01*
X9626207D01*
X9610513Y9053199D01*
X9602801Y9045487D01*
X9499601D01*
X9499600Y9045488D01*
X9488698Y9043319D01*
X9479456Y9037144D01*
X9479456Y9037143D01*
X9365156Y8922844D01*
X9358981Y8913602D01*
X9356812Y8902700D01*
X9356813Y8902699D01*
Y8677900D01*
X9301600D01*
Y8552500D01*
X9469000D01*
Y8677900D01*
X9413787D01*
Y8890900D01*
X9511400Y8988513D01*
X9602801D01*
X9610513Y8980801D01*
X9626207Y8974300D01*
X9643194D01*
X9650756Y8977433D01*
X9663456Y8968947D01*
Y8623300D01*
X9668384Y8598524D01*
X9682419Y8577519D01*
X9830513Y8429425D01*
X9830199Y8428819D01*
X9830199Y8428819D01*
X9824377Y8417601D01*
X9817366Y8417600D01*
X9628000D01*
Y8340221D01*
X9387100D01*
X9369757Y8336771D01*
X9355053Y8326947D01*
X9355053Y8326946D01*
X9264353Y8236247D01*
X9254529Y8221544D01*
X9251079Y8204200D01*
Y7982073D01*
X9201054Y7932047D01*
X9189321Y7936908D01*
Y8001000D01*
X9185871Y8018344D01*
X9176047Y8033047D01*
X9098547Y8110547D01*
X9083844Y8120371D01*
X9066500Y8123821D01*
X8361300D01*
Y8166200D01*
X7785900D01*
Y7990800D01*
X8361300D01*
Y8033179D01*
X9047727D01*
X9098679Y7982227D01*
Y7878638D01*
X9096750D01*
X9086039Y7876507D01*
X9076959Y7870440D01*
X9070892Y7861360D01*
X9068762Y7850650D01*
Y7821150D01*
X9070892Y7810440D01*
X9076959Y7801360D01*
X9086039Y7795293D01*
X9096750Y7793162D01*
X9129513D01*
X9142500Y7790579D01*
X9169000D01*
X9181987Y7793162D01*
X9188250D01*
X9198961Y7795293D01*
X9208040Y7801360D01*
X9214107Y7810440D01*
X9215715Y7818522D01*
X9328447Y7931253D01*
X9338271Y7945956D01*
X9341721Y7963300D01*
Y8185427D01*
X9405872Y8249579D01*
X9628000D01*
Y8172200D01*
X9828400D01*
Y8405651D01*
X9828400Y8413577D01*
X9840225Y8419713D01*
X10038019Y8221919D01*
X10059024Y8207884D01*
X10083800Y8202956D01*
X12457282D01*
X12876556Y7783682D01*
Y7493000D01*
X12881483Y7468224D01*
X12895518Y7447219D01*
X13162219Y7180519D01*
X13183223Y7166484D01*
X13208000Y7161556D01*
X14273383D01*
X14476756Y6958182D01*
Y6750000D01*
X14446300D01*
Y6559600D01*
X14636700D01*
Y6590056D01*
X14922501D01*
X14947276Y6594984D01*
X14968282Y6609019D01*
X15298482Y6939219D01*
X15312515Y6960224D01*
X15317444Y6985000D01*
Y7302772D01*
X15330144Y7305298D01*
X15330801Y7303713D01*
X15342813Y7291701D01*
X15358505Y7285200D01*
X15375494D01*
X15391187Y7291701D01*
X15398898Y7299413D01*
X15438499D01*
Y7257300D01*
X16013901D01*
Y7382700D01*
X15438499D01*
Y7356387D01*
X15398898D01*
X15391187Y7364099D01*
X15375494Y7370600D01*
X15358505D01*
X15342813Y7364099D01*
X15330801Y7352087D01*
X15330144Y7350502D01*
X15317444Y7353028D01*
Y7531372D01*
X15330144Y7533898D01*
X15330801Y7532313D01*
X15342813Y7520301D01*
X15358505Y7513800D01*
X15371393D01*
X15385336Y7499857D01*
X15385336Y7499856D01*
X15394579Y7493681D01*
X15405479Y7491512D01*
X15405481Y7491513D01*
X15438499D01*
Y7457300D01*
X16013901D01*
Y7582700D01*
X15438499D01*
Y7548487D01*
X15417281D01*
X15409700Y7556067D01*
Y7564994D01*
X15403198Y7580687D01*
X15391187Y7592699D01*
X15375494Y7599200D01*
X15358505D01*
X15342813Y7592699D01*
X15330801Y7580687D01*
X15330144Y7579102D01*
X15317444Y7581628D01*
Y7833666D01*
X15339034Y7855256D01*
X15726199D01*
X15736478Y7857300D01*
X16013901D01*
Y7982700D01*
X15736478D01*
X15726199Y7984744D01*
X15312216D01*
X15287439Y7979816D01*
X15266435Y7965781D01*
X15206918Y7906265D01*
X15192883Y7885260D01*
X15187956Y7860484D01*
Y7597991D01*
X15175287Y7592699D01*
X15159595Y7599200D01*
X15142606D01*
X15126913Y7592699D01*
X15114902Y7580687D01*
X15108400Y7564994D01*
Y7554087D01*
X14999600Y7445287D01*
X13892900D01*
X13783788Y7554400D01*
Y7599000D01*
X13800000D01*
Y7666400D01*
X13710600D01*
Y7661187D01*
X13677000D01*
X13596687Y7741500D01*
Y7841100D01*
X13630901D01*
Y8008500D01*
X13505499D01*
Y7841100D01*
X13539713D01*
Y7729701D01*
X13539713Y7729700D01*
X13541881Y7718798D01*
X13548056Y7709556D01*
X13645056Y7612556D01*
X13654298Y7606381D01*
X13665199Y7604212D01*
X13665201Y7604213D01*
X13710600D01*
Y7599000D01*
X13726813D01*
Y7542601D01*
X13726813Y7542600D01*
X13728981Y7531698D01*
X13735156Y7522456D01*
X13860956Y7396656D01*
X13870198Y7390481D01*
X13881100Y7388312D01*
X13881100Y7388313D01*
X15011398D01*
X15011400Y7388312D01*
X15022302Y7390481D01*
X15031544Y7396656D01*
X15148688Y7513800D01*
X15159595D01*
X15175287Y7520301D01*
X15187956Y7515009D01*
Y7011818D01*
X14895682Y6719544D01*
X14636700D01*
Y6750000D01*
X14606244D01*
Y6985000D01*
X14601315Y7009776D01*
X14587280Y7030781D01*
X14345981Y7272081D01*
X14324976Y7286116D01*
X14300200Y7291044D01*
X13234818D01*
X13006044Y7519818D01*
Y7810500D01*
X13001115Y7835277D01*
X12987080Y7856281D01*
X12529881Y8313481D01*
X12508876Y8327516D01*
X12484100Y8332444D01*
X10110618D01*
X9792944Y8650118D01*
Y9504700D01*
X9815900D01*
Y9517656D01*
X9899900D01*
X9924676Y9522584D01*
X9945681Y9536619D01*
X10040681Y9631619D01*
X10054716Y9652624D01*
X10059644Y9677400D01*
Y9740095D01*
X10073245Y9742800D01*
X10117200D01*
Y9778238D01*
X10281981Y9943019D01*
X10296016Y9964023D01*
X10300944Y9988800D01*
Y10818982D01*
X10388181Y10906219D01*
X10402216Y10927224D01*
X10407144Y10952000D01*
Y11214100D01*
X10405100Y11224377D01*
Y11297800D01*
D02*
G37*
G36*
X14663100Y9910800D02*
X14611749D01*
Y9859450D01*
X14663100D01*
Y9910800D01*
D02*
G37*
G36*
X14599049D02*
X14547701D01*
Y9859450D01*
X14599049D01*
Y9910800D01*
D02*
G37*
G36*
X14803101D02*
X14751750D01*
Y9859450D01*
X14803101D01*
Y9910800D01*
D02*
G37*
G36*
X14739050D02*
X14687700D01*
Y9859450D01*
X14739050D01*
Y9910800D01*
D02*
G37*
G36*
X14943100D02*
X14891750D01*
Y9859450D01*
X14943100D01*
Y9910800D01*
D02*
G37*
G36*
X14879050D02*
X14827699D01*
Y9859450D01*
X14879050D01*
Y9910800D01*
D02*
G37*
G36*
X10934500Y10125243D02*
X10782500D01*
X10771692Y10123093D01*
X10762529Y10116971D01*
X10756407Y10107808D01*
X10754257Y10097000D01*
Y10007000D01*
X10756407Y9996192D01*
X10762529Y9987029D01*
X10771692Y9980907D01*
X10782500Y9978757D01*
X10934500D01*
X10945308Y9980907D01*
X10954471Y9987029D01*
X10960593Y9996192D01*
X10962679Y10006679D01*
X11011227D01*
X11041779Y9976128D01*
Y9935200D01*
X11003400D01*
Y9809800D01*
X11170800D01*
Y9935200D01*
X11132421D01*
Y9994900D01*
X11128971Y10012243D01*
X11119147Y10026947D01*
X11119146Y10026947D01*
X11062047Y10084047D01*
X11047344Y10093871D01*
X11030000Y10097321D01*
X10962679D01*
X10960593Y10107808D01*
X10954471Y10116971D01*
X10945308Y10123093D01*
X10934500Y10125243D01*
D02*
G37*
G36*
X14943100Y9846750D02*
X14891750D01*
Y9795400D01*
X14943100D01*
Y9846750D01*
D02*
G37*
G36*
X14879050D02*
X14827699D01*
Y9795400D01*
X14879050D01*
Y9846750D01*
D02*
G37*
G36*
X14803101Y9846750D02*
X14751750D01*
Y9795400D01*
X14803101D01*
Y9846750D01*
D02*
G37*
G36*
X14739050D02*
X14687700D01*
Y9795400D01*
X14739050D01*
Y9846750D01*
D02*
G37*
G36*
X14663100Y9846750D02*
X14611749D01*
Y9795400D01*
X14663100D01*
Y9846750D01*
D02*
G37*
G36*
X14599049D02*
X14547701D01*
Y9795400D01*
X14599049D01*
Y9846750D01*
D02*
G37*
G36*
X9815900Y9850100D02*
X9734550D01*
Y9778750D01*
X9815900D01*
Y9850100D01*
D02*
G37*
G36*
X9721850D02*
X9640500D01*
Y9778750D01*
X9721850D01*
Y9850100D01*
D02*
G37*
G36*
X14663100Y9770800D02*
X14611749D01*
Y9719450D01*
X14663100D01*
Y9770800D01*
D02*
G37*
G36*
X14599049D02*
X14547701D01*
Y9719450D01*
X14599049D01*
Y9770800D01*
D02*
G37*
G36*
X14803101D02*
X14751750D01*
Y9719450D01*
X14803101D01*
Y9770800D01*
D02*
G37*
G36*
X14739050D02*
X14687700D01*
Y9719450D01*
X14739050D01*
Y9770800D01*
D02*
G37*
G36*
X14943100D02*
X14891750D01*
Y9719450D01*
X14943100D01*
Y9770800D01*
D02*
G37*
G36*
X14879050D02*
X14827699D01*
Y9719450D01*
X14879050D01*
Y9770800D01*
D02*
G37*
G36*
X9815900Y9766050D02*
X9734550D01*
Y9694700D01*
X9815900D01*
Y9766050D01*
D02*
G37*
G36*
X9721850D02*
X9640500D01*
Y9694700D01*
X9721850D01*
Y9766050D01*
D02*
G37*
G36*
X11170800Y9748200D02*
X11093451D01*
Y9691850D01*
X11170800D01*
Y9748200D01*
D02*
G37*
G36*
X11080751D02*
X11003400D01*
Y9691850D01*
X11080751D01*
Y9748200D01*
D02*
G37*
G36*
X10697200Y10208200D02*
X10456800D01*
Y9857800D01*
X10531679D01*
Y9809570D01*
X10521030Y9798921D01*
X10274301D01*
X10274300Y9798921D01*
X10256956Y9795471D01*
X10242253Y9785647D01*
X10039053Y9582447D01*
X10029229Y9567744D01*
X10025779Y9550400D01*
Y9448800D01*
X10029229Y9431456D01*
X10039053Y9416753D01*
X10102553Y9353254D01*
X10102553Y9353253D01*
X10117257Y9343429D01*
X10134600Y9339979D01*
X10289550D01*
X10306894Y9343429D01*
X10321597Y9353253D01*
X10358843Y9390500D01*
X10434000D01*
Y9557900D01*
X10308600D01*
Y9467964D01*
X10307153Y9466997D01*
X10270777Y9430621D01*
X10153372D01*
X10116421Y9467573D01*
Y9531627D01*
X10293073Y9708279D01*
X10539802D01*
X10557146Y9711729D01*
X10571849Y9721553D01*
X10609046Y9758750D01*
X10609047Y9758751D01*
X10618871Y9773454D01*
X10622321Y9790798D01*
Y9853179D01*
X10635021Y9855886D01*
X10734703Y9756203D01*
X10749406Y9746379D01*
X10754257Y9745414D01*
Y9715000D01*
X10756407Y9704192D01*
X10762529Y9695029D01*
X10771692Y9688907D01*
X10782500Y9686757D01*
X10934500D01*
X10945308Y9688907D01*
X10954471Y9695029D01*
X10960593Y9704192D01*
X10962743Y9715000D01*
Y9805000D01*
X10960593Y9815808D01*
X10954471Y9824971D01*
X10945308Y9831093D01*
X10934500Y9833243D01*
X10831900D01*
X10830250Y9833571D01*
X10785522D01*
X10697200Y9921894D01*
Y10208200D01*
D02*
G37*
G36*
X14943100Y9706750D02*
X14891750D01*
Y9655400D01*
X14943100D01*
Y9706750D01*
D02*
G37*
G36*
X14879050D02*
X14827699D01*
Y9655400D01*
X14879050D01*
Y9706750D01*
D02*
G37*
G36*
X14803101Y9706750D02*
X14751750D01*
Y9655400D01*
X14803101D01*
Y9706750D01*
D02*
G37*
G36*
X14739050D02*
X14687700D01*
Y9655400D01*
X14739050D01*
Y9706750D01*
D02*
G37*
G36*
X14663100Y9706750D02*
X14611749D01*
Y9655400D01*
X14663100D01*
Y9706750D01*
D02*
G37*
G36*
X14599049D02*
X14547701D01*
Y9655400D01*
X14599049D01*
Y9706750D01*
D02*
G37*
G36*
X11170800Y9679150D02*
X11093451D01*
Y9622800D01*
X11170800D01*
Y9679150D01*
D02*
G37*
G36*
X11080751D02*
X11003400D01*
Y9622800D01*
X11080751D01*
Y9679150D01*
D02*
G37*
G36*
X12413300Y9704000D02*
X12336950D01*
Y9592651D01*
X12413300D01*
Y9704000D01*
D02*
G37*
G36*
X12324250D02*
X12247900D01*
Y9592651D01*
X12324250D01*
Y9704000D01*
D02*
G37*
G36*
X14663100Y9630800D02*
X14611751D01*
Y9579450D01*
X14663100D01*
Y9630800D01*
D02*
G37*
G36*
X14599051D02*
X14547701D01*
Y9579450D01*
X14599051D01*
Y9630800D01*
D02*
G37*
G36*
X14803101D02*
X14751752D01*
Y9579449D01*
X14803101D01*
Y9630800D01*
D02*
G37*
G36*
X14739050D02*
X14687700D01*
Y9579449D01*
X14739050D01*
Y9630800D01*
D02*
G37*
G36*
X14943100D02*
X14891750D01*
Y9579449D01*
X14943100D01*
Y9630800D01*
D02*
G37*
G36*
X14879050D02*
X14827699D01*
Y9579449D01*
X14879050D01*
Y9630800D01*
D02*
G37*
G36*
X14943100Y9566749D02*
X14891750D01*
Y9515400D01*
X14943100D01*
Y9566749D01*
D02*
G37*
G36*
X14879050D02*
X14827699D01*
Y9515400D01*
X14879050D01*
Y9566749D01*
D02*
G37*
G36*
X14803101Y9566749D02*
X14751752D01*
Y9515400D01*
X14803101D01*
Y9566749D01*
D02*
G37*
G36*
X14739050D02*
X14687700D01*
Y9515400D01*
X14739050D01*
Y9566749D01*
D02*
G37*
G36*
X14663100Y9566750D02*
X14611751D01*
Y9515400D01*
X14663100D01*
Y9566750D01*
D02*
G37*
G36*
X14599051D02*
X14547701D01*
Y9515400D01*
X14599051D01*
Y9566750D01*
D02*
G37*
G36*
X12413300Y9579951D02*
X12336950D01*
Y9468600D01*
X12413300D01*
Y9579951D01*
D02*
G37*
G36*
X12324250D02*
X12247900D01*
Y9468600D01*
X12324250D01*
Y9579951D01*
D02*
G37*
G36*
X11958300Y9704000D02*
X11792900D01*
Y9468600D01*
X11958300D01*
Y9704000D01*
D02*
G37*
G36*
X12606700Y9251000D02*
X12579350D01*
Y9212650D01*
X12606700D01*
Y9251000D01*
D02*
G37*
G36*
X12566650D02*
X12539300D01*
Y9212650D01*
X12566650D01*
Y9251000D01*
D02*
G37*
G36*
X13347701Y9172488D02*
X13347699Y9172487D01*
X12827000D01*
X12827000Y9172488D01*
X12816098Y9170319D01*
X12806856Y9164144D01*
X12727500Y9084787D01*
X12606700D01*
Y9101000D01*
X12539300D01*
Y9011600D01*
X12544513D01*
Y8965300D01*
X12485000Y8905787D01*
X11912601D01*
X11912600Y8905788D01*
X11901698Y8903619D01*
X11892456Y8897444D01*
X11855456Y8860444D01*
X11849281Y8851202D01*
X11847112Y8840300D01*
X11847113Y8840299D01*
Y8794000D01*
X11792900D01*
Y8558600D01*
X11958300D01*
Y8794000D01*
X11904087D01*
Y8828500D01*
X11924400Y8848813D01*
X12496799D01*
X12496800Y8848812D01*
X12507702Y8850981D01*
X12516944Y8857156D01*
X12593144Y8933356D01*
X12599319Y8942598D01*
X12601488Y8953500D01*
X12601487Y8953501D01*
Y9011600D01*
X12606700D01*
Y9027813D01*
X12739299D01*
X12739300Y9027812D01*
X12750202Y9029981D01*
X12759444Y9036156D01*
X12838800Y9115513D01*
X13335899D01*
X13446213Y9005200D01*
Y8604399D01*
X13438501Y8596687D01*
X13432001Y8580994D01*
Y8564006D01*
X13438501Y8548313D01*
X13450513Y8536301D01*
X13466206Y8529800D01*
X13483194D01*
X13498888Y8536301D01*
X13506599Y8544013D01*
X13830299D01*
X13830299Y8544012D01*
X13841202Y8546181D01*
X13850444Y8552356D01*
X13875842Y8577756D01*
X13875844Y8577756D01*
X13882019Y8586998D01*
X13884187Y8597900D01*
Y8600400D01*
X13923000D01*
X13924100Y8600400D01*
X13935699D01*
X13936800Y8600400D01*
X13964912D01*
Y8569600D01*
X13894701Y8499387D01*
X13325101D01*
X13266299Y8558188D01*
Y8643300D01*
X13098900D01*
Y8517900D01*
X13226012D01*
X13293156Y8450757D01*
X13293156Y8450756D01*
X13302399Y8444581D01*
X13313300Y8442412D01*
X13313301Y8442413D01*
X13906499D01*
X13906500Y8442412D01*
X13917403Y8444581D01*
X13926643Y8450756D01*
X14013544Y8537656D01*
X14013544Y8537656D01*
X14019719Y8546898D01*
X14021887Y8557800D01*
Y8600400D01*
X14050000D01*
X14051100Y8600400D01*
X14062700D01*
X14063800Y8600400D01*
X14091913D01*
Y8391871D01*
X14091911Y8391870D01*
X14094081Y8380968D01*
X14100256Y8371726D01*
X14157413Y8314570D01*
Y8119555D01*
X14156245Y8118387D01*
X13411201D01*
X13411200Y8118388D01*
X13400298Y8116219D01*
X13391055Y8110044D01*
X13391055Y8110043D01*
X13361057Y8080044D01*
X13354881Y8070802D01*
X13352711Y8059900D01*
X13352713Y8059899D01*
Y8008500D01*
X13318500D01*
Y7841100D01*
X13443900D01*
Y8008500D01*
X13409686D01*
Y8048100D01*
X13423000Y8061413D01*
X14168044D01*
X14168045Y8061412D01*
X14178947Y8063581D01*
X14188190Y8069756D01*
X14206042Y8087611D01*
X14206044Y8087611D01*
X14212219Y8096853D01*
X14214388Y8107755D01*
X14214388Y8107756D01*
Y8326368D01*
X14214388Y8326370D01*
X14212219Y8337271D01*
X14206044Y8346513D01*
X14206042Y8346514D01*
X14148888Y8403670D01*
Y8600400D01*
X14177000D01*
X14178101Y8600400D01*
X14189700D01*
X14190800Y8600400D01*
X14218913D01*
Y8373489D01*
X14218912Y8373487D01*
X14221082Y8362586D01*
X14227255Y8353344D01*
X14247400Y8333200D01*
Y8304714D01*
X14247400Y8304713D01*
X14249568Y8293811D01*
X14255743Y8284569D01*
X14394113Y8146200D01*
Y8008500D01*
X14359900D01*
Y7841100D01*
X14485300D01*
Y8008500D01*
X14451086D01*
Y8158000D01*
X14448920Y8168902D01*
X14442744Y8178144D01*
X14442743Y8178144D01*
X14304375Y8316513D01*
Y8344999D01*
X14304375Y8345000D01*
X14302206Y8355902D01*
X14296031Y8365144D01*
X14296030Y8365144D01*
X14275887Y8385288D01*
Y8600400D01*
X14303999D01*
X14305099Y8600400D01*
X14316701D01*
X14317799Y8600400D01*
X14342863D01*
Y8381262D01*
X14332101Y8370500D01*
X14325600Y8354806D01*
Y8337819D01*
X14332101Y8322125D01*
X14344113Y8310113D01*
X14359805Y8303613D01*
X14376793D01*
X14392487Y8310113D01*
X14404498Y8322125D01*
X14411000Y8337819D01*
Y8354806D01*
X14404498Y8370500D01*
X14399837Y8375162D01*
Y8600400D01*
X14431000D01*
X14432100Y8600400D01*
X14443700D01*
X14444800Y8600400D01*
X14558000D01*
X14559100Y8600400D01*
X14570700D01*
X14571800Y8600400D01*
X14685001D01*
X14686099Y8600400D01*
X14697701D01*
X14698801Y8600400D01*
X14812000D01*
X14813100Y8600400D01*
X14824699D01*
X14825800Y8600400D01*
X14939000D01*
X14940100Y8600400D01*
X14951700D01*
X14952800Y8600400D01*
X14980913D01*
Y7833000D01*
X14772511Y7624600D01*
X14761606D01*
X14745914Y7618099D01*
X14733900Y7606087D01*
X14727400Y7590394D01*
Y7573406D01*
X14733900Y7557713D01*
X14745914Y7545701D01*
X14761606Y7539200D01*
X14778593D01*
X14794287Y7545701D01*
X14806299Y7557713D01*
X14812801Y7573406D01*
Y7584312D01*
X15029543Y7801056D01*
X15029544Y7801056D01*
X15035719Y7810298D01*
X15037888Y7821200D01*
Y8600400D01*
X15066000D01*
X15067101Y8600400D01*
X15078700D01*
X15079800Y8600400D01*
X15107913D01*
Y7794900D01*
X14899512Y7586500D01*
X14888606D01*
X14872913Y7579999D01*
X14860901Y7567987D01*
X14854401Y7552294D01*
Y7535306D01*
X14860901Y7519613D01*
X14872913Y7507601D01*
X14888606Y7501100D01*
X14905594D01*
X14921288Y7507601D01*
X14933299Y7519613D01*
X14939799Y7535306D01*
Y7546212D01*
X15156543Y7762956D01*
X15156544Y7762956D01*
X15162720Y7772198D01*
X15164886Y7783100D01*
Y8600400D01*
X15192999D01*
X15194099Y8600400D01*
X15205701D01*
X15206799Y8600400D01*
X15320000D01*
X15321100Y8600400D01*
X15332700D01*
X15333800Y8600400D01*
X15447000D01*
X15448100Y8600400D01*
X15459700D01*
X15460800Y8600400D01*
X15511050D01*
Y8688101D01*
X15517400D01*
D01*
X15511050D01*
Y8775800D01*
X15460800D01*
X15459700Y8775800D01*
X15448100D01*
X15447000Y8775800D01*
X15333800D01*
X15332700Y8775800D01*
X15321100D01*
X15320000Y8775800D01*
X15206799D01*
X15205701Y8775800D01*
X15194099D01*
X15192999Y8775800D01*
X15079800D01*
X15078700Y8775800D01*
X15067101D01*
X15066000Y8775800D01*
X14952800D01*
X14951700Y8775800D01*
X14940100D01*
X14939000Y8775800D01*
X14825800D01*
X14824699Y8775800D01*
X14813100D01*
X14812000Y8775800D01*
X14698801D01*
X14697701Y8775800D01*
X14686099D01*
X14685001Y8775800D01*
X14571800D01*
X14570700Y8775800D01*
X14559100D01*
X14558000Y8775800D01*
X14444800D01*
X14443700Y8775800D01*
X14432100D01*
X14431000Y8775800D01*
X14317799D01*
X14316701Y8775800D01*
X14305099D01*
X14303999Y8775800D01*
X14190800D01*
X14189700Y8775800D01*
X14178101D01*
X14177000Y8775800D01*
X14063800D01*
X14062700Y8775800D01*
X14051100D01*
X14050000Y8775800D01*
X13936800D01*
X13935699Y8775800D01*
X13924100D01*
X13923000Y8775800D01*
X13808701D01*
Y8600987D01*
X13506599D01*
X13503188Y8604399D01*
Y9016999D01*
X13503188Y9017000D01*
X13501019Y9027902D01*
X13494844Y9037144D01*
X13494843Y9037144D01*
X13367844Y9164144D01*
X13358601Y9170319D01*
X13347701Y9172488D01*
D02*
G37*
G36*
X12606700Y9199950D02*
X12579350D01*
Y9161600D01*
X12606700D01*
Y9199950D01*
D02*
G37*
G36*
X12566650D02*
X12539300D01*
Y9161600D01*
X12566650D01*
Y9199950D01*
D02*
G37*
G36*
X8927045Y9816650D02*
X8903755D01*
X8881260Y9810622D01*
X8861090Y9798978D01*
X8844622Y9782510D01*
X8832978Y9762340D01*
X8826950Y9739845D01*
Y9731312D01*
X8672682Y9577044D01*
X8331200D01*
X8306424Y9572116D01*
X8285419Y9558081D01*
X7986738Y9259400D01*
X7962079D01*
X7935959Y9252401D01*
X7912541Y9238880D01*
X7893420Y9219759D01*
X7879899Y9196341D01*
X7872900Y9170221D01*
Y9143179D01*
X7879899Y9117059D01*
X7893420Y9093641D01*
X7912541Y9074520D01*
X7935959Y9060999D01*
X7962079Y9054000D01*
X7989121D01*
X8015241Y9060999D01*
X8038659Y9074520D01*
X8057780Y9093641D01*
X8071301Y9117059D01*
X8078300Y9143179D01*
Y9167838D01*
X8358018Y9447556D01*
X8699500D01*
X8724276Y9452484D01*
X8745281Y9466519D01*
X8918512Y9639750D01*
X8927045D01*
X8949540Y9645778D01*
X8969710Y9657422D01*
X8986178Y9673890D01*
X8997822Y9694060D01*
X9003850Y9716555D01*
Y9739845D01*
X8997822Y9762340D01*
X8986178Y9782510D01*
X8969710Y9798978D01*
X8949540Y9810622D01*
X8927045Y9816650D01*
D02*
G37*
G36*
X13829100Y10128250D02*
X13653700D01*
Y10078000D01*
X13653700Y10076900D01*
Y10065300D01*
X13653700Y10064200D01*
Y9951000D01*
X13653700Y9949900D01*
Y9938300D01*
X13653700Y9937200D01*
Y9824000D01*
X13653700Y9822900D01*
Y9811300D01*
X13653700Y9810200D01*
Y9697000D01*
X13653700Y9695900D01*
Y9684300D01*
X13653700Y9683200D01*
Y9570000D01*
X13653700Y9568900D01*
Y9557300D01*
X13653700Y9556200D01*
Y9443000D01*
X13653700Y9441900D01*
Y9430300D01*
X13653700Y9429200D01*
Y9316000D01*
X13653700Y9314900D01*
Y9303300D01*
X13653700Y9302200D01*
Y9189000D01*
X13653700Y9187900D01*
Y9176300D01*
X13653700Y9175200D01*
Y9062000D01*
X13653700Y9060900D01*
Y9049300D01*
X13653700Y9048200D01*
Y8933900D01*
X13829100D01*
Y9048200D01*
X13829100Y9049300D01*
Y9060900D01*
X13829100Y9062000D01*
Y9175200D01*
X13829100Y9176300D01*
Y9187900D01*
X13829100Y9189000D01*
Y9302200D01*
X13829100Y9303300D01*
Y9314900D01*
X13829100Y9316000D01*
Y9429200D01*
X13829100Y9430300D01*
Y9441900D01*
X13829100Y9443000D01*
Y9556200D01*
X13829100Y9557300D01*
Y9568900D01*
X13829100Y9570000D01*
Y9683200D01*
X13829100Y9684300D01*
Y9695900D01*
X13829100Y9697000D01*
Y9810200D01*
X13829100Y9811300D01*
Y9822900D01*
X13829100Y9824000D01*
Y9937200D01*
X13829100Y9938300D01*
Y9949900D01*
X13829100Y9951000D01*
Y10064200D01*
X13829100Y10065300D01*
Y10076900D01*
X13829100Y10078000D01*
Y10128250D01*
D02*
G37*
G36*
X13039400Y8864100D02*
X12973050D01*
Y8829250D01*
X13039400D01*
Y8864100D01*
D02*
G37*
G36*
X12960350D02*
X12894000D01*
Y8829250D01*
X12960350D01*
Y8864100D01*
D02*
G37*
G36*
X13039400Y8816550D02*
X12973050D01*
Y8781700D01*
X13039400D01*
Y8816550D01*
D02*
G37*
G36*
X12960350D02*
X12894000D01*
Y8781700D01*
X12960350D01*
Y8816550D01*
D02*
G37*
G36*
X13039400Y9049100D02*
X12894000D01*
Y8966700D01*
X13039400D01*
Y8979413D01*
X13078300D01*
X13154112Y8903600D01*
Y8830300D01*
X13098900D01*
Y8704900D01*
X13266299D01*
Y8830300D01*
X13211087D01*
Y8915400D01*
X13208919Y8926302D01*
X13202744Y8935544D01*
X13202744Y8935544D01*
X13110245Y9028044D01*
X13101003Y9034219D01*
X13090100Y9036388D01*
X13090099Y9036387D01*
X13039400D01*
Y9049100D01*
D02*
G37*
G36*
X15523750Y8775800D02*
Y8694451D01*
X15575101D01*
Y8775800D01*
X15523750D01*
D02*
G37*
G36*
X15575101Y8681751D02*
X15523750D01*
Y8600400D01*
X15575101D01*
Y8681751D01*
D02*
G37*
G36*
X12413300Y8794000D02*
X12247900D01*
Y8558600D01*
X12413300D01*
Y8794000D01*
D02*
G37*
G36*
X9135100Y8478400D02*
X9078750D01*
Y8401050D01*
X9135100D01*
Y8478400D01*
D02*
G37*
G36*
X9066050D02*
X9009700D01*
Y8401050D01*
X9066050D01*
Y8478400D01*
D02*
G37*
G36*
X9156700Y8575588D02*
X9156699Y8575587D01*
X8928100D01*
X8917198Y8573419D01*
X8907956Y8567244D01*
X8907956Y8567243D01*
X8865256Y8524544D01*
X8859081Y8515302D01*
X8856912Y8504400D01*
X8856913Y8504399D01*
Y8478400D01*
X8822700D01*
Y8423187D01*
X8775701D01*
X8775700Y8423188D01*
X8764798Y8421019D01*
X8755556Y8414844D01*
X8755556Y8414843D01*
X8625712Y8285000D01*
X8614806D01*
X8599113Y8278499D01*
X8587101Y8266487D01*
X8580600Y8250794D01*
Y8233806D01*
X8587101Y8218113D01*
X8599113Y8206101D01*
X8614806Y8199600D01*
X8631794D01*
X8647487Y8206101D01*
X8659499Y8218113D01*
X8666000Y8233806D01*
Y8244712D01*
X8787500Y8366213D01*
X8822700D01*
Y8311000D01*
X8948100D01*
Y8478400D01*
X8913887D01*
Y8492600D01*
X8939900Y8518613D01*
X9144900D01*
X9255456Y8408057D01*
X9255456Y8408056D01*
X9264698Y8401881D01*
X9275600Y8399712D01*
X9275601Y8399713D01*
X9301600D01*
Y8365500D01*
X9469000D01*
Y8490900D01*
X9301600D01*
Y8456687D01*
X9287400D01*
X9176844Y8567244D01*
X9167602Y8573419D01*
X9156700Y8575588D01*
D02*
G37*
G36*
X8011300Y8411200D02*
X7854950D01*
Y8324850D01*
X8011300D01*
Y8411200D01*
D02*
G37*
G36*
X7842250D02*
X7685900D01*
Y8324850D01*
X7842250D01*
Y8411200D01*
D02*
G37*
G36*
X9135100Y8388350D02*
X9078750D01*
Y8311000D01*
X9135100D01*
Y8388350D01*
D02*
G37*
G36*
X9066050D02*
X9009700D01*
Y8311000D01*
X9066050D01*
Y8388350D01*
D02*
G37*
G36*
X8011300Y8312150D02*
X7854950D01*
Y8225800D01*
X8011300D01*
Y8312150D01*
D02*
G37*
G36*
X7842250D02*
X7685900D01*
Y8225800D01*
X7842250D01*
Y8312150D01*
D02*
G37*
G36*
X16113901Y8252700D02*
X15957550D01*
Y8166350D01*
X16113901D01*
Y8252700D01*
D02*
G37*
G36*
X15944850D02*
X15788499D01*
Y8166350D01*
X15944850D01*
Y8252700D01*
D02*
G37*
G36*
X13648294Y8424700D02*
X13631306D01*
X13615613Y8418199D01*
X13603601Y8406187D01*
X13597099Y8390494D01*
Y8373506D01*
X13603601Y8357813D01*
X13615613Y8345801D01*
X13631306Y8339300D01*
X13648294D01*
X13663988Y8345801D01*
X13671700Y8353513D01*
X13712132D01*
X13715295Y8346344D01*
X13716026Y8340813D01*
X13705202Y8329987D01*
X13698700Y8314294D01*
Y8297306D01*
X13705202Y8281613D01*
X13717213Y8269601D01*
X13732906Y8263100D01*
X13749895D01*
X13765587Y8269601D01*
X13773299Y8277313D01*
X13813800D01*
Y8133200D01*
X13939200D01*
Y8300600D01*
X13895396D01*
X13894719Y8304002D01*
X13888544Y8313244D01*
X13888544Y8313244D01*
X13875844Y8325944D01*
X13866602Y8332119D01*
X13855701Y8334288D01*
X13855699Y8334287D01*
X13776555D01*
X13770570Y8340853D01*
X13775641Y8353513D01*
X14009000D01*
X14035013Y8327500D01*
Y8300600D01*
X14000800D01*
Y8133200D01*
X14126199D01*
Y8300600D01*
X14091988D01*
Y8339300D01*
X14089819Y8350202D01*
X14083644Y8359444D01*
X14083643Y8359444D01*
X14040944Y8402144D01*
X14031702Y8408319D01*
X14020799Y8410488D01*
X14020799Y8410487D01*
X13671700D01*
X13663988Y8418199D01*
X13648294Y8424700D01*
D02*
G37*
G36*
X16113901Y8153650D02*
X15957550D01*
Y8067300D01*
X16113901D01*
Y8153650D01*
D02*
G37*
G36*
X15944850D02*
X15788499D01*
Y8067300D01*
X15944850D01*
Y8153650D01*
D02*
G37*
G36*
X8682594Y8018300D02*
X8665606D01*
X8649913Y8011799D01*
X8637901Y7999787D01*
X8631400Y7984094D01*
Y7967106D01*
X8637901Y7951413D01*
X8649913Y7939401D01*
X8665606Y7932900D01*
X8676512D01*
X8698656Y7910756D01*
X8707898Y7904581D01*
X8718800Y7902412D01*
X8718801Y7902413D01*
X8821915D01*
X8825960Y7896360D01*
X8835039Y7890293D01*
X8845750Y7888163D01*
X8937250D01*
X8947961Y7890293D01*
X8957041Y7896360D01*
X8963108Y7905440D01*
X8965238Y7916150D01*
Y7945650D01*
X8963108Y7956361D01*
X8957041Y7965440D01*
X8947961Y7971507D01*
X8937250Y7973638D01*
X8845750D01*
X8835039Y7971507D01*
X8825960Y7965440D01*
X8821915Y7959387D01*
X8730600D01*
X8716800Y7973188D01*
Y7984094D01*
X8710299Y7999787D01*
X8698287Y8011799D01*
X8682594Y8018300D01*
D02*
G37*
G36*
X14672301Y8008500D02*
X14546899D01*
Y7841100D01*
X14576514D01*
Y7796900D01*
X14440800Y7661187D01*
X14253600D01*
Y7666400D01*
X14164200D01*
Y7599000D01*
X14253600D01*
Y7604213D01*
X14452599D01*
X14452600Y7604212D01*
X14463503Y7606381D01*
X14472745Y7612556D01*
X14625143Y7764956D01*
X14625143Y7764956D01*
X14631319Y7774198D01*
X14633488Y7785100D01*
X14633487Y7785101D01*
Y7841100D01*
X14672301D01*
Y7896313D01*
X14750311D01*
X14765500Y7881124D01*
Y7878206D01*
X14772002Y7862513D01*
X14784013Y7850501D01*
X14799706Y7844000D01*
X14816695D01*
X14832387Y7850501D01*
X14844398Y7862513D01*
X14850900Y7878206D01*
Y7895194D01*
X14844398Y7910887D01*
X14832387Y7922899D01*
X14816695Y7929400D01*
X14799706D01*
X14798358Y7928841D01*
X14782256Y7944944D01*
X14773013Y7951119D01*
X14762112Y7953288D01*
X14762111Y7953287D01*
X14672301D01*
Y8008500D01*
D02*
G37*
G36*
X10664871Y7883200D02*
X10661650D01*
Y7816850D01*
X10728000D01*
Y7820071D01*
X10723046Y7838561D01*
X10713474Y7855139D01*
X10699939Y7868674D01*
X10683361Y7878246D01*
X10664871Y7883200D01*
D02*
G37*
G36*
X10648950D02*
X10645729D01*
X10627239Y7878246D01*
X10610661Y7868674D01*
X10597126Y7855139D01*
X10587554Y7838561D01*
X10582600Y7820071D01*
Y7816850D01*
X10648950D01*
Y7883200D01*
D02*
G37*
G36*
X8937250Y7783637D02*
X8897850D01*
Y7747250D01*
X8965238D01*
Y7755650D01*
X8963108Y7766360D01*
X8957041Y7775440D01*
X8947961Y7781507D01*
X8937250Y7783637D01*
D02*
G37*
G36*
X8885150D02*
X8845750D01*
X8835039Y7781507D01*
X8825960Y7775440D01*
X8819893Y7766360D01*
X8817762Y7755650D01*
Y7747250D01*
X8885150D01*
Y7783637D01*
D02*
G37*
G36*
X12208500Y7868800D02*
X12083100D01*
Y7701400D01*
X12208500D01*
Y7756613D01*
X12617301D01*
X12625013Y7748901D01*
X12640706Y7742400D01*
X12657694D01*
X12673387Y7748901D01*
X12685399Y7760913D01*
X12691900Y7776606D01*
Y7793594D01*
X12685399Y7809287D01*
X12673387Y7821299D01*
X12657694Y7827800D01*
X12640706D01*
X12625013Y7821299D01*
X12617301Y7813587D01*
X12208500D01*
Y7868800D01*
D02*
G37*
G36*
X10728000Y7804150D02*
X10661650D01*
Y7737800D01*
X10664871D01*
X10683361Y7742754D01*
X10699939Y7752326D01*
X10713474Y7765861D01*
X10723046Y7782439D01*
X10728000Y7800929D01*
Y7804150D01*
D02*
G37*
G36*
X10648950D02*
X10582600D01*
Y7800929D01*
X10587554Y7782439D01*
X10597126Y7765861D01*
X10610661Y7752326D01*
X10627239Y7742754D01*
X10645729Y7737800D01*
X10648950D01*
Y7804150D01*
D02*
G37*
G36*
X16013901Y7782700D02*
X15732550D01*
Y7726350D01*
X16013901D01*
Y7782700D01*
D02*
G37*
G36*
X15719850D02*
X15438499D01*
Y7726350D01*
X15719850D01*
Y7782700D01*
D02*
G37*
G36*
X8965238Y7734550D02*
X8897850D01*
Y7698162D01*
X8937250D01*
X8947961Y7700293D01*
X8957041Y7706360D01*
X8963108Y7715439D01*
X8965238Y7726150D01*
Y7734550D01*
D02*
G37*
G36*
X8885150D02*
X8817762D01*
Y7726150D01*
X8819893Y7715439D01*
X8825960Y7706360D01*
X8835039Y7700293D01*
X8845750Y7698162D01*
X8885150D01*
Y7734550D01*
D02*
G37*
G36*
X16013901Y7713650D02*
X15732550D01*
Y7657300D01*
X16013901D01*
Y7713650D01*
D02*
G37*
G36*
X15719850D02*
X15438499D01*
Y7657300D01*
X15719850D01*
Y7713650D01*
D02*
G37*
G36*
X7842250Y7731200D02*
X7685900D01*
Y7644850D01*
X7842250D01*
Y7731200D01*
D02*
G37*
G36*
X14103600Y7666400D02*
X14065250D01*
Y7639050D01*
X14103600D01*
Y7666400D01*
D02*
G37*
G36*
X13950000D02*
X13911650D01*
Y7639050D01*
X13950000D01*
Y7666400D01*
D02*
G37*
G36*
X13898950D02*
X13860600D01*
Y7639050D01*
X13898950D01*
Y7666400D01*
D02*
G37*
G36*
X14052550D02*
X14014200D01*
Y7639050D01*
X14052550D01*
Y7666400D01*
D02*
G37*
G36*
X14103600Y7626350D02*
X14065250D01*
Y7599000D01*
X14103600D01*
Y7626350D01*
D02*
G37*
G36*
X14052550D02*
X14014200D01*
Y7599000D01*
X14052550D01*
Y7626350D01*
D02*
G37*
G36*
X13950000D02*
X13911650D01*
Y7599000D01*
X13950000D01*
Y7626350D01*
D02*
G37*
G36*
X13898950D02*
X13860600D01*
Y7599000D01*
X13898950D01*
Y7626350D01*
D02*
G37*
G36*
X7842250Y7632150D02*
X7685900D01*
Y7545800D01*
X7842250D01*
Y7632150D01*
D02*
G37*
G36*
X9321800Y7356388D02*
X9321799Y7356387D01*
X9004101D01*
X9004100Y7356388D01*
X8993198Y7354219D01*
X8983956Y7348044D01*
X8983956Y7348043D01*
X8920513Y7284600D01*
X8835400D01*
Y7229387D01*
X8813801D01*
X8813800Y7229388D01*
X8802898Y7227219D01*
X8793656Y7221044D01*
X8793656Y7221043D01*
X8704756Y7132144D01*
X8698581Y7122902D01*
X8696412Y7112000D01*
X8696413Y7111999D01*
Y6821902D01*
X8696412Y6821900D01*
X8698581Y6810999D01*
X8704756Y6801757D01*
X8792362Y6714151D01*
Y6696950D01*
X8794493Y6686240D01*
X8800560Y6677160D01*
X8809639Y6671093D01*
X8820350Y6668963D01*
X8911850D01*
X8922561Y6671093D01*
X8931641Y6677160D01*
X8937708Y6686240D01*
X8939838Y6696950D01*
Y6726450D01*
X8937708Y6737161D01*
X8931641Y6746240D01*
X8922561Y6752307D01*
X8911850Y6754438D01*
X8832650D01*
X8753387Y6833700D01*
Y7100200D01*
X8822700Y7169513D01*
X8835400Y7165412D01*
Y7117200D01*
X8960800D01*
Y7244312D01*
X9015900Y7299413D01*
X9305352D01*
X9310004Y7293600D01*
X9303902Y7280900D01*
X9276200D01*
Y7155500D01*
X9443600D01*
Y7280900D01*
X9375687D01*
Y7302500D01*
X9373519Y7313402D01*
X9367344Y7322644D01*
X9367343Y7322644D01*
X9341944Y7348044D01*
X9332702Y7354219D01*
X9321800Y7356388D01*
D02*
G37*
G36*
X9147800Y7284600D02*
X9091450D01*
Y7207250D01*
X9147800D01*
Y7284600D01*
D02*
G37*
G36*
X9078750D02*
X9022400D01*
Y7207250D01*
X9078750D01*
Y7284600D01*
D02*
G37*
G36*
X7998600Y7249700D02*
X7842250D01*
Y7163350D01*
X7998600D01*
Y7249700D01*
D02*
G37*
G36*
X12016200Y7425100D02*
X11934850D01*
Y7143751D01*
X12016200D01*
Y7425100D01*
D02*
G37*
G36*
X11922150D02*
X11840800D01*
Y7143751D01*
X11922150D01*
Y7425100D01*
D02*
G37*
G36*
X9147800Y7194550D02*
X9091450D01*
Y7117200D01*
X9147800D01*
Y7194550D01*
D02*
G37*
G36*
X9078750D02*
X9022400D01*
Y7117200D01*
X9078750D01*
Y7194550D01*
D02*
G37*
G36*
X16113901Y7172700D02*
X15957550D01*
Y7086350D01*
X16113901D01*
Y7172700D01*
D02*
G37*
G36*
X15944850D02*
X15788499D01*
Y7086350D01*
X15944850D01*
Y7172700D01*
D02*
G37*
G36*
X7998600Y7150650D02*
X7842250D01*
Y7064300D01*
X7998600D01*
Y7150650D01*
D02*
G37*
G36*
X7829550D02*
X7673200D01*
Y7064300D01*
X7829550D01*
Y7150650D01*
D02*
G37*
G36*
X16113901Y7073650D02*
X15957550D01*
Y6987300D01*
X16113901D01*
Y7073650D01*
D02*
G37*
G36*
X15944850D02*
X15788499D01*
Y6987300D01*
X15944850D01*
Y7073650D01*
D02*
G37*
G36*
X13927695Y7065800D02*
X13910706D01*
X13895013Y7059299D01*
X13883002Y7047287D01*
X13876500Y7031594D01*
Y7028676D01*
X13859552Y7011727D01*
X13857498Y7011319D01*
X13848256Y7005144D01*
X13848256Y7005143D01*
X13759357Y6916244D01*
X13753181Y6907002D01*
X13751012Y6896100D01*
X13751013Y6896099D01*
Y6745725D01*
X13742754Y6743512D01*
X13721046Y6730979D01*
X13703320Y6713254D01*
X13690788Y6691546D01*
X13684300Y6667333D01*
Y6642267D01*
X13690788Y6618054D01*
X13703320Y6596346D01*
X13721046Y6578621D01*
X13742754Y6566088D01*
X13766966Y6559600D01*
X13792033D01*
X13816246Y6566088D01*
X13837955Y6578621D01*
X13855679Y6596346D01*
X13868211Y6618054D01*
X13874699Y6642267D01*
Y6667333D01*
X13868211Y6691546D01*
X13855679Y6713254D01*
X13837955Y6730979D01*
X13816246Y6743512D01*
X13807986Y6745725D01*
Y6884300D01*
X13881960Y6958272D01*
X13884013Y6958681D01*
X13893256Y6964856D01*
X13909358Y6980959D01*
X13910706Y6980400D01*
X13927695D01*
X13943387Y6986901D01*
X13955399Y6998913D01*
X13961900Y7014606D01*
Y7031594D01*
X13955399Y7047287D01*
X13943387Y7059299D01*
X13927695Y7065800D01*
D02*
G37*
G36*
X11781200Y7075100D02*
X11694850D01*
Y6918750D01*
X11781200D01*
Y7075100D01*
D02*
G37*
G36*
X11682150D02*
X11595800D01*
Y6918750D01*
X11682150D01*
Y7075100D01*
D02*
G37*
G36*
X12461200D02*
X12374850D01*
Y6918749D01*
X12461200D01*
Y7075100D01*
D02*
G37*
G36*
X12362150D02*
X12275800D01*
Y6918749D01*
X12362150D01*
Y7075100D01*
D02*
G37*
G36*
X12021500Y7868800D02*
X11896100D01*
Y7701400D01*
X11930313D01*
Y7650001D01*
X11930312Y7650000D01*
X11932481Y7639098D01*
X11938656Y7629856D01*
X12006756Y7561757D01*
X12006756Y7561756D01*
X12015998Y7555581D01*
X12026900Y7553412D01*
X12026901Y7553413D01*
X12091300D01*
X12100013Y7544700D01*
Y7425100D01*
X12040800D01*
Y6849700D01*
X12216200D01*
Y7425100D01*
X12156987D01*
Y7556500D01*
X12154819Y7567402D01*
X12148644Y7576644D01*
X12148643Y7576644D01*
X12123244Y7602044D01*
X12114002Y7608219D01*
X12103100Y7610388D01*
X12103099Y7610387D01*
X12038700D01*
X11987287Y7661800D01*
Y7701400D01*
X12021500D01*
Y7868800D01*
D02*
G37*
G36*
X12016200Y7131051D02*
X11934850D01*
Y6849700D01*
X12016200D01*
Y7131051D01*
D02*
G37*
G36*
X11922150D02*
X11840800D01*
Y6849700D01*
X11922150D01*
Y7131051D01*
D02*
G37*
G36*
X9443600Y7093900D02*
X9276200D01*
Y6968500D01*
X9331413D01*
Y6908801D01*
X9331412Y6908800D01*
X9333581Y6897898D01*
X9339756Y6888656D01*
X9368000Y6860413D01*
Y6849506D01*
X9374501Y6833813D01*
X9386513Y6821801D01*
X9402206Y6815300D01*
X9419194D01*
X9434887Y6821801D01*
X9446899Y6833813D01*
X9453400Y6849506D01*
Y6866494D01*
X9446899Y6882187D01*
X9434887Y6894199D01*
X9419194Y6900700D01*
X9408287D01*
X9388387Y6920600D01*
Y6968500D01*
X9443600D01*
Y7093900D01*
D02*
G37*
G36*
X12461200Y6906049D02*
X12374850D01*
Y6749700D01*
X12461200D01*
Y6906049D01*
D02*
G37*
G36*
X12362150D02*
X12275800D01*
Y6749700D01*
X12362150D01*
Y6906049D01*
D02*
G37*
G36*
X11781200Y6906050D02*
X11694850D01*
Y6749700D01*
X11781200D01*
Y6906050D01*
D02*
G37*
G36*
X11682150D02*
X11595800D01*
Y6749700D01*
X11682150D01*
Y6906050D01*
D02*
G37*
G36*
X14300034Y6750000D02*
X14293851D01*
Y6661150D01*
X14382700D01*
Y6667333D01*
X14376212Y6691546D01*
X14363680Y6713254D01*
X14345953Y6730979D01*
X14324246Y6743512D01*
X14300034Y6750000D01*
D02*
G37*
G36*
X14281149D02*
X14274966D01*
X14250754Y6743512D01*
X14229047Y6730979D01*
X14211320Y6713254D01*
X14198788Y6691546D01*
X14192300Y6667333D01*
Y6661150D01*
X14281149D01*
Y6750000D01*
D02*
G37*
G36*
X14382700Y6648450D02*
X14293851D01*
Y6559600D01*
X14300034D01*
X14324246Y6566088D01*
X14345953Y6578621D01*
X14363680Y6596346D01*
X14376212Y6618054D01*
X14382700Y6642267D01*
Y6648450D01*
D02*
G37*
G36*
X14281149D02*
X14192300D01*
Y6642267D01*
X14198788Y6618054D01*
X14211320Y6596346D01*
X14229047Y6578621D01*
X14250754Y6566088D01*
X14274966Y6559600D01*
X14281149D01*
Y6648450D01*
D02*
G37*
G36*
X14168994Y7053100D02*
X14152007D01*
X14136313Y7046599D01*
X14124301Y7034587D01*
X14117799Y7018894D01*
Y7001906D01*
X14119739Y6997226D01*
X14013356Y6890844D01*
X14007181Y6881602D01*
X14005013Y6870700D01*
X14005013Y6870699D01*
Y6745725D01*
X13996754Y6743512D01*
X13975046Y6730979D01*
X13957321Y6713254D01*
X13944788Y6691546D01*
X13938300Y6667333D01*
Y6642267D01*
X13944788Y6618054D01*
X13957321Y6596346D01*
X13975046Y6578621D01*
X13996754Y6566088D01*
X14020967Y6559600D01*
X14046033D01*
X14070245Y6566088D01*
X14091954Y6578621D01*
X14109679Y6596346D01*
X14122212Y6618054D01*
X14128700Y6642267D01*
Y6667333D01*
X14122212Y6691546D01*
X14109679Y6713254D01*
X14091954Y6730979D01*
X14070245Y6743512D01*
X14061987Y6745725D01*
Y6858900D01*
X14167943Y6964856D01*
X14167944Y6964856D01*
X14170169Y6968187D01*
X14184686Y6974201D01*
X14196700Y6986213D01*
X14203200Y7001906D01*
Y7018894D01*
X14196700Y7034587D01*
X14184686Y7046599D01*
X14168994Y7053100D01*
D02*
G37*
G36*
X13538033Y6750000D02*
X13512967D01*
X13488754Y6743512D01*
X13467046Y6730979D01*
X13449321Y6713254D01*
X13436787Y6691546D01*
X13430299Y6667333D01*
Y6642267D01*
X13436787Y6618054D01*
X13449321Y6596346D01*
X13467046Y6578621D01*
X13488754Y6566088D01*
X13512967Y6559600D01*
X13538033D01*
X13562247Y6566088D01*
X13583954Y6578621D01*
X13601678Y6596346D01*
X13614212Y6618054D01*
X13620700Y6642267D01*
Y6667333D01*
X13614212Y6691546D01*
X13601678Y6713254D01*
X13583954Y6730979D01*
X13562247Y6743512D01*
X13538033Y6750000D01*
D02*
G37*
G36*
X8911850Y6564437D02*
X8872450D01*
Y6528050D01*
X8939838D01*
Y6536450D01*
X8937708Y6547160D01*
X8931641Y6556240D01*
X8922561Y6562307D01*
X8911850Y6564437D01*
D02*
G37*
G36*
X8859750D02*
X8820350D01*
X8809639Y6562307D01*
X8800560Y6556240D01*
X8794493Y6547160D01*
X8792362Y6536450D01*
Y6528050D01*
X8859750D01*
Y6564437D01*
D02*
G37*
G36*
X7998600Y6569700D02*
X7842250D01*
Y6483350D01*
X7998600D01*
Y6569700D01*
D02*
G37*
G36*
X7829550D02*
X7673200D01*
Y6483350D01*
X7829550D01*
Y6569700D01*
D02*
G37*
G36*
X8939838Y6515350D02*
X8872450D01*
Y6478962D01*
X8911850D01*
X8922561Y6481093D01*
X8931641Y6487160D01*
X8937708Y6496239D01*
X8939838Y6506950D01*
Y6515350D01*
D02*
G37*
G36*
X8859750D02*
X8792362D01*
Y6506950D01*
X8794493Y6496239D01*
X8800560Y6487160D01*
X8809639Y6481093D01*
X8820350Y6478962D01*
X8859750D01*
Y6515350D01*
D02*
G37*
G36*
X7998600Y6470650D02*
X7842250D01*
Y6384300D01*
X7998600D01*
Y6470650D01*
D02*
G37*
G36*
X7829550D02*
X7673200D01*
Y6384300D01*
X7829550D01*
Y6470650D01*
D02*
G37*
G36*
X15921187Y6598700D02*
X15884213D01*
X15847951Y6591487D01*
X15813791Y6577337D01*
X15783047Y6556796D01*
X15756905Y6530652D01*
X15736362Y6499909D01*
X15722214Y6465750D01*
X15714999Y6429487D01*
Y6392513D01*
X15722214Y6356250D01*
X15736362Y6322090D01*
X15756905Y6291348D01*
X15783047Y6265204D01*
X15813791Y6244662D01*
X15847951Y6230513D01*
X15884213Y6223300D01*
X15921187D01*
X15957449Y6230513D01*
X15991609Y6244662D01*
X16022353Y6265204D01*
X16048495Y6291348D01*
X16069037Y6322090D01*
X16083186Y6356250D01*
X16090401Y6392513D01*
Y6429487D01*
X16083186Y6465750D01*
X16069037Y6499909D01*
X16048495Y6530652D01*
X16022353Y6556796D01*
X15991609Y6577337D01*
X15957449Y6591487D01*
X15921187Y6598700D01*
D02*
G37*
G36*
X10921187D02*
X10884213D01*
X10847950Y6591487D01*
X10813791Y6577337D01*
X10783048Y6556796D01*
X10756904Y6530652D01*
X10736363Y6499909D01*
X10722213Y6465750D01*
X10715000Y6429487D01*
Y6392513D01*
X10722213Y6356250D01*
X10736363Y6322090D01*
X10756904Y6291348D01*
X10783048Y6265204D01*
X10813791Y6244662D01*
X10847950Y6230513D01*
X10884213Y6223300D01*
X10921187D01*
X10957450Y6230513D01*
X10991609Y6244662D01*
X11022352Y6265204D01*
X11048496Y6291348D01*
X11069038Y6322090D01*
X11083187Y6356250D01*
X11090400Y6392513D01*
Y6429487D01*
X11083187Y6465750D01*
X11069038Y6499909D01*
X11048496Y6530652D01*
X11022352Y6556796D01*
X10991609Y6577337D01*
X10957450Y6591487D01*
X10921187Y6598700D01*
D02*
G37*
%LPD*%
D10*
X7848600Y8318500D02*
D03*
Y7638500D02*
D03*
X7835900Y7157000D02*
D03*
Y6477000D02*
D03*
X15951199Y7080000D02*
D03*
Y8160000D02*
D03*
D11*
X8073600Y8078500D02*
D03*
Y7878500D02*
D03*
X8060900Y6917000D02*
D03*
Y6717000D02*
D03*
D12*
X10858500Y10052000D02*
D03*
Y9760000D02*
D03*
D13*
X9740900Y6500600D02*
D03*
Y6910600D02*
D03*
X9728200Y8294900D02*
D03*
Y7884900D02*
D03*
D14*
X12966701Y9007900D02*
D03*
Y8822900D02*
D03*
X13017500Y11179600D02*
D03*
Y10994600D02*
D03*
D15*
X14208900Y7632700D02*
D03*
X14058900D02*
D03*
X13755299D02*
D03*
X13905299D02*
D03*
D16*
X12598400Y10593000D02*
D03*
Y10743000D02*
D03*
X12573000Y9056300D02*
D03*
Y9206300D02*
D03*
D17*
X14516100Y10769700D02*
D03*
Y10947300D02*
D03*
D18*
X13887199Y11315700D02*
D03*
X13697200D02*
D03*
D19*
X15390401Y10438100D02*
D03*
X15263400D02*
D03*
X15136400D02*
D03*
X15009399D02*
D03*
X14882401D02*
D03*
X14755400D02*
D03*
X14628400D02*
D03*
X14501401D02*
D03*
X14374400D02*
D03*
X14247400D02*
D03*
X14120399D02*
D03*
X13993401D02*
D03*
X13866400D02*
D03*
Y8688100D02*
D03*
X13993401D02*
D03*
X14120399D02*
D03*
X14247400D02*
D03*
X14374400D02*
D03*
X14501401D02*
D03*
X14628400D02*
D03*
X14755400D02*
D03*
X14882401D02*
D03*
X15009399D02*
D03*
X15136400D02*
D03*
X15263400D02*
D03*
X15390401D02*
D03*
X15517400D02*
D03*
Y10438100D02*
D03*
D20*
X13741400Y10007600D02*
D03*
Y9880600D02*
D03*
Y9753600D02*
D03*
Y9626600D02*
D03*
Y9499600D02*
D03*
Y9372600D02*
D03*
Y9245600D02*
D03*
Y9118600D02*
D03*
Y8991600D02*
D03*
Y10134600D02*
D03*
D21*
X14745399Y9713100D02*
D03*
X14885400D02*
D03*
Y9573100D02*
D03*
X14745399D02*
D03*
X14605400D02*
D03*
Y9713100D02*
D03*
Y9853100D02*
D03*
X14745399D02*
D03*
X14885400D02*
D03*
D22*
X10577000Y10033000D02*
D03*
D23*
X9997000Y9803000D02*
D03*
Y10033000D02*
D03*
Y10263000D02*
D03*
D24*
X11876700Y11112500D02*
D03*
X12331700Y10202500D02*
D03*
X11876700D02*
D03*
X12331700Y11112500D02*
D03*
X11875600Y8676300D02*
D03*
X12330600Y9586300D02*
D03*
Y8676300D02*
D03*
X11875600Y9586300D02*
D03*
D25*
X9359900Y7218200D02*
D03*
Y7031200D02*
D03*
X13182600Y8767600D02*
D03*
Y8580600D02*
D03*
X13233400Y10952000D02*
D03*
Y10765000D02*
D03*
X11087100Y9872500D02*
D03*
Y9685500D02*
D03*
X14808200Y10765000D02*
D03*
Y10952000D02*
D03*
X9385300Y8428200D02*
D03*
Y8615200D02*
D03*
D26*
X14079700Y11315700D02*
D03*
X14266701D02*
D03*
X14067000Y11557000D02*
D03*
X14253999D02*
D03*
X13873000D02*
D03*
X13686000D02*
D03*
X11958800Y7785100D02*
D03*
X12145800D02*
D03*
X10342400Y11214100D02*
D03*
X10155400D02*
D03*
X10371300Y9474200D02*
D03*
X10558300D02*
D03*
X14609599Y7924800D02*
D03*
X14422600D02*
D03*
X13568201D02*
D03*
X13381200D02*
D03*
X13876500Y8216900D02*
D03*
X14063499D02*
D03*
X8885400Y8394700D02*
D03*
X9072400D02*
D03*
X8898100Y7200900D02*
D03*
X9085100D02*
D03*
D27*
X15726199Y7920000D02*
D03*
Y7520000D02*
D03*
Y7320000D02*
D03*
Y7720000D02*
D03*
D28*
X15481300Y10788900D02*
D03*
Y10978900D02*
D03*
X9728200Y9582400D02*
D03*
Y9772400D02*
D03*
D29*
X9142500Y7835900D02*
D03*
X8891500Y7930900D02*
D03*
Y7740900D02*
D03*
X9117100Y6616700D02*
D03*
X8866100Y6711700D02*
D03*
Y6521700D02*
D03*
D30*
X15227299Y10781200D02*
D03*
Y10961200D02*
D03*
D31*
X12128500Y7137400D02*
D03*
X11928500D02*
D03*
D32*
X12368500Y6912400D02*
D03*
X11688500D02*
D03*
D33*
X9385300Y8615200D02*
Y8902700D01*
X9499600Y9017000D02*
X9634700D01*
X9385300Y8902700D02*
X9499600Y9017000D01*
X13873000Y11557000D02*
X14067000D01*
X14275887Y8304713D02*
Y8345000D01*
Y8304713D02*
X14422600Y8158000D01*
X14247400Y8373487D02*
Y8688100D01*
Y8373487D02*
X14275887Y8345000D01*
X15062199Y10668000D02*
X15214600D01*
X14947900Y10782300D02*
Y10934145D01*
Y10782300D02*
X15062199Y10668000D01*
X14422600Y7924800D02*
Y8158000D01*
X15214600Y10668000D02*
X15341600Y10541000D01*
X14371350Y8685050D02*
X14374400Y8688100D01*
X14368300Y8346312D02*
X14371350Y8349363D01*
Y8685050D01*
X13271500Y10223500D02*
X13849500Y10801499D01*
Y10906213D01*
X14271713D01*
X14427200Y11061700D01*
X13741400Y8305800D02*
X13855701D01*
X13868401Y8225000D02*
X13876500Y8216900D01*
X13868401Y8225000D02*
Y8293100D01*
X13855701Y8305800D02*
X13868401Y8293100D01*
X13576300Y8877300D02*
Y9055100D01*
X13208000Y9423400D02*
X13576300Y9055100D01*
X13208000Y9423400D02*
Y9994900D01*
X13271500Y10058400D01*
Y10223500D01*
X13233400Y10765000D02*
X13343100D01*
X13373100Y10795000D01*
Y10850512D01*
X13411200Y10888612D01*
Y10896600D01*
X14427200Y11061700D02*
X14677499D01*
X14787199Y10952000D01*
X14808200D01*
X12145800Y7785100D02*
X12649200D01*
X12128500Y7137400D02*
Y7556500D01*
X12103100Y7581900D02*
X12128500Y7556500D01*
X12026900Y7581900D02*
X12103100D01*
X11958800Y7650000D02*
X12026900Y7581900D01*
X11958800Y7650000D02*
Y7785100D01*
X13474699Y8572500D02*
Y9017000D01*
X13347701Y9144000D02*
X13474699Y9017000D01*
X12827000Y9144000D02*
X13347701D01*
X12739300Y9056300D02*
X12827000Y9144000D01*
X12573000Y9056300D02*
X12739300D01*
X14063499Y8216900D02*
Y8339300D01*
X14020799Y8382000D02*
X14063499Y8339300D01*
X13639799Y8382000D02*
X14020799D01*
X13474699Y8572500D02*
X13830299D01*
X13855701Y8597900D01*
Y8677400D01*
X13866400Y8688100D01*
X13993401Y8557800D02*
Y8688100D01*
X13906500Y8470900D02*
X13993401Y8557800D01*
X13313300Y8470900D02*
X13906500D01*
X13203600Y8580600D02*
X13313300Y8470900D01*
X13182600Y8580600D02*
X13203600D01*
X13381200Y7924800D02*
Y8059900D01*
X13411200Y8089900D01*
X14168045D01*
X14185899Y8107755D01*
Y8326370D01*
X14120399Y8391870D02*
X14185899Y8326370D01*
X14120399Y8391870D02*
Y8688100D01*
X14829201Y10952000D02*
X14930045D01*
X14947900Y10934145D01*
X15341600Y10516900D02*
Y10541000D01*
Y10516900D02*
X15390401Y10468100D01*
Y10438100D02*
Y10468100D01*
X13309599Y9791700D02*
X13385800Y9867900D01*
Y10096500D01*
X13322301Y9677400D02*
X13474699Y9829800D01*
Y10071100D01*
X15011400Y7416800D02*
X15151100Y7556500D01*
X15405479Y7520000D02*
X15726199D01*
X15368980Y7556500D02*
X15405479Y7520000D01*
X15367000Y7556500D02*
X15368980D01*
X13881100Y7416800D02*
X15011400D01*
X13755299Y7542600D02*
X13881100Y7416800D01*
X13755299Y7542600D02*
Y7632700D01*
X13474699Y10071100D02*
X13652499Y10248900D01*
X14198599D01*
X14120399Y10323100D02*
Y10438100D01*
X14097000Y10299700D02*
X14120399Y10323100D01*
X13589000Y10299700D02*
X14097000D01*
X13385800Y10096500D02*
X13589000Y10299700D01*
X14160699Y11442700D02*
X14253999Y11536000D01*
X14338300Y10655300D02*
X14808200D01*
X14253999Y11536000D02*
Y11557000D01*
X14109700Y11442700D02*
X14160699D01*
X14084300Y11163300D02*
Y11311100D01*
X14882401Y10438100D02*
Y10581100D01*
X14808200Y10655300D02*
X14882401Y10581100D01*
X14084300Y11417300D02*
X14109700Y11442700D01*
X14079700Y11315700D02*
X14084300Y11320300D01*
X14079700Y11315700D02*
X14084300Y11311100D01*
Y11320300D02*
Y11417300D01*
X13887199Y11315700D02*
X14079700D01*
X12573000Y8953500D02*
Y9056300D01*
X12496800Y8877300D02*
X12573000Y8953500D01*
X11912600Y8877300D02*
X12496800D01*
X11875600Y8840300D02*
X11912600Y8877300D01*
X11875600Y8676300D02*
Y8840300D01*
X14516100Y10769700D02*
X14803500D01*
X14808200Y10765000D02*
X14829201D01*
X14803500Y10769700D02*
X14808200Y10765000D01*
X14496248Y10749848D02*
X14516100Y10769700D01*
X14115347Y10749848D02*
X14496248D01*
X14109700Y10744200D02*
X14115347Y10749848D01*
X15214600Y10591800D02*
X15263400Y10543000D01*
Y10438100D02*
Y10543000D01*
X14829201Y10765000D02*
X15002400Y10591800D01*
X15214600D01*
X12711500Y10593000D02*
X12801601Y10502900D01*
X12598400Y10504359D02*
Y10593000D01*
X12711500D01*
X12546141Y10452100D02*
X12598400Y10504359D01*
X11925300Y10452100D02*
X12546141D01*
X11876700Y10202500D02*
Y10403500D01*
X11925300Y10452100D01*
X9275600Y8428200D02*
X9385300D01*
X9156700Y8547100D02*
X9275600Y8428200D01*
X8928100Y8547100D02*
X9156700D01*
X8885400Y8504400D02*
X8928100Y8547100D01*
X8885400Y8394700D02*
Y8504400D01*
X8775700Y8394700D02*
X8885400D01*
X8623300Y8242300D02*
X8775700Y8394700D01*
X8674100Y7975600D02*
X8718800Y7930900D01*
X8891500D01*
X14247400Y10297700D02*
Y10438100D01*
X14198599Y10248900D02*
X14247400Y10297700D01*
X9359900Y6908800D02*
X9410700Y6858000D01*
X9359900Y6908800D02*
Y7031200D01*
X14897099Y7543800D02*
X15136400Y7783100D01*
Y8688100D01*
X14770100Y7581900D02*
X15009399Y7821200D01*
Y8688100D01*
X14609599Y7924800D02*
X14762112D01*
X14800212Y7886700D02*
X14808200D01*
X14762112Y7924800D02*
X14800212Y7886700D01*
X15718300Y7327900D02*
X15726199Y7320000D01*
X15367000Y7327900D02*
X15718300D01*
X14605000Y7920200D02*
X14609599Y7924800D01*
X14605000Y7785100D02*
Y7920200D01*
X14452600Y7632700D02*
X14605000Y7785100D01*
X14208900Y7632700D02*
X14452600D01*
X13665199D02*
X13755299D01*
X13568201Y7729700D02*
X13665199Y7632700D01*
X13568201Y7729700D02*
Y7924800D01*
X13182600Y8767600D02*
Y8915400D01*
X13090100Y9007900D02*
X13182600Y8915400D01*
X12966701Y9007900D02*
X13090100D01*
X14160500Y7002412D02*
Y7010400D01*
X14147800Y6989712D02*
X14160500Y7002412D01*
X14147800Y6985000D02*
Y6989712D01*
X14033501Y6870700D02*
X14147800Y6985000D01*
X14033501Y6654800D02*
Y6870700D01*
X13911212Y7023100D02*
X13919200D01*
X13873112Y6985000D02*
X13911212Y7023100D01*
X13868401Y6985000D02*
X13873112D01*
X13779500Y6896100D02*
X13868401Y6985000D01*
X13779500Y6654800D02*
Y6896100D01*
X9347200Y7230900D02*
X9359900Y7218200D01*
X9347200Y7230900D02*
Y7302500D01*
X9321800Y7327900D02*
X9347200Y7302500D01*
X9004100Y7327900D02*
X9321800D01*
X8898100Y7221900D02*
X9004100Y7327900D01*
X8898100Y7200900D02*
Y7221900D01*
X8813800Y7200900D02*
X8898100D01*
X8724900Y7112000D02*
X8813800Y7200900D01*
X8724900Y6821900D02*
Y7112000D01*
Y6821900D02*
X8835100Y6711700D01*
X8866100D01*
D34*
X9728200Y8623300D02*
Y9582400D01*
X10083800Y8267700D02*
X12484100D01*
X9728200Y8623300D02*
X10083800Y8267700D01*
X13601083Y11785600D02*
X13686000Y11700684D01*
X9702800Y11785600D02*
X13601083D01*
X9734550Y6916950D02*
Y7878550D01*
X15312216Y7920000D02*
X15726199D01*
X15252699Y6985000D02*
Y7860484D01*
X14922501Y6654800D02*
X15252699Y6985000D01*
Y7860484D02*
X15312216Y7920000D01*
X14541499Y6654800D02*
X14922501D01*
X14541499D02*
Y6985000D01*
X14300200Y7226300D02*
X14541499Y6985000D01*
X13208000Y7226300D02*
X14300200D01*
X12941299Y7493000D02*
X13208000Y7226300D01*
X12941299Y7493000D02*
Y7810500D01*
X12484100Y8267700D02*
X12941299Y7810500D01*
X9474200Y11557000D02*
X9702800Y11785600D01*
X13686000Y11557000D02*
Y11700684D01*
X10155400Y11459044D02*
X10236200Y11539844D01*
X10155400Y11214100D02*
Y11459044D01*
X10236200Y11539844D02*
Y11557000D01*
X9734550Y6916950D02*
X9740900Y6910600D01*
X9728200Y7884900D02*
X9734550Y7878550D01*
X9728200Y9582400D02*
X9899900D01*
X9994900Y9677400D01*
Y9800900D01*
X9997000Y9803000D01*
X10050400D01*
X10236200Y9988800D01*
Y10845800D01*
X10342400Y10952000D01*
Y11214100D01*
X10140800Y7310500D02*
X10655300D01*
X9800100Y6969800D02*
X10140800Y7310500D01*
X9777600Y6969800D02*
X9800100D01*
X9740900Y6933100D02*
X9777600Y6969800D01*
X9740900Y6478100D02*
Y6500600D01*
X9510500Y7884900D02*
X9728200D01*
X9359900Y7734300D02*
X9510500Y7884900D01*
X9359900Y7616016D02*
Y7734300D01*
X9300384Y7556500D02*
X9359900Y7616016D01*
X8813800Y7556500D02*
X9300384D01*
X8491800Y7878500D02*
X8813800Y7556500D01*
X8073600Y7878500D02*
X8491800D01*
X8036700Y6741200D02*
X8060900Y6717000D01*
X7762200Y6741200D02*
X8036700D01*
X7569200Y6934200D02*
X7762200Y6741200D01*
X7569200Y6934200D02*
Y7210103D01*
X7762597Y7403500D01*
X7933403D01*
X8073600Y7543697D01*
Y7878500D01*
X8049400Y7902700D02*
X8073600Y7878500D01*
X7705600Y7902700D02*
X8049400D01*
X7607300Y8001000D02*
X7705600Y7902700D01*
X7607300Y8001000D02*
Y9296400D01*
X7975600Y9664700D01*
X9474200Y10172700D02*
Y11557000D01*
X9334500Y10033000D02*
X9474200Y10172700D01*
X8343900Y10033000D02*
X9334500D01*
X7975600Y9664700D02*
X8343900Y10033000D01*
X8699500Y9512300D02*
X8915400Y9728200D01*
X8331200Y9512300D02*
X8699500D01*
X7975600Y9156700D02*
X8331200Y9512300D01*
X8753300Y10233200D02*
X9035400D01*
X8597900Y10388600D02*
X8753300Y10233200D01*
X8597900Y10388600D02*
Y10964084D01*
X8538384Y11023600D02*
X8597900Y10964084D01*
X8229600Y11023600D02*
X8538384D01*
X7988300Y11264900D02*
X8229600Y11023600D01*
D35*
X15226627Y10781873D02*
X15227299Y10781200D01*
X15099397Y10781873D02*
X15226627D01*
X15062199Y10819071D02*
X15099397Y10781873D01*
X14859000Y11214100D02*
X15062199Y11010900D01*
Y10819071D02*
Y11010900D01*
X14211301Y11023600D02*
X14401801Y11214100D01*
X13741400Y11023600D02*
X14211301D01*
X14401801Y11214100D02*
X14859000D01*
X13030200Y9931400D02*
Y10261600D01*
X13462000Y10693400D01*
Y10744200D01*
X13741400Y11023600D01*
X12979401Y9880600D02*
X13030200Y9931400D01*
X15468600Y10776200D02*
X15481300Y10788900D01*
X15468600Y10655300D02*
Y10776200D01*
X15390401Y10577100D02*
X15468600Y10655300D01*
X15390401Y10438100D02*
Y10577100D01*
X15231149Y10785050D02*
X15477451D01*
X15481300Y10788900D01*
X15227299Y10781200D02*
X15231149Y10785050D01*
X11696700Y9880600D02*
X12979401D01*
X11290300Y9474200D02*
X11696700Y9880600D01*
X10558300Y9474200D02*
X11290300D01*
X13233400Y10952000D02*
Y11125200D01*
X13178999Y11179600D02*
X13233400Y11125200D01*
X13017500Y11179600D02*
X13178999D01*
X10353050Y9434950D02*
X10371300Y9453200D01*
X10289550Y9385300D02*
X10339200Y9434950D01*
X10071100Y9448800D02*
X10134600Y9385300D01*
X10289550D01*
X10371300Y9453200D02*
Y9474200D01*
X10339200Y9434950D02*
X10353050D01*
X10071100Y9448800D02*
Y9550400D01*
X10274300Y9753600D01*
X10539802D01*
X11087100Y9872500D02*
Y9994900D01*
X11030000Y10052000D02*
X11087100Y9994900D01*
X10858500Y10052000D02*
X11030000D01*
X10830250Y9788250D02*
X10852200Y9766300D01*
X10766750Y9788250D02*
X10830250D01*
X10577000Y9978000D02*
X10766750Y9788250D01*
X10577000Y9978000D02*
Y10033000D01*
Y9790798D02*
Y10033000D01*
X10539802Y9753600D02*
X10577000Y9790798D01*
X9448800Y9880600D02*
X9601200Y10033000D01*
X9997000D01*
X9095450Y6616700D02*
X9117100D01*
X9093200Y6614450D02*
X9095450Y6616700D01*
X9093200Y6464300D02*
Y6614450D01*
X9004300Y6375400D02*
X9093200Y6464300D01*
X8685898Y6375400D02*
X9004300D01*
X8648700Y6412598D02*
X8685898Y6375400D01*
X8648700Y6412598D02*
Y6705600D01*
X8437300Y6917000D02*
X8648700Y6705600D01*
X8060900Y6917000D02*
X8437300D01*
X9387100Y8294900D02*
X9728200D01*
X9296400Y8204200D02*
X9387100Y8294900D01*
X9296400Y7963300D02*
Y8204200D01*
X9169000Y7835900D02*
X9296400Y7963300D01*
X9142500Y7835900D02*
X9169000D01*
X9539500Y6500600D02*
X9740900D01*
X9423400Y6616700D02*
X9539500Y6500600D01*
X9117100Y6616700D02*
X9423400D01*
X9142500Y7835900D02*
X9144000Y7837400D01*
Y8001000D01*
X9066500Y8078500D02*
X9144000Y8001000D01*
X8073600Y8078500D02*
X9066500D01*
D36*
X10655300Y7310500D02*
D03*
D37*
Y7810500D02*
D03*
D38*
X7988300Y11264900D02*
D03*
Y10756900D02*
D03*
X7975600Y9156700D02*
D03*
Y9664700D02*
D03*
D39*
X9035400Y10233200D02*
D03*
X8915400Y9728200D02*
D03*
D40*
X13525500Y6654800D02*
D03*
X13779500D02*
D03*
X14033501D02*
D03*
X14287500D02*
D03*
X10236200Y11557000D02*
D03*
X9728200D02*
D03*
X9982200D02*
D03*
D41*
X14541499Y6654800D02*
D03*
X9474200Y11557000D02*
D03*
D42*
X15902699Y6411000D02*
D03*
Y11811000D02*
D03*
X8902700D02*
D03*
X10902700Y6411000D02*
D03*
D43*
X9634700Y9017000D02*
D03*
Y9144000D02*
D03*
X9906000Y8636000D02*
D03*
X7620000Y6096000D02*
D03*
X7874000Y8636000D02*
D03*
X7620000Y10160000D02*
D03*
X7874000Y10668000D02*
D03*
X7620000Y11176000D02*
D03*
X7874000Y11684000D02*
D03*
X8128000Y6096000D02*
D03*
X8382000Y6604000D02*
D03*
X8128000Y7112000D02*
D03*
X8382000Y7620000D02*
D03*
Y8636000D02*
D03*
X8128000Y9144000D02*
D03*
X8382000Y9652000D02*
D03*
X8128000Y10160000D02*
D03*
X8382000Y10668000D02*
D03*
Y11684000D02*
D03*
X8636000Y6096000D02*
D03*
X8890000Y6604000D02*
D03*
X8636000Y7112000D02*
D03*
X8890000Y8636000D02*
D03*
X8636000Y9144000D02*
D03*
Y10160000D02*
D03*
X8890000Y10668000D02*
D03*
X8636000Y11176000D02*
D03*
X9144000Y6096000D02*
D03*
Y8128000D02*
D03*
Y9144000D02*
D03*
Y10160000D02*
D03*
Y11176000D02*
D03*
X9398000Y11684000D02*
D03*
X9652000Y6096000D02*
D03*
X9906000Y6604000D02*
D03*
Y7620000D02*
D03*
X9652000Y8128000D02*
D03*
Y10160000D02*
D03*
X9906000Y10668000D02*
D03*
X9652000Y11176000D02*
D03*
X9906000Y11684000D02*
D03*
X10160000Y6096000D02*
D03*
X10414000Y6604000D02*
D03*
X10160000Y7112000D02*
D03*
X10414000Y7620000D02*
D03*
X10160000Y8128000D02*
D03*
X10414000Y9652000D02*
D03*
Y10668000D02*
D03*
Y11684000D02*
D03*
X10668000Y6096000D02*
D03*
Y7112000D02*
D03*
X10922000Y7620000D02*
D03*
X10668000Y8128000D02*
D03*
X10922000Y9652000D02*
D03*
Y10668000D02*
D03*
X10668000Y11176000D02*
D03*
X10922000Y11684000D02*
D03*
X11176000Y6096000D02*
D03*
X11430000Y6604000D02*
D03*
X11176000Y7112000D02*
D03*
X11430000Y7620000D02*
D03*
X11176000Y8128000D02*
D03*
Y10160000D02*
D03*
X11430000Y10668000D02*
D03*
X11176000Y11176000D02*
D03*
X11430000Y11684000D02*
D03*
X11684000Y6096000D02*
D03*
X11938000Y6604000D02*
D03*
X11684000Y7112000D02*
D03*
Y8128000D02*
D03*
Y10160000D02*
D03*
X11938000Y10668000D02*
D03*
X11684000Y11176000D02*
D03*
X11938000Y11684000D02*
D03*
X12192000Y6096000D02*
D03*
X12446000Y6604000D02*
D03*
Y7620000D02*
D03*
X12192000Y8128000D02*
D03*
X12446000Y8636000D02*
D03*
X12192000Y9144000D02*
D03*
X12446000Y9652000D02*
D03*
X12192000Y10160000D02*
D03*
X12446000Y10668000D02*
D03*
X12192000Y11176000D02*
D03*
X12446000Y11684000D02*
D03*
X12700000Y6096000D02*
D03*
X12953999Y6604000D02*
D03*
X12700000Y7112000D02*
D03*
X12953999Y8636000D02*
D03*
X12700000Y9144000D02*
D03*
X12953999Y9652000D02*
D03*
X12700000Y10160000D02*
D03*
X12953999Y10668000D02*
D03*
X12700000Y11176000D02*
D03*
X12953999Y11684000D02*
D03*
X13208000Y6096000D02*
D03*
Y7112000D02*
D03*
X13462000Y7620000D02*
D03*
X13208000Y8128000D02*
D03*
X13462000Y9652000D02*
D03*
X13208000Y10160000D02*
D03*
X13462000Y11684000D02*
D03*
X13716000Y6096000D02*
D03*
Y7112000D02*
D03*
X13970000Y9652000D02*
D03*
Y10668000D02*
D03*
X13716000Y11176000D02*
D03*
X13970000Y11684000D02*
D03*
X14224001Y6096000D02*
D03*
Y9144000D02*
D03*
X14478000Y9652000D02*
D03*
X14224001Y10160000D02*
D03*
Y11176000D02*
D03*
X14478000Y11684000D02*
D03*
X14732001Y6096000D02*
D03*
Y7112000D02*
D03*
Y8128000D02*
D03*
Y9144000D02*
D03*
X14986000Y9652000D02*
D03*
X14732001Y10160000D02*
D03*
X14986000Y11684000D02*
D03*
X15239999Y6096000D02*
D03*
X15494000Y6604000D02*
D03*
Y7620000D02*
D03*
X15239999Y8128000D02*
D03*
Y9144000D02*
D03*
X15494000Y9652000D02*
D03*
X15239999Y10160000D02*
D03*
Y11176000D02*
D03*
X15494000Y11684000D02*
D03*
X15748000Y6096000D02*
D03*
Y7112000D02*
D03*
X16002000Y7620000D02*
D03*
X15748000Y8128000D02*
D03*
Y11176000D02*
D03*
X14368300Y8346312D02*
D03*
X13849500Y10906213D02*
D03*
X13741400Y8305800D02*
D03*
X13576300Y8877300D02*
D03*
X13411200Y10896600D02*
D03*
X12649200Y7785100D02*
D03*
X13639799Y8382000D02*
D03*
X13474699Y8572500D02*
D03*
X13309599Y9791700D02*
D03*
X13322301Y9677400D02*
D03*
X15151100Y7556500D02*
D03*
X15367000D02*
D03*
X14338300Y10655300D02*
D03*
X14084300Y11163300D02*
D03*
X14109700Y10744200D02*
D03*
X12801601Y10502900D02*
D03*
X8623300Y8242300D02*
D03*
X8674100Y7975600D02*
D03*
X9410700Y6858000D02*
D03*
X14770100Y7581900D02*
D03*
X14808200Y7886700D02*
D03*
X15367000Y7327900D02*
D03*
X14897099Y7543800D02*
D03*
X14160500Y7010400D02*
D03*
X13919200Y7023100D02*
D03*
X10071100Y9448800D02*
D03*
X9448800Y9880600D02*
D03*
%TF.MD5,bf939fa3011db465fab8803163f183ea*%
M02*
