%TF.GenerationSoftware,Altium Limited,Altium Designer,26.4.1 (12)*%
G04 Layer_Color=8421504*
%FSLAX45Y45*%
%MOMM*%
%TF.SameCoordinates,DAE7519C-F33C-4434-B054-6429215D859A*%
%TF.FilePolarity,Positive*%
%TF.FileFunction,Paste,Top*%
%TF.Part,Single*%
G01*
G75*
%TA.AperFunction,SMDPad,CuDef*%
%ADD10R,3.00000X1.60000*%
%ADD11R,5.50000X1.50000*%
G04:AMPARAMS|DCode=12|XSize=1.2mm|YSize=1.82mm|CornerRadius=0.15mm|HoleSize=0mm|Usage=FLASHONLY|Rotation=270.000|XOffset=0mm|YOffset=0mm|HoleType=Round|Shape=RoundedRectangle|*
%AMROUNDEDRECTD12*
21,1,1.20000,1.52000,0,0,270.0*
21,1,0.90000,1.82000,0,0,270.0*
1,1,0.30000,-0.76000,-0.45000*
1,1,0.30000,-0.76000,0.45000*
1,1,0.30000,0.76000,0.45000*
1,1,0.30000,0.76000,-0.45000*
%
%ADD12ROUNDEDRECTD12*%
%ADD13R,1.75000X2.20000*%
%ADD14R,1.20000X0.57000*%
%ADD15R,0.64000X0.42000*%
%ADD16R,0.42000X0.64000*%
G04:AMPARAMS|DCode=17|XSize=1.05mm|YSize=1.38mm|CornerRadius=0.13125mm|HoleSize=0mm|Usage=FLASHONLY|Rotation=270.000|XOffset=0mm|YOffset=0mm|HoleType=Round|Shape=RoundedRectangle|*
%AMROUNDEDRECTD17*
21,1,1.05000,1.11750,0,0,270.0*
21,1,0.78750,1.38000,0,0,270.0*
1,1,0.26250,-0.55875,-0.39375*
1,1,0.26250,-0.55875,0.39375*
1,1,0.26250,0.55875,0.39375*
1,1,0.26250,0.55875,-0.39375*
%
%ADD17ROUNDEDRECTD17*%
%ADD18R,1.30000X1.50000*%
%ADD19R,0.90000X1.50000*%
%ADD20R,1.50000X0.90000*%
%TA.AperFunction,BGAPad,CuDef*%
%ADD21R,0.90000X0.90000*%
%TA.AperFunction,SMDPad,CuDef*%
%ADD22R,2.15000X3.25000*%
%ADD23R,2.15000X0.95000*%
%ADD24R,1.40000X2.10000*%
%ADD25R,1.42000X1.00000*%
%ADD26R,1.00000X1.42000*%
%ADD27R,5.50000X1.00000*%
%ADD28R,1.50000X1.30000*%
G04:AMPARAMS|DCode=29|XSize=1.21mm|YSize=0.59mm|CornerRadius=0.1475mm|HoleSize=0mm|Usage=FLASHONLY|Rotation=0.000|XOffset=0mm|YOffset=0mm|HoleType=Round|Shape=RoundedRectangle|*
%AMROUNDEDRECTD29*
21,1,1.21000,0.29500,0,0,0.0*
21,1,0.91500,0.59000,0,0,0.0*
1,1,0.29500,0.45750,-0.14750*
1,1,0.29500,-0.45750,-0.14750*
1,1,0.29500,-0.45750,0.14750*
1,1,0.29500,0.45750,0.14750*
%
%ADD29ROUNDEDRECTD29*%
G04:AMPARAMS|DCode=30|XSize=1.11mm|YSize=1.47mm|CornerRadius=0.13875mm|HoleSize=0mm|Usage=FLASHONLY|Rotation=270.000|XOffset=0mm|YOffset=0mm|HoleType=Round|Shape=RoundedRectangle|*
%AMROUNDEDRECTD30*
21,1,1.11000,1.19250,0,0,270.0*
21,1,0.83250,1.47000,0,0,270.0*
1,1,0.27750,-0.59625,-0.41625*
1,1,0.27750,-0.59625,0.41625*
1,1,0.27750,0.59625,0.41625*
1,1,0.27750,0.59625,-0.41625*
%
%ADD30ROUNDEDRECTD30*%
%ADD31R,1.50000X5.50000*%
%ADD32R,1.60000X3.00000*%
D10*
X7848600Y8318500D02*
D03*
Y7638500D02*
D03*
X7835900Y7157000D02*
D03*
Y6477000D02*
D03*
X15951199Y7080000D02*
D03*
Y8160000D02*
D03*
D11*
X8073600Y8078500D02*
D03*
Y7878500D02*
D03*
X8060900Y6917000D02*
D03*
Y6717000D02*
D03*
D12*
X10858500Y10052000D02*
D03*
Y9760000D02*
D03*
D13*
X9740900Y6500600D02*
D03*
Y6910600D02*
D03*
X9728200Y8294900D02*
D03*
Y7884900D02*
D03*
D14*
X12966701Y9007900D02*
D03*
Y8822900D02*
D03*
X13017500Y11179600D02*
D03*
Y10994600D02*
D03*
D15*
X14208900Y7632700D02*
D03*
X14058900D02*
D03*
X13755299D02*
D03*
X13905299D02*
D03*
D16*
X12598400Y10593000D02*
D03*
Y10743000D02*
D03*
X12573000Y9056300D02*
D03*
Y9206300D02*
D03*
D17*
X14516100Y10769700D02*
D03*
Y10947300D02*
D03*
D18*
X13887199Y11315700D02*
D03*
X13697200D02*
D03*
D19*
X15390401Y10438100D02*
D03*
X15263400D02*
D03*
X15136400D02*
D03*
X15009399D02*
D03*
X14882401D02*
D03*
X14755400D02*
D03*
X14628400D02*
D03*
X14501401D02*
D03*
X14374400D02*
D03*
X14247400D02*
D03*
X14120399D02*
D03*
X13993401D02*
D03*
X13866400D02*
D03*
Y8688100D02*
D03*
X13993401D02*
D03*
X14120399D02*
D03*
X14247400D02*
D03*
X14374400D02*
D03*
X14501401D02*
D03*
X14628400D02*
D03*
X14755400D02*
D03*
X14882401D02*
D03*
X15009399D02*
D03*
X15136400D02*
D03*
X15263400D02*
D03*
X15390401D02*
D03*
X15517400D02*
D03*
Y10438100D02*
D03*
D20*
X13741400Y10007600D02*
D03*
Y9880600D02*
D03*
Y9753600D02*
D03*
Y9626600D02*
D03*
Y9499600D02*
D03*
Y9372600D02*
D03*
Y9245600D02*
D03*
Y9118600D02*
D03*
Y8991600D02*
D03*
Y10134600D02*
D03*
D21*
X14745399Y9713100D02*
D03*
X14885400D02*
D03*
Y9573100D02*
D03*
X14745399D02*
D03*
X14605400D02*
D03*
Y9713100D02*
D03*
Y9853100D02*
D03*
X14745399D02*
D03*
X14885400D02*
D03*
D22*
X10577000Y10033000D02*
D03*
D23*
X9997000Y9803000D02*
D03*
Y10033000D02*
D03*
Y10263000D02*
D03*
D24*
X11876700Y11112500D02*
D03*
X12331700Y10202500D02*
D03*
X11876700D02*
D03*
X12331700Y11112500D02*
D03*
X11875600Y8676300D02*
D03*
X12330600Y9586300D02*
D03*
Y8676300D02*
D03*
X11875600Y9586300D02*
D03*
D25*
X9359900Y7218200D02*
D03*
Y7031200D02*
D03*
X13182600Y8767600D02*
D03*
Y8580600D02*
D03*
X13233400Y10952000D02*
D03*
Y10765000D02*
D03*
X11087100Y9872500D02*
D03*
Y9685500D02*
D03*
X14808200Y10765000D02*
D03*
Y10952000D02*
D03*
X9385300Y8428200D02*
D03*
Y8615200D02*
D03*
D26*
X14079700Y11315700D02*
D03*
X14266701D02*
D03*
X14067000Y11557000D02*
D03*
X14253999D02*
D03*
X13873000D02*
D03*
X13686000D02*
D03*
X11958800Y7785100D02*
D03*
X12145800D02*
D03*
X10342400Y11214100D02*
D03*
X10155400D02*
D03*
X10371300Y9474200D02*
D03*
X10558300D02*
D03*
X14609599Y7924800D02*
D03*
X14422600D02*
D03*
X13568201D02*
D03*
X13381200D02*
D03*
X13876500Y8216900D02*
D03*
X14063499D02*
D03*
X8885400Y8394700D02*
D03*
X9072400D02*
D03*
X8898100Y7200900D02*
D03*
X9085100D02*
D03*
D27*
X15726199Y7920000D02*
D03*
Y7520000D02*
D03*
Y7320000D02*
D03*
Y7720000D02*
D03*
D28*
X15481300Y10788900D02*
D03*
Y10978900D02*
D03*
X9728200Y9582400D02*
D03*
Y9772400D02*
D03*
D29*
X9142500Y7835900D02*
D03*
X8891500Y7930900D02*
D03*
Y7740900D02*
D03*
X9117100Y6616700D02*
D03*
X8866100Y6711700D02*
D03*
Y6521700D02*
D03*
D30*
X15227299Y10781200D02*
D03*
Y10961200D02*
D03*
D31*
X12128500Y7137400D02*
D03*
X11928500D02*
D03*
D32*
X12368500Y6912400D02*
D03*
X11688500D02*
D03*
%TF.MD5,fa7987f33d7811db015a38885ed01205*%
M02*
