%TF.GenerationSoftware,Altium Limited,Altium Designer,26.4.1 (12)*%
G04 Layer_Color=128*
%FSLAX45Y45*%
%MOMM*%
%TF.SameCoordinates,DAE7519C-F33C-4434-B054-6429215D859A*%
%TF.FilePolarity,Positive*%
%TF.FileFunction,Drillmap*%
%TF.Part,Single*%
G01*
G75*
%TA.AperFunction,NonConductor*%
%ADD46C,0.12700*%
D46*
X10615300Y7310500D02*
X10695300D01*
X10655300Y7270500D02*
Y7350500D01*
X10615300Y7810500D02*
X10695300D01*
X10655300Y7770500D02*
Y7850500D01*
X7928300Y11264900D02*
X8048300D01*
X7988300Y11204900D02*
Y11324900D01*
X7928300Y10756900D02*
X8048300D01*
X7988300Y10696900D02*
Y10816900D01*
X8984900Y10233200D02*
X9085900D01*
X9035400Y10182700D02*
Y10283700D01*
X8864900Y9728200D02*
X8965900D01*
X8915400Y9677700D02*
Y9778700D01*
X13470500Y6654800D02*
X13580499D01*
X13525500Y6599800D02*
Y6709800D01*
X13724500Y6654800D02*
X13834500D01*
X13779500Y6599800D02*
Y6709800D01*
X13978500Y6654800D02*
X14088499D01*
X14033501Y6599800D02*
Y6709800D01*
X14486501Y6654800D02*
X14596500D01*
X14541499Y6599800D02*
Y6709800D01*
X14232500Y6654800D02*
X14342500D01*
X14287500Y6599800D02*
Y6709800D01*
X10181200Y11557000D02*
X10291200D01*
X10236200Y11502000D02*
Y11612000D01*
X9419200Y11557000D02*
X9529200D01*
X9474200Y11502000D02*
Y11612000D01*
X9673200Y11557000D02*
X9783200D01*
X9728200Y11502000D02*
Y11612000D01*
X9927200Y11557000D02*
X10037200D01*
X9982200Y11502000D02*
Y11612000D01*
X7915600Y9156700D02*
X8035600D01*
X7975600Y9096700D02*
Y9216700D01*
X7915600Y9664700D02*
X8035600D01*
X7975600Y9604700D02*
Y9724700D01*
X15742700Y6411000D02*
X16062700D01*
X15902699Y6251000D02*
Y6571000D01*
X15742700Y11811000D02*
X16062700D01*
X15902699Y11651000D02*
Y11971000D01*
X8742700Y11811000D02*
X9062700D01*
X8902700Y11651000D02*
Y11971000D01*
X10742700Y6411000D02*
X11062700D01*
X10902700Y6251000D02*
Y6571000D01*
X9619700Y9017000D02*
X9649700D01*
X9634700Y9002000D02*
Y9032000D01*
X9619700Y9144000D02*
X9649700D01*
X9634700Y9129000D02*
Y9159000D01*
X9891000Y8636000D02*
X9921000D01*
X9906000Y8621000D02*
Y8651000D01*
X7605000Y6096000D02*
X7635000D01*
X7620000Y6081000D02*
Y6111000D01*
X7859000Y8636000D02*
X7889000D01*
X7874000Y8621000D02*
Y8651000D01*
X7605000Y10160000D02*
X7635000D01*
X7620000Y10145000D02*
Y10175000D01*
X7859000Y10668000D02*
X7889000D01*
X7874000Y10653000D02*
Y10683000D01*
X7605000Y11176000D02*
X7635000D01*
X7620000Y11161000D02*
Y11191000D01*
X7859000Y11684000D02*
X7889000D01*
X7874000Y11669000D02*
Y11699000D01*
X8113000Y6096000D02*
X8143000D01*
X8128000Y6081000D02*
Y6111000D01*
X8367000Y6604000D02*
X8397000D01*
X8382000Y6589000D02*
Y6619000D01*
X8113000Y7112000D02*
X8143000D01*
X8128000Y7097000D02*
Y7127000D01*
X8367000Y7620000D02*
X8397000D01*
X8382000Y7605000D02*
Y7635000D01*
X8367000Y8636000D02*
X8397000D01*
X8382000Y8621000D02*
Y8651000D01*
X8113000Y9144000D02*
X8143000D01*
X8128000Y9129000D02*
Y9159000D01*
X8367000Y9652000D02*
X8397000D01*
X8382000Y9637000D02*
Y9667000D01*
X8113000Y10160000D02*
X8143000D01*
X8128000Y10145000D02*
Y10175000D01*
X8367000Y10668000D02*
X8397000D01*
X8382000Y10653000D02*
Y10683000D01*
X8367000Y11684000D02*
X8397000D01*
X8382000Y11669000D02*
Y11699000D01*
X8621000Y6096000D02*
X8651000D01*
X8636000Y6081000D02*
Y6111000D01*
X8875000Y6604000D02*
X8905000D01*
X8890000Y6589000D02*
Y6619000D01*
X8621000Y7112000D02*
X8651000D01*
X8636000Y7097000D02*
Y7127000D01*
X8875000Y8636000D02*
X8905000D01*
X8890000Y8621000D02*
Y8651000D01*
X8621000Y9144000D02*
X8651000D01*
X8636000Y9129000D02*
Y9159000D01*
X8621000Y10160000D02*
X8651000D01*
X8636000Y10145000D02*
Y10175000D01*
X8875000Y10668000D02*
X8905000D01*
X8890000Y10653000D02*
Y10683000D01*
X8621000Y11176000D02*
X8651000D01*
X8636000Y11161000D02*
Y11191000D01*
X9129000Y6096000D02*
X9159000D01*
X9144000Y6081000D02*
Y6111000D01*
X9129000Y8128000D02*
X9159000D01*
X9144000Y8113000D02*
Y8143000D01*
X9129000Y9144000D02*
X9159000D01*
X9144000Y9129000D02*
Y9159000D01*
X9129000Y10160000D02*
X9159000D01*
X9144000Y10145000D02*
Y10175000D01*
X9129000Y11176000D02*
X9159000D01*
X9144000Y11161000D02*
Y11191000D01*
X9383000Y11684000D02*
X9413000D01*
X9398000Y11669000D02*
Y11699000D01*
X9637000Y6096000D02*
X9667000D01*
X9652000Y6081000D02*
Y6111000D01*
X9891000Y6604000D02*
X9921000D01*
X9906000Y6589000D02*
Y6619000D01*
X9891000Y7620000D02*
X9921000D01*
X9906000Y7605000D02*
Y7635000D01*
X9637000Y8128000D02*
X9667000D01*
X9652000Y8113000D02*
Y8143000D01*
X9637000Y10160000D02*
X9667000D01*
X9652000Y10145000D02*
Y10175000D01*
X9891000Y10668000D02*
X9921000D01*
X9906000Y10653000D02*
Y10683000D01*
X9637000Y11176000D02*
X9667000D01*
X9652000Y11161000D02*
Y11191000D01*
X9891000Y11684000D02*
X9921000D01*
X9906000Y11669000D02*
Y11699000D01*
X10145000Y6096000D02*
X10175000D01*
X10160000Y6081000D02*
Y6111000D01*
X10399000Y6604000D02*
X10429000D01*
X10414000Y6589000D02*
Y6619000D01*
X10145000Y7112000D02*
X10175000D01*
X10160000Y7097000D02*
Y7127000D01*
X10399000Y7620000D02*
X10429000D01*
X10414000Y7605000D02*
Y7635000D01*
X10145000Y8128000D02*
X10175000D01*
X10160000Y8113000D02*
Y8143000D01*
X10399000Y9652000D02*
X10429000D01*
X10414000Y9637000D02*
Y9667000D01*
X10399000Y10668000D02*
X10429000D01*
X10414000Y10653000D02*
Y10683000D01*
X10399000Y11684000D02*
X10429000D01*
X10414000Y11669000D02*
Y11699000D01*
X10653000Y6096000D02*
X10683000D01*
X10668000Y6081000D02*
Y6111000D01*
X10653000Y7112000D02*
X10683000D01*
X10668000Y7097000D02*
Y7127000D01*
X10907000Y7620000D02*
X10937000D01*
X10922000Y7605000D02*
Y7635000D01*
X10653000Y8128000D02*
X10683000D01*
X10668000Y8113000D02*
Y8143000D01*
X10907000Y9652000D02*
X10937000D01*
X10922000Y9637000D02*
Y9667000D01*
X10907000Y10668000D02*
X10937000D01*
X10922000Y10653000D02*
Y10683000D01*
X10653000Y11176000D02*
X10683000D01*
X10668000Y11161000D02*
Y11191000D01*
X10907000Y11684000D02*
X10937000D01*
X10922000Y11669000D02*
Y11699000D01*
X11161000Y6096000D02*
X11191000D01*
X11176000Y6081000D02*
Y6111000D01*
X11415000Y6604000D02*
X11445000D01*
X11430000Y6589000D02*
Y6619000D01*
X11161000Y7112000D02*
X11191000D01*
X11176000Y7097000D02*
Y7127000D01*
X11415000Y7620000D02*
X11445000D01*
X11430000Y7605000D02*
Y7635000D01*
X11161000Y8128000D02*
X11191000D01*
X11176000Y8113000D02*
Y8143000D01*
X11161000Y10160000D02*
X11191000D01*
X11176000Y10145000D02*
Y10175000D01*
X11415000Y10668000D02*
X11445000D01*
X11430000Y10653000D02*
Y10683000D01*
X11161000Y11176000D02*
X11191000D01*
X11176000Y11161000D02*
Y11191000D01*
X11415000Y11684000D02*
X11445000D01*
X11430000Y11669000D02*
Y11699000D01*
X11669000Y6096000D02*
X11699000D01*
X11684000Y6081000D02*
Y6111000D01*
X11923000Y6604000D02*
X11953000D01*
X11938000Y6589000D02*
Y6619000D01*
X11669000Y7112000D02*
X11699000D01*
X11684000Y7097000D02*
Y7127000D01*
X11669000Y8128000D02*
X11699000D01*
X11684000Y8113000D02*
Y8143000D01*
X11669000Y10160000D02*
X11699000D01*
X11684000Y10145000D02*
Y10175000D01*
X11923000Y10668000D02*
X11953000D01*
X11938000Y10653000D02*
Y10683000D01*
X11669000Y11176000D02*
X11699000D01*
X11684000Y11161000D02*
Y11191000D01*
X11923000Y11684000D02*
X11953000D01*
X11938000Y11669000D02*
Y11699000D01*
X12177000Y6096000D02*
X12207000D01*
X12192000Y6081000D02*
Y6111000D01*
X12431000Y6604000D02*
X12461000D01*
X12446000Y6589000D02*
Y6619000D01*
X12431000Y7620000D02*
X12461000D01*
X12446000Y7605000D02*
Y7635000D01*
X12177000Y8128000D02*
X12207000D01*
X12192000Y8113000D02*
Y8143000D01*
X12431000Y8636000D02*
X12461000D01*
X12446000Y8621000D02*
Y8651000D01*
X12177000Y9144000D02*
X12207000D01*
X12192000Y9129000D02*
Y9159000D01*
X12431000Y9652000D02*
X12461000D01*
X12446000Y9637000D02*
Y9667000D01*
X12177000Y10160000D02*
X12207000D01*
X12192000Y10145000D02*
Y10175000D01*
X12431000Y10668000D02*
X12461000D01*
X12446000Y10653000D02*
Y10683000D01*
X12177000Y11176000D02*
X12207000D01*
X12192000Y11161000D02*
Y11191000D01*
X12431000Y11684000D02*
X12461000D01*
X12446000Y11669000D02*
Y11699000D01*
X12685000Y6096000D02*
X12715000D01*
X12700000Y6081000D02*
Y6111000D01*
X12939000Y6604000D02*
X12969000D01*
X12953999Y6589000D02*
Y6619000D01*
X12685000Y7112000D02*
X12715000D01*
X12700000Y7097000D02*
Y7127000D01*
X12939000Y8636000D02*
X12969000D01*
X12953999Y8621000D02*
Y8651000D01*
X12685000Y9144000D02*
X12715000D01*
X12700000Y9129000D02*
Y9159000D01*
X12939000Y9652000D02*
X12969000D01*
X12953999Y9637000D02*
Y9667000D01*
X12685000Y10160000D02*
X12715000D01*
X12700000Y10145000D02*
Y10175000D01*
X12939000Y10668000D02*
X12969000D01*
X12953999Y10653000D02*
Y10683000D01*
X12685000Y11176000D02*
X12715000D01*
X12700000Y11161000D02*
Y11191000D01*
X12939000Y11684000D02*
X12969000D01*
X12953999Y11669000D02*
Y11699000D01*
X13192999Y6096000D02*
X13223000D01*
X13208000Y6081000D02*
Y6111000D01*
X13192999Y7112000D02*
X13223000D01*
X13208000Y7097000D02*
Y7127000D01*
X13447000Y7620000D02*
X13477000D01*
X13462000Y7605000D02*
Y7635000D01*
X13192999Y8128000D02*
X13223000D01*
X13208000Y8113000D02*
Y8143000D01*
X13447000Y9652000D02*
X13477000D01*
X13462000Y9637000D02*
Y9667000D01*
X13192999Y10160000D02*
X13223000D01*
X13208000Y10145000D02*
Y10175000D01*
X13447000Y11684000D02*
X13477000D01*
X13462000Y11669000D02*
Y11699000D01*
X13700999Y6096000D02*
X13731000D01*
X13716000Y6081000D02*
Y6111000D01*
X13700999Y7112000D02*
X13731000D01*
X13716000Y7097000D02*
Y7127000D01*
X13955000Y9652000D02*
X13985001D01*
X13970000Y9637000D02*
Y9667000D01*
X13955000Y10668000D02*
X13985001D01*
X13970000Y10653000D02*
Y10683000D01*
X13700999Y11176000D02*
X13731000D01*
X13716000Y11161000D02*
Y11191000D01*
X13955000Y11684000D02*
X13985001D01*
X13970000Y11669000D02*
Y11699000D01*
X14209000Y6096000D02*
X14239000D01*
X14224001Y6081000D02*
Y6111000D01*
X14209000Y9144000D02*
X14239000D01*
X14224001Y9129000D02*
Y9159000D01*
X14463000Y9652000D02*
X14492999D01*
X14478000Y9637000D02*
Y9667000D01*
X14209000Y10160000D02*
X14239000D01*
X14224001Y10145000D02*
Y10175000D01*
X14209000Y11176000D02*
X14239000D01*
X14224001Y11161000D02*
Y11191000D01*
X14463000Y11684000D02*
X14492999D01*
X14478000Y11669000D02*
Y11699000D01*
X14717000Y6096000D02*
X14747000D01*
X14732001Y6081000D02*
Y6111000D01*
X14717000Y7112000D02*
X14747000D01*
X14732001Y7097000D02*
Y7127000D01*
X14717000Y8128000D02*
X14747000D01*
X14732001Y8113000D02*
Y8143000D01*
X14717000Y9144000D02*
X14747000D01*
X14732001Y9129000D02*
Y9159000D01*
X14971001Y9652000D02*
X15000999D01*
X14986000Y9637000D02*
Y9667000D01*
X14717000Y10160000D02*
X14747000D01*
X14732001Y10145000D02*
Y10175000D01*
X14971001Y11684000D02*
X15000999D01*
X14986000Y11669000D02*
Y11699000D01*
X15225000Y6096000D02*
X15255000D01*
X15239999Y6081000D02*
Y6111000D01*
X15478999Y6604000D02*
X15509000D01*
X15494000Y6589000D02*
Y6619000D01*
X15478999Y7620000D02*
X15509000D01*
X15494000Y7605000D02*
Y7635000D01*
X15225000Y8128000D02*
X15255000D01*
X15239999Y8113000D02*
Y8143000D01*
X15225000Y9144000D02*
X15255000D01*
X15239999Y9129000D02*
Y9159000D01*
X15478999Y9652000D02*
X15509000D01*
X15494000Y9637000D02*
Y9667000D01*
X15225000Y10160000D02*
X15255000D01*
X15239999Y10145000D02*
Y10175000D01*
X15225000Y11176000D02*
X15255000D01*
X15239999Y11161000D02*
Y11191000D01*
X15478999Y11684000D02*
X15509000D01*
X15494000Y11669000D02*
Y11699000D01*
X15733000Y6096000D02*
X15763000D01*
X15748000Y6081000D02*
Y6111000D01*
X15733000Y7112000D02*
X15763000D01*
X15748000Y7097000D02*
Y7127000D01*
X15987000Y7620000D02*
X16017000D01*
X16002000Y7605000D02*
Y7635000D01*
X15733000Y8128000D02*
X15763000D01*
X15748000Y8113000D02*
Y8143000D01*
X15733000Y11176000D02*
X15763000D01*
X15748000Y11161000D02*
Y11191000D01*
X14353300Y8346312D02*
X14383299D01*
X14368300Y8331313D02*
Y8361312D01*
X13834499Y10906213D02*
X13864499D01*
X13849500Y10891213D02*
Y10921213D01*
X13726401Y8305800D02*
X13756400D01*
X13741400Y8290800D02*
Y8320800D01*
X13561301Y8877300D02*
X13591299D01*
X13576300Y8862300D02*
Y8892300D01*
X13396201Y10896600D02*
X13426199D01*
X13411200Y10881600D02*
Y10911600D01*
X12634200Y7785100D02*
X12664200D01*
X12649200Y7770100D02*
Y7800100D01*
X13624800Y8382000D02*
X13654800D01*
X13639799Y8367000D02*
Y8397000D01*
X13459700Y8572500D02*
X13489700D01*
X13474699Y8557500D02*
Y8587500D01*
X13294600Y9791700D02*
X13324600D01*
X13309599Y9776700D02*
Y9806700D01*
X13307300Y9677400D02*
X13337300D01*
X13322301Y9662400D02*
Y9692400D01*
X15136099Y7556500D02*
X15166100D01*
X15151100Y7541500D02*
Y7571500D01*
X15352000Y7556500D02*
X15382001D01*
X15367000Y7541500D02*
Y7571500D01*
X14323300Y10655300D02*
X14353300D01*
X14338300Y10640300D02*
Y10670300D01*
X14069299Y11163300D02*
X14099300D01*
X14084300Y11148300D02*
Y11178300D01*
X14094701Y10744200D02*
X14124699D01*
X14109700Y10729200D02*
Y10759200D01*
X12786600Y10502900D02*
X12816600D01*
X12801601Y10487900D02*
Y10517900D01*
X8608300Y8242300D02*
X8638300D01*
X8623300Y8227300D02*
Y8257300D01*
X8659100Y7975600D02*
X8689100D01*
X8674100Y7960600D02*
Y7990600D01*
X9395700Y6858000D02*
X9425700D01*
X9410700Y6843000D02*
Y6873000D01*
X14755099Y7581900D02*
X14785100D01*
X14770100Y7566900D02*
Y7596900D01*
X14793201Y7886700D02*
X14823199D01*
X14808200Y7871700D02*
Y7901700D01*
X15352000Y7327900D02*
X15382001D01*
X15367000Y7312900D02*
Y7342900D01*
X14882100Y7543800D02*
X14912100D01*
X14897099Y7528800D02*
Y7558800D01*
X14145500Y7010400D02*
X14175500D01*
X14160500Y6995400D02*
Y7025400D01*
X13904201Y7023100D02*
X13934200D01*
X13919200Y7008100D02*
Y7038100D01*
X10056100Y9448800D02*
X10086100D01*
X10071100Y9433800D02*
Y9463800D01*
X9433800Y9880600D02*
X9463800D01*
X9448800Y9865600D02*
Y9895600D01*
%TF.MD5,5caf9765cf5cc89021df846de454c59d*%
M02*
