%TF.GenerationSoftware,Altium Limited,Altium Designer,26.4.1 (12)*%
G04 Layer_Color=65535*
%FSLAX45Y45*%
%MOMM*%
%TF.SameCoordinates,DAE7519C-F33C-4434-B054-6429215D859A*%
%TF.FilePolarity,Positive*%
%TF.FileFunction,Legend,Top*%
%TF.Part,Single*%
G01*
G75*
%TA.AperFunction,NonConductor*%
%ADD44C,0.20000*%
%ADD45C,0.10000*%
%ADD46C,0.12700*%
%ADD47C,0.30000*%
%ADD48C,0.25400*%
G36*
X11468177Y11411255D02*
X11466511D01*
Y11412088D01*
X11468177D01*
Y11411255D01*
D02*
G37*
G36*
X11376536Y11389594D02*
X11375703D01*
Y11390428D01*
X11376536D01*
Y11389594D01*
D02*
G37*
G36*
X11526495Y11362102D02*
X11525662D01*
Y11362935D01*
X11526495D01*
Y11362102D01*
D02*
G37*
G36*
X10719217Y11343774D02*
X10718383D01*
Y11344607D01*
X10719217D01*
Y11343774D01*
D02*
G37*
G36*
X11321551Y11288789D02*
X11320718D01*
Y11289622D01*
X11321551D01*
Y11288789D01*
D02*
G37*
G36*
X10615079Y11282124D02*
X10614245D01*
Y11282957D01*
X10615079D01*
Y11282124D01*
D02*
G37*
G36*
X11581480Y11267128D02*
X11580647D01*
Y11267961D01*
X11581480D01*
Y11267128D01*
D02*
G37*
G36*
Y11248800D02*
X11580647D01*
Y11249633D01*
X11581480D01*
Y11248800D01*
D02*
G37*
G36*
X10813357Y11237136D02*
X10812524D01*
Y11237969D01*
X10813357D01*
Y11237136D01*
D02*
G37*
G36*
X10838350Y11215475D02*
X10837518D01*
Y11216309D01*
X10838350D01*
Y11215475D01*
D02*
G37*
G36*
X10578422Y11209644D02*
X10577589D01*
Y11210477D01*
X10578422D01*
Y11209644D01*
D02*
G37*
G36*
X11541491Y11206311D02*
X11540658D01*
Y11207144D01*
X11541491D01*
Y11206311D01*
D02*
G37*
G36*
X11312387Y11203812D02*
X11311554D01*
Y11204645D01*
X11312387D01*
Y11203812D01*
D02*
G37*
G36*
X10872508Y11153826D02*
X10871675D01*
Y11154659D01*
X10872508D01*
Y11153826D01*
D02*
G37*
G36*
X11455681Y10778096D02*
X11454848D01*
Y10778929D01*
X11455681D01*
Y10778096D01*
D02*
G37*
G36*
X10779200Y10750603D02*
X10776701D01*
Y10751436D01*
X10779200D01*
Y10750603D01*
D02*
G37*
G36*
X11479841Y10734774D02*
X11479008D01*
Y10735607D01*
X11479841D01*
Y10734774D01*
D02*
G37*
G36*
X10691724Y10729776D02*
X10690891D01*
Y10730609D01*
X10691724D01*
Y10729776D01*
D02*
G37*
G36*
X11284895Y10728942D02*
X11284062D01*
Y10729776D01*
X11284895D01*
Y10728942D01*
D02*
G37*
G36*
X11422357Y10704783D02*
X11421524D01*
Y10705616D01*
X11422357D01*
Y10704783D01*
D02*
G37*
G36*
X11275730Y10693119D02*
X11274897D01*
Y10693952D01*
X11275730D01*
Y10693119D01*
D02*
G37*
G36*
X10930825Y10686454D02*
X10929992D01*
Y10687287D01*
X10930825D01*
Y10686454D01*
D02*
G37*
G36*
X10924160Y10669792D02*
X10923327D01*
Y10670625D01*
X10924160D01*
Y10669792D01*
D02*
G37*
G36*
X11257402Y10668126D02*
X11256569D01*
Y10668959D01*
X11257402D01*
Y10668126D01*
D02*
G37*
G36*
X11217413Y10664794D02*
X11216580D01*
Y10665627D01*
Y10666460D01*
X11217413D01*
Y10664794D01*
D02*
G37*
G36*
X10666731Y10662294D02*
X10665898D01*
Y10663127D01*
X10666731D01*
Y10662294D01*
D02*
G37*
G36*
X10664232Y10658962D02*
X10663399D01*
Y10659795D01*
X10664232D01*
Y10658962D01*
D02*
G37*
G36*
X10704221Y10653130D02*
X10703388D01*
Y10653963D01*
X10704221D01*
Y10653130D01*
D02*
G37*
G36*
X10933325Y10651464D02*
X10932491D01*
Y10652297D01*
X10933325D01*
Y10651464D01*
D02*
G37*
G36*
X11480674Y10649798D02*
X11479841D01*
Y10650631D01*
X11480674D01*
Y10649798D01*
D02*
G37*
G36*
X11486506Y10643966D02*
X11485673D01*
Y10644799D01*
X11486506D01*
Y10643966D01*
D02*
G37*
G36*
X11568983Y10640634D02*
X11568150D01*
Y10641466D01*
X11568983D01*
Y10640634D01*
D02*
G37*
G36*
X10944988Y10631469D02*
X10944155D01*
Y10632302D01*
X10944988D01*
Y10631469D01*
D02*
G37*
G36*
X11229910Y10573985D02*
Y10572319D01*
X11229077D01*
Y10574818D01*
X11229910D01*
Y10573985D01*
D02*
G37*
G36*
Y10568986D02*
X11229077D01*
Y10569820D01*
X11229910D01*
Y10568986D01*
D02*
G37*
G36*
X11608972Y10521499D02*
X11608139D01*
Y10522333D01*
X11608972D01*
Y10521499D01*
D02*
G37*
G36*
X11315719Y10519000D02*
X11314886D01*
Y10519833D01*
X11315719D01*
Y10519000D01*
D02*
G37*
G36*
X10945821Y10518167D02*
X10944988D01*
Y10519000D01*
X10945821D01*
Y10518167D01*
D02*
G37*
G36*
X10866676D02*
X10865843D01*
Y10519000D01*
X10866676D01*
Y10518167D01*
D02*
G37*
G36*
X10685893Y10517334D02*
Y10516501D01*
X10685059D01*
Y10518167D01*
X10685893D01*
Y10517334D01*
D02*
G37*
G36*
X10890836Y10510669D02*
X10890003D01*
Y10511502D01*
X10890836D01*
Y10510669D01*
D02*
G37*
G36*
X10655068Y10506503D02*
X10654234D01*
Y10507337D01*
X10655068D01*
Y10506503D01*
D02*
G37*
G36*
X11603140Y10502338D02*
X11602308D01*
Y10503171D01*
X11603140D01*
Y10502338D01*
D02*
G37*
G36*
X11248238Y10497339D02*
X11247405D01*
Y10498173D01*
X11248238D01*
Y10497339D01*
D02*
G37*
G36*
X10844182Y10494007D02*
X10843349D01*
Y10494840D01*
X10844182D01*
Y10494007D01*
D02*
G37*
G36*
X10964149Y10484010D02*
X10963316D01*
Y10484843D01*
X10964149D01*
Y10484010D01*
D02*
G37*
G36*
X10825854Y10481510D02*
X10825021D01*
Y10482344D01*
X10825854D01*
Y10481510D01*
D02*
G37*
G36*
X11553987Y10479011D02*
X11553154D01*
Y10479844D01*
X11553987D01*
Y10479011D01*
D02*
G37*
G36*
X10865843Y10469014D02*
X10865010D01*
Y10469847D01*
X10865843D01*
Y10469014D01*
D02*
G37*
G36*
X11493171Y10465681D02*
X11492338D01*
Y10466514D01*
X11493171D01*
Y10465681D01*
D02*
G37*
G36*
X10688392D02*
X10687559D01*
Y10466514D01*
X10688392D01*
Y10465681D01*
D02*
G37*
G36*
X10596750D02*
X10595917D01*
Y10466514D01*
X10596750D01*
Y10465681D01*
D02*
G37*
G36*
X10942489Y10448186D02*
X10941656D01*
Y10449019D01*
X10942489D01*
Y10448186D01*
D02*
G37*
G36*
X11513998Y10435690D02*
X11513165D01*
Y10436523D01*
X11513998D01*
Y10435690D01*
D02*
G37*
G36*
X10787531D02*
X10786698D01*
Y10436523D01*
X10787531D01*
Y10435690D01*
D02*
G37*
G36*
X11492338Y10420694D02*
X11491505D01*
Y10421527D01*
X11492338D01*
Y10420694D01*
D02*
G37*
G36*
X11339046Y10411530D02*
X11338213D01*
Y10412363D01*
X11339046D01*
Y10411530D01*
D02*
G37*
G36*
X10893335Y10401532D02*
X10892502D01*
Y10402366D01*
X10893335D01*
Y10401532D01*
D02*
G37*
G36*
X11419024Y10399033D02*
X11418191D01*
Y10399866D01*
X11419024D01*
Y10399033D01*
D02*
G37*
G36*
X10787531D02*
X10785865D01*
Y10399866D01*
X10787531D01*
Y10399033D01*
D02*
G37*
G36*
X11459013Y10371541D02*
X11458180D01*
Y10372374D01*
X11459013D01*
Y10371541D01*
D02*
G37*
G36*
X11485256Y9149139D02*
X11491641D01*
Y9147543D01*
X11494833D01*
Y9145947D01*
X11499622D01*
Y9144351D01*
X11502815D01*
Y9142754D01*
X11504411D01*
Y9141158D01*
X11507603D01*
Y9139562D01*
X11509200D01*
Y9137966D01*
X11510796D01*
Y9136369D01*
X11512392D01*
Y9134773D01*
X11515585D01*
Y9133177D01*
X11517181D01*
Y9129984D01*
X11518777D01*
Y9128388D01*
X11520374D01*
Y9126792D01*
X11521970D01*
Y9123599D01*
X11523566D01*
Y9122003D01*
X11525162D01*
Y9118810D01*
X11526759D01*
Y9114022D01*
X11528355D01*
Y9110829D01*
X11529951D01*
Y9104444D01*
X11531547D01*
Y9082096D01*
X11529951D01*
Y9075711D01*
X11528355D01*
Y9072519D01*
X11526759D01*
Y9067730D01*
X11525162D01*
Y9064537D01*
X11523566D01*
Y9062941D01*
X11521970D01*
Y9059748D01*
X11520374D01*
Y9058152D01*
X11518777D01*
Y9056556D01*
X11517181D01*
Y9054960D01*
X11515585D01*
Y9051767D01*
X11512392D01*
Y9050171D01*
X11510796D01*
Y9048574D01*
X11509200D01*
Y9046978D01*
X11507603D01*
Y9045382D01*
X11504411D01*
Y9043786D01*
X11502815D01*
Y9042189D01*
X11499622D01*
Y9040593D01*
X11494833D01*
Y9038997D01*
X11491641D01*
Y9037401D01*
X11485256D01*
Y9035804D01*
X11435771D01*
Y9074115D01*
X11478871D01*
Y9075711D01*
X11482063D01*
Y9077307D01*
X11485256D01*
Y9078904D01*
X11486852D01*
Y9080500D01*
X11488448D01*
Y9082096D01*
X11490045D01*
Y9085289D01*
X11491641D01*
Y9088481D01*
X11493237D01*
Y9098059D01*
X11491641D01*
Y9101252D01*
X11490045D01*
Y9104444D01*
X11488448D01*
Y9106040D01*
X11486852D01*
Y9107637D01*
X11485256D01*
Y9109233D01*
X11482063D01*
Y9110829D01*
X11478871D01*
Y9112425D01*
X11448541D01*
Y9110829D01*
X11446945D01*
Y9109233D01*
X11445349D01*
Y9106040D01*
X11443753D01*
Y9102848D01*
X11442156D01*
Y9099655D01*
X11440560D01*
Y9096463D01*
X11438964D01*
Y9093270D01*
X11437368D01*
Y9090078D01*
X11435771D01*
Y9086885D01*
X11434175D01*
Y9083693D01*
X11432579D01*
Y9080500D01*
X11430982D01*
Y9077307D01*
X11429386D01*
Y9074115D01*
X11427790D01*
Y9070922D01*
X11426194D01*
Y9067730D01*
X11424597D01*
Y9064537D01*
X11423001D01*
Y9061345D01*
X11421405D01*
Y9058152D01*
X11419809D01*
Y9054960D01*
X11418212D01*
Y9051767D01*
X11416616D01*
Y9048574D01*
X11415020D01*
Y9045382D01*
X11413423D01*
Y9042189D01*
X11411827D01*
Y9035804D01*
X11413423D01*
Y9034208D01*
X11415020D01*
Y9031015D01*
X11416616D01*
Y9029419D01*
X11418212D01*
Y9026227D01*
X11419809D01*
Y9024630D01*
X11421405D01*
Y9021438D01*
X11423001D01*
Y9018245D01*
X11424597D01*
Y9016649D01*
X11426194D01*
Y9013456D01*
X11427790D01*
Y9011860D01*
X11429386D01*
Y9008668D01*
X11430982D01*
Y9005475D01*
X11432579D01*
Y9003879D01*
X11434175D01*
Y9000686D01*
X11435771D01*
Y8997494D01*
X11437368D01*
Y8995898D01*
X11438964D01*
Y8992705D01*
X11446945D01*
Y8994301D01*
X11453330D01*
Y8995898D01*
X11459715D01*
Y8997494D01*
X11488448D01*
Y8995898D01*
X11496430D01*
Y8994301D01*
X11501218D01*
Y8992705D01*
X11507603D01*
Y8991109D01*
X11510796D01*
Y8989512D01*
X11513988D01*
Y8987916D01*
X11518777D01*
Y8986320D01*
X11521970D01*
Y8984724D01*
X11523566D01*
Y8983127D01*
X11526759D01*
Y8981531D01*
X11528355D01*
Y8979935D01*
X11531547D01*
Y8978339D01*
X11533144D01*
Y8976742D01*
X11534740D01*
Y8975146D01*
X11536336D01*
Y8973550D01*
X11539529D01*
Y8971954D01*
X11541125D01*
Y8968761D01*
X11544318D01*
Y8967165D01*
X11545914D01*
Y8963972D01*
X11547510D01*
Y8962376D01*
X11549106D01*
Y8960780D01*
X11550703D01*
Y8959183D01*
X11552299D01*
Y8955991D01*
X11553895D01*
Y8954395D01*
X11555491D01*
Y8951202D01*
X11557088D01*
Y8949606D01*
X11558684D01*
Y8946413D01*
X11560280D01*
Y8941624D01*
X11561877D01*
Y8938432D01*
X11563473D01*
Y8935239D01*
X11565069D01*
Y8928854D01*
X11566665D01*
Y8924065D01*
X11568262D01*
Y8916084D01*
X11569858D01*
Y8887351D01*
X11568262D01*
Y8879370D01*
X11566665D01*
Y8874581D01*
X11565069D01*
Y8868196D01*
X11563473D01*
Y8865003D01*
X11561877D01*
Y8861811D01*
X11560280D01*
Y8858618D01*
X11558684D01*
Y8855426D01*
X11557088D01*
Y8852233D01*
X11555491D01*
Y8849041D01*
X11553895D01*
Y8847444D01*
X11552299D01*
Y8845848D01*
X11550703D01*
Y8842656D01*
X11549106D01*
Y8841059D01*
X11547510D01*
Y8839463D01*
X11545914D01*
Y8837867D01*
X11544318D01*
Y8836270D01*
X11542721D01*
Y8834674D01*
X11541125D01*
Y8833078D01*
X11539529D01*
Y8831482D01*
X11537932D01*
Y8829885D01*
X11536336D01*
Y8828289D01*
X11534740D01*
Y8826693D01*
X11533144D01*
Y8825097D01*
X11529951D01*
Y8823500D01*
X11528355D01*
Y8821904D01*
X11525162D01*
Y8820308D01*
X11521970D01*
Y8818712D01*
X11520374D01*
Y8817115D01*
X11517181D01*
Y8815519D01*
X11512392D01*
Y8813923D01*
X11510796D01*
Y8812327D01*
X11506007D01*
Y8810730D01*
X11499622D01*
Y8809134D01*
X11494833D01*
Y8807538D01*
X11485256D01*
Y8805941D01*
X11464504D01*
Y8807538D01*
X11454927D01*
Y8809134D01*
X11448541D01*
Y8810730D01*
X11443753D01*
Y8812327D01*
X11438964D01*
Y8813923D01*
X11435771D01*
Y8815519D01*
X11430982D01*
Y8817115D01*
X11429386D01*
Y8818712D01*
X11426194D01*
Y8820308D01*
X11423001D01*
Y8821904D01*
X11421405D01*
Y8823500D01*
X11418212D01*
Y8825097D01*
X11416616D01*
Y8826693D01*
X11415020D01*
Y8828289D01*
X11413423D01*
Y8829885D01*
X11410231D01*
Y8831482D01*
X11408635D01*
Y8833078D01*
X11407038D01*
Y8834674D01*
X11405442D01*
Y8836270D01*
X11403846D01*
Y8837867D01*
X11402249D01*
Y8841059D01*
X11400653D01*
Y8842656D01*
X11399057D01*
Y8844252D01*
X11397461D01*
Y8845848D01*
X11395864D01*
Y8849041D01*
X11394268D01*
Y8850637D01*
X11392672D01*
Y8853829D01*
X11391076D01*
Y8857022D01*
X11389479D01*
Y8858618D01*
X11387883D01*
Y8863407D01*
X11386287D01*
Y8866600D01*
X11384691D01*
Y8871388D01*
X11383094D01*
Y8877773D01*
X11381498D01*
Y8882562D01*
X11379902D01*
Y8892140D01*
X11378305D01*
Y8911295D01*
X11379902D01*
Y8922469D01*
X11381498D01*
Y8927258D01*
X11383094D01*
Y8933643D01*
X11384691D01*
Y8936836D01*
X11386287D01*
Y8940028D01*
X11387883D01*
Y8944817D01*
X11389479D01*
Y8948010D01*
X11391076D01*
Y8949606D01*
X11392672D01*
Y8952798D01*
X11394268D01*
Y8955991D01*
X11395864D01*
Y8957587D01*
X11397461D01*
Y8959183D01*
X11399057D01*
Y8962376D01*
X11400653D01*
Y8963972D01*
X11402249D01*
Y8965568D01*
X11403846D01*
Y8967165D01*
X11405442D01*
Y8968761D01*
X11407038D01*
Y8973550D01*
X11405442D01*
Y8976742D01*
X11403846D01*
Y8978339D01*
X11402249D01*
Y8981531D01*
X11400653D01*
Y8984724D01*
X11399057D01*
Y8986320D01*
X11397461D01*
Y8989512D01*
X11395864D01*
Y8991109D01*
X11394268D01*
Y8994301D01*
X11392672D01*
Y8997494D01*
X11391076D01*
Y8995898D01*
X11389479D01*
Y8994301D01*
X11387883D01*
Y8991109D01*
X11386287D01*
Y8987916D01*
X11384691D01*
Y8984724D01*
X11383094D01*
Y8981531D01*
X11381498D01*
Y8978339D01*
X11379902D01*
Y8975146D01*
X11378305D01*
Y8971954D01*
X11376709D01*
Y8968761D01*
X11375113D01*
Y8965568D01*
X11373517D01*
Y8962376D01*
X11371920D01*
Y8959183D01*
X11370324D01*
Y8955991D01*
X11368728D01*
Y8952798D01*
X11367132D01*
Y8949606D01*
X11365535D01*
Y8946413D01*
X11363939D01*
Y8943221D01*
X11362343D01*
Y8940028D01*
X11360747D01*
Y8936836D01*
X11359150D01*
Y8933643D01*
X11357554D01*
Y8930451D01*
X11355958D01*
Y8927258D01*
X11354361D01*
Y8924065D01*
X11352765D01*
Y8920873D01*
X11351169D01*
Y8917680D01*
X11349573D01*
Y8914488D01*
X11347976D01*
Y8911295D01*
X11346380D01*
Y8908103D01*
X11344784D01*
Y8904910D01*
X11343188D01*
Y8901718D01*
X11341591D01*
Y8898525D01*
X11339995D01*
Y8895332D01*
X11338399D01*
Y8892140D01*
X11336803D01*
Y8890544D01*
X11335206D01*
Y8887351D01*
X11332014D01*
Y8885755D01*
X11330417D01*
Y8884159D01*
X11327225D01*
Y8882562D01*
X11261778D01*
Y8879370D01*
X11260181D01*
Y8874581D01*
X11258585D01*
Y8868196D01*
X11256989D01*
Y8865003D01*
X11255393D01*
Y8861811D01*
X11253796D01*
Y8857022D01*
X11252200D01*
Y8855426D01*
X11250604D01*
Y8852233D01*
X11249007D01*
Y8849041D01*
X11247411D01*
Y8847444D01*
X11245815D01*
Y8845848D01*
X11244219D01*
Y8842656D01*
X11242622D01*
Y8841059D01*
X11241026D01*
Y8839463D01*
X11239430D01*
Y8837867D01*
X11237834D01*
Y8834674D01*
X11234641D01*
Y8831482D01*
X11231449D01*
Y8829885D01*
X11229852D01*
Y8828289D01*
X11228256D01*
Y8826693D01*
X11226660D01*
Y8825097D01*
X11223467D01*
Y8823500D01*
X11221871D01*
Y8821904D01*
X11220275D01*
Y8820308D01*
X11217082D01*
Y8818712D01*
X11213890D01*
Y8817115D01*
X11212293D01*
Y8815519D01*
X11207505D01*
Y8813923D01*
X11204312D01*
Y8812327D01*
X11201120D01*
Y8810730D01*
X11194734D01*
Y8809134D01*
X11189946D01*
Y8807538D01*
X11181964D01*
Y8805941D01*
X11153231D01*
Y8807538D01*
X11145250D01*
Y8809134D01*
X11140461D01*
Y8810730D01*
X11134076D01*
Y8812327D01*
X11130884D01*
Y8813923D01*
X11127691D01*
Y8815519D01*
X11122902D01*
Y8817115D01*
X11121306D01*
Y8818712D01*
X11118113D01*
Y8820308D01*
X11114921D01*
Y8821904D01*
X11113324D01*
Y8823500D01*
X11111728D01*
Y8825097D01*
X11108536D01*
Y8826693D01*
X11106939D01*
Y8828289D01*
X11105343D01*
Y8829885D01*
X11103747D01*
Y8831482D01*
X11102151D01*
Y8833078D01*
X11100554D01*
Y8834674D01*
X11097362D01*
Y8837867D01*
X11095766D01*
Y8839463D01*
X11094169D01*
Y8841059D01*
X11092573D01*
Y8842656D01*
X11090977D01*
Y8845848D01*
X11089380D01*
Y8847444D01*
X11087784D01*
Y8849041D01*
X11086188D01*
Y8852233D01*
X11084592D01*
Y8855426D01*
X11082995D01*
Y8857022D01*
X11081399D01*
Y8861811D01*
X11079803D01*
Y8865003D01*
X11078207D01*
Y8868196D01*
X11076610D01*
Y8874581D01*
X11075014D01*
Y8879370D01*
X11073418D01*
Y8887351D01*
X11071822D01*
Y8916084D01*
X11073418D01*
Y8924065D01*
X11075014D01*
Y8928854D01*
X11076610D01*
Y8935239D01*
X11078207D01*
Y8938432D01*
X11079803D01*
Y8941624D01*
X11081399D01*
Y8944817D01*
X11082995D01*
Y8948010D01*
X11084592D01*
Y8951202D01*
X11086188D01*
Y8954395D01*
X11087784D01*
Y8955991D01*
X11089380D01*
Y8957587D01*
X11090977D01*
Y8960780D01*
X11092573D01*
Y8962376D01*
X11094169D01*
Y8963972D01*
X11095766D01*
Y8965568D01*
X11097362D01*
Y8967165D01*
X11098958D01*
Y8968761D01*
X11100554D01*
Y8971954D01*
X11103747D01*
Y8973550D01*
X11105343D01*
Y8975146D01*
X11106939D01*
Y8976742D01*
X11108536D01*
Y8978339D01*
X11111728D01*
Y8979935D01*
X11113324D01*
Y8981531D01*
X11114921D01*
Y8983127D01*
X11118113D01*
Y8984724D01*
X11121306D01*
Y8986320D01*
X11122902D01*
Y8987916D01*
X11127691D01*
Y8989512D01*
X11130884D01*
Y8991109D01*
X11134076D01*
Y8992705D01*
X11140461D01*
Y8994301D01*
X11145250D01*
Y8995898D01*
X11153231D01*
Y8997494D01*
X11180368D01*
Y8995898D01*
X11188349D01*
Y8994301D01*
X11191542D01*
Y8995898D01*
X11193138D01*
Y8997494D01*
X11194734D01*
Y9000686D01*
X11196331D01*
Y9003879D01*
X11197927D01*
Y9007071D01*
X11199523D01*
Y9010264D01*
X11201120D01*
Y9013456D01*
X11202716D01*
Y9016649D01*
X11204312D01*
Y9019841D01*
X11205908D01*
Y9023034D01*
X11207505D01*
Y9026227D01*
X11209101D01*
Y9029419D01*
X11210697D01*
Y9032612D01*
X11212293D01*
Y9035804D01*
X11213890D01*
Y9038997D01*
X11215486D01*
Y9042189D01*
X11217082D01*
Y9045382D01*
X11218678D01*
Y9048574D01*
X11220275D01*
Y9051767D01*
X11221871D01*
Y9058152D01*
X11220275D01*
Y9061345D01*
X11218678D01*
Y9064537D01*
X11217082D01*
Y9067730D01*
X11215486D01*
Y9070922D01*
X11213890D01*
Y9074115D01*
X11212293D01*
Y9077307D01*
X11210697D01*
Y9080500D01*
X11209101D01*
Y9083693D01*
X11207505D01*
Y9086885D01*
X11205908D01*
Y9090078D01*
X11204312D01*
Y9093270D01*
X11202716D01*
Y9096463D01*
X11201120D01*
Y9099655D01*
X11199523D01*
Y9102848D01*
X11197927D01*
Y9106040D01*
X11196331D01*
Y9109233D01*
X11194734D01*
Y9110829D01*
X11193138D01*
Y9112425D01*
X11167598D01*
Y9150736D01*
X11282529D01*
Y9112425D01*
X11237834D01*
Y9109233D01*
X11239430D01*
Y9106040D01*
X11241026D01*
Y9102848D01*
X11242622D01*
Y9099655D01*
X11244219D01*
Y9096463D01*
X11245815D01*
Y9093270D01*
X11247411D01*
Y9090078D01*
X11249007D01*
Y9086885D01*
X11250604D01*
Y9083693D01*
X11252200D01*
Y9080500D01*
X11253796D01*
Y9077307D01*
X11255393D01*
Y9075711D01*
X11256989D01*
Y9074115D01*
X11384691D01*
Y9075711D01*
X11386287D01*
Y9077307D01*
X11387883D01*
Y9080500D01*
X11389479D01*
Y9083693D01*
X11391076D01*
Y9086885D01*
X11392672D01*
Y9090078D01*
X11394268D01*
Y9093270D01*
X11395864D01*
Y9096463D01*
X11397461D01*
Y9099655D01*
X11399057D01*
Y9102848D01*
X11400653D01*
Y9106040D01*
X11402249D01*
Y9109233D01*
X11403846D01*
Y9112425D01*
X11405442D01*
Y9115618D01*
X11407038D01*
Y9118810D01*
X11408635D01*
Y9122003D01*
X11410231D01*
Y9125195D01*
X11411827D01*
Y9128388D01*
X11413423D01*
Y9131581D01*
X11415020D01*
Y9134773D01*
X11416616D01*
Y9137966D01*
X11418212D01*
Y9141158D01*
X11419809D01*
Y9144351D01*
X11421405D01*
Y9145947D01*
X11424597D01*
Y9147543D01*
X11426194D01*
Y9149139D01*
X11429386D01*
Y9150736D01*
X11485256D01*
Y9149139D01*
D02*
G37*
%LPC*%
G36*
X11365535Y9035804D02*
X11276144D01*
Y9032612D01*
X11277740D01*
Y9029419D01*
X11279337D01*
Y9026227D01*
X11280933D01*
Y9023034D01*
X11282529D01*
Y9019841D01*
X11284126D01*
Y9016649D01*
X11285722D01*
Y9013456D01*
X11287318D01*
Y9010264D01*
X11288914D01*
Y9007071D01*
X11290511D01*
Y9003879D01*
X11292107D01*
Y9000686D01*
X11293703D01*
Y8997494D01*
X11295299D01*
Y8994301D01*
X11296896D01*
Y8991109D01*
X11298492D01*
Y8987916D01*
X11300088D01*
Y8984724D01*
X11301685D01*
Y8981531D01*
X11303281D01*
Y8978339D01*
X11304877D01*
Y8975146D01*
X11306473D01*
Y8971954D01*
X11308070D01*
Y8968761D01*
X11309666D01*
Y8965568D01*
X11311262D01*
Y8962376D01*
X11312859D01*
Y8959183D01*
X11314455D01*
Y8955991D01*
X11316051D01*
Y8952798D01*
X11317647D01*
Y8949606D01*
X11319244D01*
Y8948010D01*
X11322436D01*
Y8949606D01*
X11324032D01*
Y8952798D01*
X11325629D01*
Y8955991D01*
X11327225D01*
Y8959183D01*
X11328821D01*
Y8962376D01*
X11330417D01*
Y8965568D01*
X11332014D01*
Y8968761D01*
X11333610D01*
Y8971954D01*
X11335206D01*
Y8975146D01*
X11336803D01*
Y8978339D01*
X11338399D01*
Y8981531D01*
X11339995D01*
Y8984724D01*
X11341591D01*
Y8987916D01*
X11343188D01*
Y8989512D01*
Y8991109D01*
X11344784D01*
Y8994301D01*
X11346380D01*
Y8997494D01*
X11347976D01*
Y9000686D01*
X11349573D01*
Y9003879D01*
X11351169D01*
Y9007071D01*
X11352765D01*
Y9010264D01*
X11354361D01*
Y9013456D01*
X11355958D01*
Y9016649D01*
X11357554D01*
Y9019841D01*
X11359150D01*
Y9023034D01*
X11360747D01*
Y9026227D01*
X11362343D01*
Y9029419D01*
X11363939D01*
Y9032612D01*
X11365535D01*
Y9035804D01*
D02*
G37*
G36*
X11245815Y9008668D02*
X11242622D01*
Y9007071D01*
X11241026D01*
Y9003879D01*
X11239430D01*
Y9000686D01*
X11237834D01*
Y8997494D01*
X11236237D01*
Y8994301D01*
X11234641D01*
Y8991109D01*
X11233045D01*
Y8987916D01*
X11231449D01*
Y8984724D01*
X11229852D01*
Y8981531D01*
X11228256D01*
Y8978339D01*
X11226660D01*
Y8976742D01*
X11228256D01*
Y8975146D01*
X11229852D01*
Y8973550D01*
X11231449D01*
Y8971954D01*
X11233045D01*
Y8970357D01*
X11234641D01*
Y8968761D01*
X11236237D01*
Y8967165D01*
X11237834D01*
Y8965568D01*
X11239430D01*
Y8963972D01*
X11241026D01*
Y8962376D01*
X11242622D01*
Y8960780D01*
X11244219D01*
Y8957587D01*
X11245815D01*
Y8955991D01*
X11247411D01*
Y8952798D01*
X11249007D01*
Y8951202D01*
X11250604D01*
Y8948010D01*
X11252200D01*
Y8944817D01*
X11253796D01*
Y8941624D01*
X11255393D01*
Y8938432D01*
X11256989D01*
Y8935239D01*
X11258585D01*
Y8928854D01*
X11260181D01*
Y8924065D01*
X11261778D01*
Y8920873D01*
X11288914D01*
Y8924065D01*
X11287318D01*
Y8927258D01*
X11285722D01*
Y8930451D01*
X11284126D01*
Y8933643D01*
X11282529D01*
Y8936836D01*
X11280933D01*
Y8940028D01*
X11279337D01*
Y8943221D01*
X11277740D01*
Y8946413D01*
X11276144D01*
Y8949606D01*
X11274548D01*
Y8952798D01*
X11272952D01*
Y8955991D01*
X11271355D01*
Y8959183D01*
X11269759D01*
Y8962376D01*
X11268163D01*
Y8965568D01*
X11266566D01*
Y8968761D01*
X11264970D01*
Y8971954D01*
X11263374D01*
Y8975146D01*
X11261778D01*
Y8978339D01*
X11260181D01*
Y8981531D01*
X11258585D01*
Y8984724D01*
X11256989D01*
Y8987916D01*
X11255393D01*
Y8991109D01*
X11253796D01*
Y8994301D01*
X11252200D01*
Y8997494D01*
X11250604D01*
Y9000686D01*
X11249007D01*
Y9003879D01*
X11247411D01*
Y9007071D01*
X11245815D01*
Y9008668D01*
D02*
G37*
G36*
X11210697Y8940028D02*
X11209101D01*
Y8938432D01*
X11207505D01*
Y8936836D01*
X11205908D01*
Y8935239D01*
Y8933643D01*
X11204312D01*
Y8930451D01*
X11202716D01*
Y8927258D01*
X11201120D01*
Y8924065D01*
X11199523D01*
Y8920873D01*
X11220275D01*
Y8925662D01*
X11218678D01*
Y8928854D01*
X11217082D01*
Y8930451D01*
X11215486D01*
Y8933643D01*
X11213890D01*
Y8936836D01*
X11212293D01*
Y8938432D01*
X11210697D01*
Y8940028D01*
D02*
G37*
G36*
X11483659Y8959183D02*
X11466101D01*
Y8957587D01*
X11462908D01*
Y8954395D01*
X11464504D01*
Y8952798D01*
X11466101D01*
Y8949606D01*
X11467697D01*
Y8948010D01*
X11469293D01*
Y8944817D01*
X11470889D01*
Y8941624D01*
X11472486D01*
Y8940028D01*
X11474082D01*
Y8936836D01*
X11475678D01*
Y8935239D01*
X11477274D01*
Y8932047D01*
X11478871D01*
Y8928854D01*
X11480467D01*
Y8927258D01*
X11482063D01*
Y8924065D01*
X11483659D01*
Y8920873D01*
X11485256D01*
Y8919277D01*
X11486852D01*
Y8916084D01*
X11488448D01*
Y8914488D01*
X11490045D01*
Y8911295D01*
X11491641D01*
Y8908103D01*
X11493237D01*
Y8895332D01*
X11491641D01*
Y8892140D01*
X11490045D01*
Y8890544D01*
X11488448D01*
Y8887351D01*
X11485256D01*
Y8885755D01*
X11483659D01*
Y8884159D01*
X11480467D01*
Y8882562D01*
X11467697D01*
Y8884159D01*
X11464504D01*
Y8885755D01*
X11462908D01*
Y8887351D01*
X11459715D01*
Y8890544D01*
X11458119D01*
Y8892140D01*
X11456523D01*
Y8893736D01*
X11454927D01*
Y8896929D01*
X11453330D01*
Y8900121D01*
X11451734D01*
Y8901718D01*
X11450138D01*
Y8904910D01*
X11448541D01*
Y8906506D01*
X11446945D01*
Y8909699D01*
X11445349D01*
Y8912891D01*
X11443753D01*
Y8914488D01*
X11442156D01*
Y8917680D01*
X11440560D01*
Y8920873D01*
X11438964D01*
Y8922469D01*
X11437368D01*
Y8924065D01*
Y8925662D01*
X11435771D01*
Y8927258D01*
X11434175D01*
Y8930451D01*
X11432579D01*
Y8932047D01*
X11430982D01*
Y8935239D01*
X11427790D01*
Y8933643D01*
X11426194D01*
Y8930451D01*
X11424597D01*
Y8928854D01*
X11423001D01*
Y8925662D01*
X11421405D01*
Y8920873D01*
X11419809D01*
Y8916084D01*
X11418212D01*
Y8909699D01*
X11416616D01*
Y8892140D01*
X11418212D01*
Y8885755D01*
X11419809D01*
Y8880966D01*
X11421405D01*
Y8877773D01*
X11423001D01*
Y8874581D01*
X11424597D01*
Y8871388D01*
X11426194D01*
Y8868196D01*
X11427790D01*
Y8866600D01*
X11429386D01*
Y8865003D01*
X11430982D01*
Y8863407D01*
X11432579D01*
Y8861811D01*
X11434175D01*
Y8860214D01*
X11435771D01*
Y8858618D01*
X11437368D01*
Y8857022D01*
X11438964D01*
Y8855426D01*
X11440560D01*
Y8853829D01*
X11443753D01*
Y8852233D01*
X11446945D01*
Y8850637D01*
X11450138D01*
Y8849041D01*
X11453330D01*
Y8847444D01*
X11458119D01*
Y8845848D01*
X11464504D01*
Y8844252D01*
X11483659D01*
Y8845848D01*
X11490045D01*
Y8847444D01*
X11494833D01*
Y8849041D01*
X11499622D01*
Y8850637D01*
X11501218D01*
Y8852233D01*
X11504411D01*
Y8853829D01*
X11507603D01*
Y8855426D01*
X11509200D01*
Y8857022D01*
X11510796D01*
Y8858618D01*
X11512392D01*
Y8860214D01*
X11513988D01*
Y8861811D01*
X11515585D01*
Y8863407D01*
X11517181D01*
Y8865003D01*
X11518777D01*
Y8866600D01*
X11520374D01*
Y8868196D01*
X11521970D01*
Y8871388D01*
X11523566D01*
Y8874581D01*
X11525162D01*
Y8876177D01*
X11526759D01*
Y8880966D01*
X11528355D01*
Y8885755D01*
X11529951D01*
Y8890544D01*
X11531547D01*
Y8912891D01*
X11529951D01*
Y8917680D01*
X11528355D01*
Y8922469D01*
X11526759D01*
Y8927258D01*
X11525162D01*
Y8928854D01*
X11523566D01*
Y8932047D01*
X11521970D01*
Y8935239D01*
X11520374D01*
Y8936836D01*
X11518777D01*
Y8938432D01*
X11517181D01*
Y8940028D01*
X11515585D01*
Y8941624D01*
X11513988D01*
Y8943221D01*
X11512392D01*
Y8944817D01*
X11510796D01*
Y8946413D01*
X11509200D01*
Y8948010D01*
X11507603D01*
Y8949606D01*
X11504411D01*
Y8951202D01*
X11501218D01*
Y8952798D01*
X11498026D01*
Y8954395D01*
X11494833D01*
Y8955991D01*
X11490045D01*
Y8957587D01*
X11483659D01*
Y8959183D01*
D02*
G37*
G36*
X11172387D02*
X11158020D01*
Y8957587D01*
X11151635D01*
Y8955991D01*
X11146846D01*
Y8954395D01*
X11143654D01*
Y8952798D01*
X11140461D01*
Y8951202D01*
X11137269D01*
Y8949606D01*
X11134076D01*
Y8948010D01*
X11132480D01*
Y8946413D01*
X11130884D01*
Y8944817D01*
X11129287D01*
Y8943221D01*
X11127691D01*
Y8941624D01*
X11126095D01*
Y8940028D01*
X11124498D01*
Y8938432D01*
X11122902D01*
Y8936836D01*
X11121306D01*
Y8935239D01*
X11119710D01*
Y8932047D01*
X11118113D01*
Y8928854D01*
X11116517D01*
Y8925662D01*
X11114921D01*
Y8922469D01*
X11113324D01*
Y8917680D01*
X11111728D01*
Y8911295D01*
X11110132D01*
Y8892140D01*
X11111728D01*
Y8887351D01*
X11113324D01*
Y8880966D01*
X11114921D01*
Y8877773D01*
X11116517D01*
Y8874581D01*
X11118113D01*
Y8871388D01*
X11119710D01*
Y8868196D01*
X11121306D01*
Y8866600D01*
X11122902D01*
Y8865003D01*
X11124498D01*
Y8863407D01*
X11126095D01*
Y8861811D01*
X11127691D01*
Y8860214D01*
X11129287D01*
Y8858618D01*
X11130884D01*
Y8857022D01*
X11132480D01*
Y8855426D01*
X11134076D01*
Y8853829D01*
X11137269D01*
Y8852233D01*
X11140461D01*
Y8850637D01*
X11143654D01*
Y8849041D01*
X11146846D01*
Y8847444D01*
X11153231D01*
Y8845848D01*
X11158020D01*
Y8844252D01*
X11175579D01*
Y8845848D01*
X11181964D01*
Y8847444D01*
X11186753D01*
Y8849041D01*
X11191542D01*
Y8850637D01*
X11194734D01*
Y8852233D01*
X11196331D01*
Y8853829D01*
X11199523D01*
Y8855426D01*
X11201120D01*
Y8857022D01*
X11204312D01*
Y8858618D01*
X11205908D01*
Y8860214D01*
X11207505D01*
Y8861811D01*
X11209101D01*
Y8863407D01*
X11210697D01*
Y8865003D01*
X11212293D01*
Y8868196D01*
X11213890D01*
Y8869792D01*
X11215486D01*
Y8872985D01*
X11217082D01*
Y8874581D01*
X11218678D01*
Y8877773D01*
X11220275D01*
Y8882562D01*
X11161213D01*
Y8884159D01*
X11158020D01*
Y8885755D01*
X11156424D01*
Y8887351D01*
X11153231D01*
Y8890544D01*
X11151635D01*
Y8892140D01*
X11150039D01*
Y8895332D01*
X11148443D01*
Y8908103D01*
X11150039D01*
Y8911295D01*
X11151635D01*
Y8914488D01*
X11153231D01*
Y8917680D01*
X11154828D01*
Y8920873D01*
X11156424D01*
Y8924065D01*
X11158020D01*
Y8927258D01*
X11159616D01*
Y8930451D01*
X11161213D01*
Y8933643D01*
X11162809D01*
Y8936836D01*
X11164405D01*
Y8940028D01*
X11166002D01*
Y8943221D01*
X11167598D01*
Y8946413D01*
X11169194D01*
Y8949606D01*
X11170790D01*
Y8952798D01*
X11172387D01*
Y8959183D01*
D02*
G37*
%LPD*%
D44*
X12976700Y8739400D02*
G03*
X12976700Y8739400I-10000J0D01*
G01*
X13027499Y10911100D02*
G03*
X13027499Y10911100I-10000J0D01*
G01*
X11167800Y7560500D02*
G03*
X11167800Y7560500I-512500J0D01*
G01*
X9837000Y10263000D02*
G03*
X9837000Y10263000I-10000J0D01*
G01*
X11889200Y10032500D02*
G03*
X11889200Y10032500I-10000J0D01*
G01*
X15391200Y7920000D02*
G03*
X15381200Y7920000I-5000J0D01*
G01*
D02*
G03*
X15391200Y7920000I5000J0D01*
G01*
D02*
G03*
X15381200Y7920000I-5000J0D01*
G01*
X8796000Y7930900D02*
G03*
X8796000Y7930900I-10000J0D01*
G01*
X11888100Y8506300D02*
G03*
X11888100Y8506300I-10000J0D01*
G01*
X8770600Y6711700D02*
G03*
X8770600Y6711700I-10000J0D01*
G01*
X9605900Y6450400D02*
Y6960800D01*
X9875900Y6450400D02*
Y6998100D01*
X14073900Y7592700D02*
X14240900D01*
X14073900Y7672700D02*
X14193900D01*
X13770300Y7592700D02*
X13890300D01*
X13723300Y7672700D02*
X13890300D01*
X12558400Y10561000D02*
Y10728000D01*
X12638400Y10608000D02*
Y10728000D01*
X12533000Y9024300D02*
Y9191300D01*
X12613000Y9071300D02*
Y9191300D01*
X7438300Y10492900D02*
Y11588900D01*
X8438300D01*
Y10492900D02*
Y11588900D01*
X7438300Y10492900D02*
X8438300D01*
X15591400Y10463100D02*
X16266400D01*
Y8663100D02*
Y10463100D01*
X15591400Y8663100D02*
X16266400D01*
X13716400D02*
X13791400D01*
X13716400D02*
Y8913100D01*
Y10213100D02*
Y10463100D01*
X13791400D01*
X13386000Y6515300D02*
X14541499D01*
X13386000D02*
Y6794300D01*
X14681000D01*
Y6654800D02*
Y6794300D01*
X9334700Y11557000D02*
Y11697000D01*
X10405700D01*
Y11432000D02*
Y11697000D01*
X9474200Y11432000D02*
X10405700D01*
X7425600Y8892700D02*
Y9988700D01*
X8425600D01*
Y8892700D02*
Y9988700D01*
X7425600Y8892700D02*
X8425600D01*
X9863200Y7834700D02*
Y8345100D01*
X9593200Y7797400D02*
Y8345100D01*
D45*
X8008300Y10436900D02*
G03*
X8008300Y10446900I0J5000D01*
G01*
D02*
G03*
X8008300Y10436900I0J-5000D01*
G01*
X15517400Y10573100D02*
G03*
X15517400Y10563100I0J-5000D01*
G01*
D02*
G03*
X15517400Y10573100I0J5000D01*
G01*
X7995600Y8836700D02*
G03*
X7995600Y8846700I0J5000D01*
G01*
D02*
G03*
X7995600Y8836700I0J-5000D01*
G01*
X7433600Y8378500D02*
X7598600D01*
X7433600D02*
X7598600D01*
X7433600Y7578500D02*
X7598600D01*
X7433600D02*
X7598600D01*
X7433600D02*
Y8378500D01*
Y7578500D02*
Y8378500D01*
X7420900Y7217000D02*
X7585900D01*
X7420900D02*
X7585900D01*
X7420900Y6417000D02*
X7585900D01*
X7420900D02*
X7585900D01*
X7420900D02*
Y7217000D01*
Y6417000D02*
Y7217000D01*
X9100400Y10340700D02*
Y10475700D01*
X8850400D02*
X9100400D01*
X8850400Y9820700D02*
Y10475700D01*
X9100400Y9485700D02*
Y10140700D01*
X8850400Y9485700D02*
X9100400D01*
X8850400D02*
Y9640700D01*
X15641200Y8220000D02*
X15751199D01*
X15641200D02*
X15751199D01*
X15641200Y8045000D02*
Y8220000D01*
Y8045000D02*
Y8220000D01*
X16151199D02*
X16261200D01*
X16151199D02*
X16261200D01*
Y7020000D02*
Y8220000D01*
Y7020000D02*
Y8220000D01*
X16151199Y7020000D02*
X16261200D01*
X16151199D02*
X16261200D01*
X15641200D02*
X15751199D01*
X15641200D02*
X15751199D01*
X15641200D02*
Y7195000D01*
Y7020000D02*
Y7195000D01*
Y7220000D01*
Y7195000D02*
Y7220000D01*
X11628500Y6497400D02*
X12428500D01*
X11628500D02*
X12428500D01*
Y6662400D01*
Y6497400D02*
Y6662400D01*
X11628500Y6497400D02*
Y6662400D01*
Y6497400D02*
Y6662400D01*
D46*
X12279200Y10657500D02*
G03*
X12279200Y10657500I-175000J0D01*
G01*
X12278100Y9131300D02*
G03*
X12278100Y9131300I-175000J0D01*
G01*
X10938500Y9852000D02*
Y9960000D01*
X10778500Y9852000D02*
Y9960000D01*
X12904201Y8902400D02*
Y8928400D01*
X13029201Y8902400D02*
Y8928400D01*
X12955000Y11074100D02*
Y11100100D01*
X13080000Y11074100D02*
Y11100100D01*
X10112000Y9708000D02*
X10462000D01*
Y9832000D01*
X10112000Y10358000D02*
X10462000D01*
Y10234000D02*
Y10358000D01*
X12404174Y10358288D02*
Y10957728D01*
X11804480D02*
X12404174D01*
X11804480Y10357526D02*
Y10957728D01*
Y10357526D02*
X12403920D01*
X9422400Y7113200D02*
Y7136200D01*
X9297400Y7113200D02*
Y7136200D01*
X14161700Y11253200D02*
X14184700D01*
X14161700Y11378200D02*
X14184700D01*
X14149001Y11494500D02*
X14172000D01*
X14149001Y11619500D02*
X14172000D01*
X13767999Y11494500D02*
X13791000D01*
X13767999Y11619500D02*
X13791000D01*
X12040800Y7847600D02*
X12063800D01*
X12040800Y7722600D02*
X12063800D01*
X13245100Y8662600D02*
Y8685600D01*
X13120100Y8662600D02*
Y8685600D01*
X13295900Y10847000D02*
Y10870000D01*
X13170900Y10847000D02*
Y10870000D01*
X10237400Y11151600D02*
X10260400D01*
X10237400Y11276600D02*
X10260400D01*
X11149600Y9767500D02*
Y9790500D01*
X11024600Y9767500D02*
Y9790500D01*
X10453300Y9536700D02*
X10476300D01*
X10453300Y9411700D02*
X10476300D01*
X14745700Y10847000D02*
Y10870000D01*
X14870700Y10847000D02*
Y10870000D01*
X14504601Y7862300D02*
X14527600D01*
X14504601Y7987300D02*
X14527600D01*
X13463200Y7862300D02*
X13486200D01*
X13463200Y7987300D02*
X13486200D01*
X13958501Y8154400D02*
X13981500D01*
X13958501Y8279400D02*
X13981500D01*
X8927000Y7990900D02*
X9107000D01*
X8927000Y7680900D02*
X9107000D01*
X11803380Y8831326D02*
X12402820D01*
X11803380D02*
Y9431528D01*
X12403074D01*
Y8832088D02*
Y9431528D01*
X8967400Y8457200D02*
X8990400D01*
X8967400Y8332200D02*
X8990400D01*
X8980100Y7263400D02*
X9003100D01*
X8980100Y7138400D02*
X9003100D01*
X9322800Y8510200D02*
Y8533200D01*
X9447800Y8510200D02*
Y8533200D01*
X8901600Y6771700D02*
X9081600D01*
X8901600Y6461700D02*
X9081600D01*
D47*
X10224221Y9174335D02*
X10233743Y9202900D01*
Y9145770D01*
X10224221Y9174335D01*
X10205177Y9193378D01*
X10176612Y9202900D01*
X10148047D01*
X10119481Y9193378D01*
X10100438Y9174335D01*
Y9155291D01*
X10109959Y9136248D01*
X10119481Y9126726D01*
X10138525Y9117204D01*
X10195656Y9098161D01*
X10214699Y9088639D01*
X10233743Y9069595D01*
X10100438Y9155291D02*
X10119481Y9136248D01*
X10138525Y9126726D01*
X10195656Y9107682D01*
X10214699Y9098161D01*
X10224221Y9088639D01*
X10233743Y9069595D01*
Y9031508D01*
X10214699Y9012465D01*
X10186134Y9002943D01*
X10157568D01*
X10129003Y9012465D01*
X10109959Y9031508D01*
X10100438Y9060074D01*
Y9002943D01*
X10109959Y9031508D01*
X10291825Y9202900D02*
X10282304Y9193378D01*
X10291825Y9183857D01*
X10301347Y9193378D01*
X10291825Y9202900D01*
Y9136248D02*
Y9002943D01*
X10301347Y9136248D02*
Y9002943D01*
X10263260Y9136248D02*
X10301347D01*
X10263260Y9002943D02*
X10329913D01*
X10385139Y9136248D02*
X10489878Y9002943D01*
X10394661Y9136248D02*
X10499400Y9002943D01*
Y9136248D02*
X10385139Y9002943D01*
X10366095Y9136248D02*
X10423226D01*
X10461313D02*
X10518444D01*
X10366095Y9002943D02*
X10423226D01*
X10461313D02*
X10518444D01*
X10603188D02*
X10593666Y9012465D01*
X10584144Y9041030D01*
Y9202900D01*
X10574622D01*
Y9041030D01*
X10584144Y9012465D01*
X10603188Y9002943D01*
X10622231D01*
X10641275Y9012465D01*
X10650796Y9031508D01*
X10546057Y9136248D02*
X10622231D01*
X10711736Y9202900D02*
Y9002943D01*
X10721257Y9202900D02*
Y9002943D01*
Y9107682D02*
X10740301Y9126726D01*
X10768866Y9136248D01*
X10787910D01*
X10816475Y9126726D01*
X10825997Y9107682D01*
Y9002943D01*
X10787910Y9136248D02*
X10806953Y9126726D01*
X10816475Y9107682D01*
Y9002943D01*
X10683170Y9202900D02*
X10721257D01*
X10683170Y9002943D02*
X10749823D01*
X10787910D02*
X10854562D01*
X10213747Y8862386D02*
X10223269Y8890951D01*
Y8833821D01*
X10213747Y8862386D01*
X10194703Y8881430D01*
X10166138Y8890951D01*
X10137573D01*
X10109007Y8881430D01*
X10089964Y8862386D01*
Y8843343D01*
X10099486Y8824299D01*
X10109007Y8814777D01*
X10128051Y8805256D01*
X10185182Y8786212D01*
X10204225Y8776690D01*
X10223269Y8757647D01*
X10089964Y8843343D02*
X10109007Y8824299D01*
X10128051Y8814777D01*
X10185182Y8795734D01*
X10204225Y8786212D01*
X10213747Y8776690D01*
X10223269Y8757647D01*
Y8719560D01*
X10204225Y8700516D01*
X10175660Y8690994D01*
X10147095D01*
X10118529Y8700516D01*
X10099486Y8719560D01*
X10089964Y8748125D01*
Y8690994D01*
X10099486Y8719560D01*
X10262308Y8767168D02*
X10376569D01*
Y8786212D01*
X10367048Y8805256D01*
X10357526Y8814777D01*
X10338482Y8824299D01*
X10309917D01*
X10281352Y8814777D01*
X10262308Y8795734D01*
X10252786Y8767168D01*
Y8748125D01*
X10262308Y8719560D01*
X10281352Y8700516D01*
X10309917Y8690994D01*
X10328960D01*
X10357526Y8700516D01*
X10376569Y8719560D01*
X10367048Y8767168D02*
Y8795734D01*
X10357526Y8814777D01*
X10309917Y8824299D02*
X10290873Y8814777D01*
X10271830Y8795734D01*
X10262308Y8767168D01*
Y8748125D01*
X10271830Y8719560D01*
X10290873Y8700516D01*
X10309917Y8690994D01*
X10435604Y8824299D02*
Y8690994D01*
X10445126Y8824299D02*
Y8690994D01*
Y8795734D02*
X10464170Y8814777D01*
X10492735Y8824299D01*
X10511778D01*
X10540344Y8814777D01*
X10549866Y8795734D01*
Y8690994D01*
X10511778Y8824299D02*
X10530822Y8814777D01*
X10540344Y8795734D01*
Y8690994D01*
X10407039Y8824299D02*
X10445126D01*
X10407039Y8690994D02*
X10473691D01*
X10511778D02*
X10578431D01*
X10699357Y8805256D02*
X10708879Y8824299D01*
Y8786212D01*
X10699357Y8805256D01*
X10689836Y8814777D01*
X10670792Y8824299D01*
X10632705D01*
X10613661Y8814777D01*
X10604140Y8805256D01*
Y8786212D01*
X10613661Y8776690D01*
X10632705Y8767168D01*
X10680314Y8748125D01*
X10699357Y8738603D01*
X10708879Y8729081D01*
X10604140Y8795734D02*
X10613661Y8786212D01*
X10632705Y8776690D01*
X10680314Y8757647D01*
X10699357Y8748125D01*
X10708879Y8738603D01*
Y8710038D01*
X10699357Y8700516D01*
X10680314Y8690994D01*
X10642227D01*
X10623183Y8700516D01*
X10613661Y8710038D01*
X10604140Y8729081D01*
Y8690994D01*
X10613661Y8710038D01*
X10750775Y8767168D02*
X10865036D01*
Y8786212D01*
X10855514Y8805256D01*
X10845993Y8814777D01*
X10826949Y8824299D01*
X10798384D01*
X10769818Y8814777D01*
X10750775Y8795734D01*
X10741253Y8767168D01*
Y8748125D01*
X10750775Y8719560D01*
X10769818Y8700516D01*
X10798384Y8690994D01*
X10817427D01*
X10845993Y8700516D01*
X10865036Y8719560D01*
X10855514Y8767168D02*
Y8795734D01*
X10845993Y8814777D01*
X10798384Y8824299D02*
X10779340Y8814777D01*
X10760297Y8795734D01*
X10750775Y8767168D01*
Y8748125D01*
X10760297Y8719560D01*
X10779340Y8700516D01*
X10798384Y8690994D01*
D48*
X9832340Y10614611D02*
Y10487652D01*
X9857732Y10462260D01*
X9908515D01*
X9933907Y10487652D01*
Y10614611D01*
X9984691Y10462260D02*
X10035474D01*
X10010083D01*
Y10614611D01*
X9984691Y10589219D01*
X11902407Y11455359D02*
X11877015Y11480751D01*
X11826232D01*
X11800840Y11455359D01*
Y11429967D01*
X11826232Y11404575D01*
X11877015D01*
X11902407Y11379183D01*
Y11353792D01*
X11877015Y11328400D01*
X11826232D01*
X11800840Y11353792D01*
X11953191Y11480751D02*
Y11328400D01*
X12003974Y11379183D01*
X12054758Y11328400D01*
Y11480751D01*
X12207109Y11328400D02*
X12105541D01*
X12207109Y11429967D01*
Y11455359D01*
X12181717Y11480751D01*
X12130933D01*
X12105541Y11455359D01*
X11902407Y9928819D02*
X11877015Y9954211D01*
X11826232D01*
X11800840Y9928819D01*
Y9903427D01*
X11826232Y9878035D01*
X11877015D01*
X11902407Y9852643D01*
Y9827252D01*
X11877015Y9801860D01*
X11826232D01*
X11800840Y9827252D01*
X11953191Y9954211D02*
Y9801860D01*
X12003974Y9852643D01*
X12054758Y9801860D01*
Y9954211D01*
X12105541Y9801860D02*
X12156325D01*
X12130933D01*
Y9954211D01*
X12105541Y9928819D01*
X8834120Y8569960D02*
Y8722311D01*
X8910295D01*
X8935687Y8696919D01*
Y8646135D01*
X8910295Y8620743D01*
X8834120D01*
X8884903D02*
X8935687Y8569960D01*
X8986471D02*
X9037254D01*
X9011863D01*
Y8722311D01*
X8986471Y8696919D01*
X9113430Y8722311D02*
X9214997D01*
Y8696919D01*
X9113430Y8595352D01*
Y8569960D01*
X8846820Y7376160D02*
Y7528511D01*
X8922995D01*
X8948387Y7503119D01*
Y7452335D01*
X8922995Y7426943D01*
X8846820D01*
X8897603D02*
X8948387Y7376160D01*
X8999171D02*
X9049954D01*
X9024563D01*
Y7528511D01*
X8999171Y7503119D01*
X9227697Y7528511D02*
X9176913Y7503119D01*
X9126130Y7452335D01*
Y7401552D01*
X9151521Y7376160D01*
X9202305D01*
X9227697Y7401552D01*
Y7426943D01*
X9202305Y7452335D01*
X9126130D01*
X9311640Y8768080D02*
Y8920431D01*
X9387815D01*
X9413207Y8895039D01*
Y8844255D01*
X9387815Y8818863D01*
X9311640D01*
X9362423D02*
X9413207Y8768080D01*
X9463991D02*
X9514774D01*
X9489383D01*
Y8920431D01*
X9463991Y8895039D01*
X9692517Y8920431D02*
X9590950D01*
Y8844255D01*
X9641733Y8869647D01*
X9667125D01*
X9692517Y8844255D01*
Y8793472D01*
X9667125Y8768080D01*
X9616341D01*
X9590950Y8793472D01*
X9286240Y7371080D02*
Y7523431D01*
X9362415D01*
X9387807Y7498039D01*
Y7447255D01*
X9362415Y7421863D01*
X9286240D01*
X9337023D02*
X9387807Y7371080D01*
X9438591D02*
X9489374D01*
X9463983D01*
Y7523431D01*
X9438591Y7498039D01*
X9641725Y7371080D02*
Y7523431D01*
X9565550Y7447255D01*
X9667117D01*
X14028419Y11490960D02*
Y11643311D01*
X14104594D01*
X14129987Y11617919D01*
Y11567135D01*
X14104594Y11541743D01*
X14028419D01*
X14079202D02*
X14129987Y11490960D01*
X14180771D02*
X14231554D01*
X14206163D01*
Y11643311D01*
X14180771Y11617919D01*
X14307730D02*
X14333121Y11643311D01*
X14383905D01*
X14409297Y11617919D01*
Y11592527D01*
X14383905Y11567135D01*
X14358513D01*
X14383905D01*
X14409297Y11541743D01*
Y11516352D01*
X14383905Y11490960D01*
X14333121D01*
X14307730Y11516352D01*
X14015720Y11732260D02*
Y11884611D01*
X14091895D01*
X14117287Y11859219D01*
Y11808435D01*
X14091895Y11783043D01*
X14015720D01*
X14066502D02*
X14117287Y11732260D01*
X14168071D02*
X14218854D01*
X14193463D01*
Y11884611D01*
X14168071Y11859219D01*
X14396597Y11732260D02*
X14295030D01*
X14396597Y11833827D01*
Y11859219D01*
X14371205Y11884611D01*
X14320421D01*
X14295030Y11859219D01*
X13634720Y11732260D02*
Y11884611D01*
X13710895D01*
X13736287Y11859219D01*
Y11808435D01*
X13710895Y11783043D01*
X13634720D01*
X13685503D02*
X13736287Y11732260D01*
X13787071D02*
X13837854D01*
X13812463D01*
Y11884611D01*
X13787071Y11859219D01*
X13914030Y11732260D02*
X13964813D01*
X13939421D01*
Y11884611D01*
X13914030Y11859219D01*
X11907520Y7960360D02*
Y8112711D01*
X11983695D01*
X12009087Y8087319D01*
Y8036535D01*
X11983695Y8011143D01*
X11907520D01*
X11958303D02*
X12009087Y7960360D01*
X12059871D02*
X12110654D01*
X12085263D01*
Y8112711D01*
X12059871Y8087319D01*
X12186830D02*
X12212221Y8112711D01*
X12263005D01*
X12288397Y8087319D01*
Y7985752D01*
X12263005Y7960360D01*
X12212221D01*
X12186830Y7985752D01*
Y8087319D01*
X13108940Y8920480D02*
Y9072831D01*
X13185115D01*
X13210507Y9047439D01*
Y8996655D01*
X13185115Y8971263D01*
X13108940D01*
X13159723D02*
X13210507Y8920480D01*
X13261292Y8945872D02*
X13286684Y8920480D01*
X13337466D01*
X13362859Y8945872D01*
Y9047439D01*
X13337466Y9072831D01*
X13286684D01*
X13261292Y9047439D01*
Y9022047D01*
X13286684Y8996655D01*
X13362859D01*
X13159740Y11104880D02*
Y11257231D01*
X13235915D01*
X13261307Y11231839D01*
Y11181055D01*
X13235915Y11155663D01*
X13159740D01*
X13210522D02*
X13261307Y11104880D01*
X13312091Y11231839D02*
X13337483Y11257231D01*
X13388266D01*
X13413658Y11231839D01*
Y11206447D01*
X13388266Y11181055D01*
X13413658Y11155663D01*
Y11130272D01*
X13388266Y11104880D01*
X13337483D01*
X13312091Y11130272D01*
Y11155663D01*
X13337483Y11181055D01*
X13312091Y11206447D01*
Y11231839D01*
X13337483Y11181055D02*
X13388266D01*
X10104120Y11389360D02*
Y11541711D01*
X10180295D01*
X10205687Y11516319D01*
Y11465535D01*
X10180295Y11440143D01*
X10104120D01*
X10154903D02*
X10205687Y11389360D01*
X10256471Y11541711D02*
X10358038D01*
Y11516319D01*
X10256471Y11414752D01*
Y11389360D01*
X11013440Y10025380D02*
Y10177731D01*
X11089615D01*
X11115007Y10152339D01*
Y10101555D01*
X11089615Y10076163D01*
X11013440D01*
X11064223D02*
X11115007Y10025380D01*
X11267358Y10177731D02*
X11216574Y10152339D01*
X11165791Y10101555D01*
Y10050772D01*
X11191183Y10025380D01*
X11241966D01*
X11267358Y10050772D01*
Y10076163D01*
X11241966Y10101555D01*
X11165791D01*
X10320020Y9649460D02*
Y9801811D01*
X10396195D01*
X10421587Y9776419D01*
Y9725635D01*
X10396195Y9700243D01*
X10320020D01*
X10370803D02*
X10421587Y9649460D01*
X10573938Y9801811D02*
X10472371D01*
Y9725635D01*
X10523154Y9751027D01*
X10548546D01*
X10573938Y9725635D01*
Y9674852D01*
X10548546Y9649460D01*
X10497763D01*
X10472371Y9674852D01*
X14734540Y11104880D02*
Y11257231D01*
X14810715D01*
X14836107Y11231839D01*
Y11181055D01*
X14810715Y11155663D01*
X14734540D01*
X14785323D02*
X14836107Y11104880D01*
X14963066D02*
Y11257231D01*
X14886891Y11181055D01*
X14988458D01*
X14371320Y8100060D02*
Y8252411D01*
X14447495D01*
X14472887Y8227019D01*
Y8176235D01*
X14447495Y8150843D01*
X14371320D01*
X14422102D02*
X14472887Y8100060D01*
X14523671Y8227019D02*
X14549063Y8252411D01*
X14599846D01*
X14625238Y8227019D01*
Y8201627D01*
X14599846Y8176235D01*
X14574454D01*
X14599846D01*
X14625238Y8150843D01*
Y8125452D01*
X14599846Y8100060D01*
X14549063D01*
X14523671Y8125452D01*
X13329919Y8100060D02*
Y8252411D01*
X13406094D01*
X13431487Y8227019D01*
Y8176235D01*
X13406094Y8150843D01*
X13329919D01*
X13380704D02*
X13431487Y8100060D01*
X13583838D02*
X13482271D01*
X13583838Y8201627D01*
Y8227019D01*
X13558446Y8252411D01*
X13507663D01*
X13482271Y8227019D01*
X13825220Y8392160D02*
Y8544511D01*
X13901395D01*
X13926787Y8519119D01*
Y8468335D01*
X13901395Y8442943D01*
X13825220D01*
X13876003D02*
X13926787Y8392160D01*
X13977571D02*
X14028354D01*
X14002963D01*
Y8544511D01*
X13977571Y8519119D01*
X8892507Y8120372D02*
Y8221939D01*
X8867115Y8247331D01*
X8816332D01*
X8790940Y8221939D01*
Y8120372D01*
X8816332Y8094980D01*
X8867115D01*
X8841723Y8145763D02*
X8892507Y8094980D01*
X8867115D02*
X8892507Y8120372D01*
X9044858Y8094980D02*
X8943291D01*
X9044858Y8196547D01*
Y8221939D01*
X9019466Y8247331D01*
X8968683D01*
X8943291Y8221939D01*
X8867107Y6901172D02*
Y7002739D01*
X8841715Y7028131D01*
X8790932D01*
X8765540Y7002739D01*
Y6901172D01*
X8790932Y6875780D01*
X8841715D01*
X8816323Y6926563D02*
X8867107Y6875780D01*
X8841715D02*
X8867107Y6901172D01*
X8917891Y6875780D02*
X8968674D01*
X8943283D01*
Y7028131D01*
X8917891Y7002739D01*
X7442208Y8635975D02*
X7391425D01*
X7416817D01*
Y8509017D01*
X7391425Y8483625D01*
X7366033D01*
X7340641Y8509017D01*
X7492992Y8610583D02*
X7518384Y8635975D01*
X7569167D01*
X7594559Y8610583D01*
Y8585192D01*
X7569167Y8559800D01*
X7594559Y8534408D01*
Y8509017D01*
X7569167Y8483625D01*
X7518384D01*
X7492992Y8509017D01*
Y8534408D01*
X7518384Y8559800D01*
X7492992Y8585192D01*
Y8610583D01*
X7518384Y8559800D02*
X7569167D01*
X7454908Y7492975D02*
X7404125D01*
X7429517D01*
Y7366017D01*
X7404125Y7340625D01*
X7378733D01*
X7353341Y7366017D01*
X7505692Y7492975D02*
X7607259D01*
Y7467583D01*
X7505692Y7366017D01*
Y7340625D01*
X13484827Y7050991D02*
X13434042D01*
X13459435D01*
Y6924032D01*
X13434042Y6898640D01*
X13408652D01*
X13383260Y6924032D01*
X13637178Y7050991D02*
X13586394Y7025599D01*
X13535611Y6974815D01*
Y6924032D01*
X13561003Y6898640D01*
X13611786D01*
X13637178Y6924032D01*
Y6949423D01*
X13611786Y6974815D01*
X13535611D01*
X15402527Y8572451D02*
X15351743D01*
X15377135D01*
Y8445492D01*
X15351743Y8420100D01*
X15326352D01*
X15300960Y8445492D01*
X15554878Y8572451D02*
X15453311D01*
Y8496275D01*
X15504094Y8521667D01*
X15529486D01*
X15554878Y8496275D01*
Y8445492D01*
X15529486Y8420100D01*
X15478703D01*
X15453311Y8445492D01*
X11630627Y7886651D02*
X11579843D01*
X11605235D01*
Y7759692D01*
X11579843Y7734300D01*
X11554452D01*
X11529060Y7759692D01*
X11757586Y7734300D02*
Y7886651D01*
X11681411Y7810475D01*
X11782978D01*
X7447247Y10322511D02*
X7396463D01*
X7421855D01*
Y10195552D01*
X7396463Y10170160D01*
X7371072D01*
X7345680Y10195552D01*
X7599598Y10170160D02*
X7498031D01*
X7599598Y10271727D01*
Y10297119D01*
X7574206Y10322511D01*
X7523423D01*
X7498031Y10297119D01*
X7459947Y11922711D02*
X7409163D01*
X7434555D01*
Y11795752D01*
X7409163Y11770360D01*
X7383772D01*
X7358380Y11795752D01*
X7510731Y11770360D02*
X7561514D01*
X7536123D01*
Y11922711D01*
X7510731Y11897319D01*
X13586459Y10845751D02*
X13637244D01*
X13611852D01*
Y10693400D01*
X13586459D01*
X13637244D01*
X13814986Y10820359D02*
X13789594Y10845751D01*
X13738811D01*
X13713419Y10820359D01*
Y10718792D01*
X13738811Y10693400D01*
X13789594D01*
X13814986Y10718792D01*
X13865770Y10693400D02*
X13916553D01*
X13891161D01*
Y10845751D01*
X13865770Y10820359D01*
X8978900Y10833075D02*
X8877333D01*
Y10756900D01*
X8928117D01*
X8877333D01*
Y10680725D01*
X9029684D02*
X9080467D01*
X9055076D01*
Y10833075D01*
X9029684Y10807683D01*
X9580880Y8661351D02*
Y8509000D01*
X9657055D01*
X9682447Y8534392D01*
Y8635959D01*
X9657055Y8661351D01*
X9580880D01*
X9733231Y8635959D02*
X9758623Y8661351D01*
X9809406D01*
X9834798Y8635959D01*
Y8610567D01*
X9809406Y8585175D01*
X9834798Y8559783D01*
Y8534392D01*
X9809406Y8509000D01*
X9758623D01*
X9733231Y8534392D01*
Y8559783D01*
X9758623Y8585175D01*
X9733231Y8610567D01*
Y8635959D01*
X9758623Y8585175D02*
X9809406D01*
X9593580Y7277051D02*
Y7124700D01*
X9669755D01*
X9695147Y7150092D01*
Y7251659D01*
X9669755Y7277051D01*
X9593580D01*
X9745931D02*
X9847498D01*
Y7251659D01*
X9745931Y7150092D01*
Y7124700D01*
X12903200Y9291271D02*
Y9138920D01*
X12979375D01*
X13004767Y9164312D01*
Y9265879D01*
X12979375Y9291271D01*
X12903200D01*
X13157118D02*
X13106334Y9265879D01*
X13055551Y9215095D01*
Y9164312D01*
X13080943Y9138920D01*
X13131726D01*
X13157118Y9164312D01*
Y9189703D01*
X13131726Y9215095D01*
X13055551D01*
X12953999Y11462971D02*
Y11310620D01*
X13030174D01*
X13055566Y11336012D01*
Y11437579D01*
X13030174Y11462971D01*
X12953999D01*
X13207918D02*
X13106351D01*
Y11386795D01*
X13157133Y11412187D01*
X13182526D01*
X13207918Y11386795D01*
Y11336012D01*
X13182526Y11310620D01*
X13131743D01*
X13106351Y11336012D01*
X14036040Y7924751D02*
Y7772400D01*
X14112215D01*
X14137607Y7797792D01*
Y7899359D01*
X14112215Y7924751D01*
X14036040D01*
X14264566Y7772400D02*
Y7924751D01*
X14188391Y7848575D01*
X14289958D01*
X13731239Y7924751D02*
Y7772400D01*
X13807414D01*
X13832806Y7797792D01*
Y7899359D01*
X13807414Y7924751D01*
X13731239D01*
X13883591Y7899359D02*
X13908983Y7924751D01*
X13959766D01*
X13985158Y7899359D01*
Y7873967D01*
X13959766Y7848575D01*
X13934373D01*
X13959766D01*
X13985158Y7823183D01*
Y7797792D01*
X13959766Y7772400D01*
X13908983D01*
X13883591Y7797792D01*
X12560300Y11021011D02*
Y10868660D01*
X12636475D01*
X12661867Y10894052D01*
Y10995619D01*
X12636475Y11021011D01*
X12560300D01*
X12814218Y10868660D02*
X12712651D01*
X12814218Y10970227D01*
Y10995619D01*
X12788826Y11021011D01*
X12738043D01*
X12712651Y10995619D01*
X12534900Y9484311D02*
Y9331960D01*
X12611075D01*
X12636467Y9357352D01*
Y9458919D01*
X12611075Y9484311D01*
X12534900D01*
X12687251Y9331960D02*
X12738034D01*
X12712643D01*
Y9484311D01*
X12687251Y9458919D01*
X10218387Y8328619D02*
X10192995Y8354011D01*
X10142212D01*
X10116820Y8328619D01*
Y8227052D01*
X10142212Y8201660D01*
X10192995D01*
X10218387Y8227052D01*
X10269171Y8354011D02*
X10370738D01*
Y8328619D01*
X10269171Y8227052D01*
Y8201660D01*
X13728667Y11620459D02*
X13703275Y11645851D01*
X13652492D01*
X13627100Y11620459D01*
Y11518892D01*
X13652492Y11493500D01*
X13703275D01*
X13728667Y11518892D01*
X13881018Y11645851D02*
X13830234Y11620459D01*
X13779451Y11569675D01*
Y11518892D01*
X13804843Y11493500D01*
X13855626D01*
X13881018Y11518892D01*
Y11544283D01*
X13855626Y11569675D01*
X13779451D01*
X10866087Y10342839D02*
X10840695Y10368231D01*
X10789912D01*
X10764520Y10342839D01*
Y10241272D01*
X10789912Y10215880D01*
X10840695D01*
X10866087Y10241272D01*
X11018438Y10368231D02*
X10916871D01*
Y10292055D01*
X10967654Y10317447D01*
X10993046D01*
X11018438Y10292055D01*
Y10241272D01*
X10993046Y10215880D01*
X10942263D01*
X10916871Y10241272D01*
X9753567Y10071059D02*
X9728175Y10096451D01*
X9677392D01*
X9652000Y10071059D01*
Y9969492D01*
X9677392Y9944100D01*
X9728175D01*
X9753567Y9969492D01*
X9880526Y9944100D02*
Y10096451D01*
X9804351Y10020275D01*
X9905918D01*
X14546547Y11229299D02*
X14521155Y11254691D01*
X14470372D01*
X14444980Y11229299D01*
Y11127732D01*
X14470372Y11102340D01*
X14521155D01*
X14546547Y11127732D01*
X14597331Y11229299D02*
X14622723Y11254691D01*
X14673506D01*
X14698898Y11229299D01*
Y11203907D01*
X14673506Y11178515D01*
X14648114D01*
X14673506D01*
X14698898Y11153123D01*
Y11127732D01*
X14673506Y11102340D01*
X14622723D01*
X14597331Y11127732D01*
X15506667Y11277559D02*
X15481274Y11302951D01*
X15430492D01*
X15405099Y11277559D01*
Y11175992D01*
X15430492Y11150600D01*
X15481274D01*
X15506667Y11175992D01*
X15659018Y11150600D02*
X15557451D01*
X15659018Y11252167D01*
Y11277559D01*
X15633626Y11302951D01*
X15582843D01*
X15557451Y11277559D01*
X15252667Y11247079D02*
X15227275Y11272471D01*
X15176492D01*
X15151100Y11247079D01*
Y11145512D01*
X15176492Y11120120D01*
X15227275D01*
X15252667Y11145512D01*
X15303452Y11120120D02*
X15354234D01*
X15328844D01*
Y11272471D01*
X15303452Y11247079D01*
%TF.MD5,9753a081c72ec2c83ef830aeb8b9536b*%
M02*
