%TF.GenerationSoftware,Altium Limited,Altium Designer,26.4.1 (12)*%
G04 Layer_Physical_Order=2*
G04 Layer_Color=16711680*
%FSLAX45Y45*%
%MOMM*%
%TF.SameCoordinates,DAE7519C-F33C-4434-B054-6429215D859A*%
%TF.FilePolarity,Positive*%
%TF.FileFunction,Copper,L2,Bot,Signal*%
%TF.Part,Single*%
G01*
G75*
%TA.AperFunction,Conductor*%
%ADD33C,0.30480*%
%ADD35C,0.63500*%
%TA.AperFunction,ComponentPad*%
%ADD36R,1.20000X1.20000*%
%ADD37C,1.20000*%
%ADD38C,1.80000*%
%ADD39C,1.51500*%
%ADD40C,1.65000*%
%ADD41R,1.65000X1.65000*%
%TA.AperFunction,ViaPad*%
%ADD42C,3.50000*%
%ADD43C,0.60000*%
G36*
X16451509Y10834146D02*
X15608299D01*
X15598579Y10830120D01*
X15594554Y10820400D01*
Y8445500D01*
X15598579Y8435780D01*
X15608299Y8431754D01*
X16451509D01*
Y5989391D01*
X7157791D01*
Y12209709D01*
X16451509D01*
Y10834146D01*
D02*
G37*
%LPC*%
G36*
X15921187Y11998700D02*
X15884213D01*
X15847951Y11991487D01*
X15813791Y11977337D01*
X15783047Y11956796D01*
X15756905Y11930652D01*
X15736362Y11899909D01*
X15722214Y11865750D01*
X15714999Y11829487D01*
Y11792513D01*
X15722214Y11756250D01*
X15736362Y11722091D01*
X15756905Y11691348D01*
X15783047Y11665204D01*
X15813791Y11644663D01*
X15847951Y11630513D01*
X15884213Y11623300D01*
X15921187D01*
X15957449Y11630513D01*
X15991609Y11644663D01*
X16022353Y11665204D01*
X16048495Y11691348D01*
X16069037Y11722091D01*
X16083186Y11756250D01*
X16090401Y11792513D01*
Y11829487D01*
X16083186Y11865750D01*
X16069037Y11899909D01*
X16048495Y11930652D01*
X16022353Y11956796D01*
X15991609Y11977337D01*
X15957449Y11991487D01*
X15921187Y11998700D01*
D02*
G37*
G36*
X8921187D02*
X8884213D01*
X8847950Y11991487D01*
X8813791Y11977337D01*
X8783048Y11956796D01*
X8756904Y11930652D01*
X8736363Y11899909D01*
X8722213Y11865750D01*
X8715000Y11829487D01*
Y11792513D01*
X8722213Y11756250D01*
X8736363Y11722091D01*
X8756904Y11691348D01*
X8783048Y11665204D01*
X8813791Y11644663D01*
X8847950Y11630513D01*
X8884213Y11623300D01*
X8921187D01*
X8957450Y11630513D01*
X8991609Y11644663D01*
X9022352Y11665204D01*
X9048496Y11691348D01*
X9069037Y11722091D01*
X9083187Y11756250D01*
X9090400Y11792513D01*
Y11829487D01*
X9083187Y11865750D01*
X9069037Y11899909D01*
X9048496Y11930652D01*
X9022352Y11956796D01*
X8991609Y11977337D01*
X8957450Y11991487D01*
X8921187Y11998700D01*
D02*
G37*
G36*
X9994733Y11652200D02*
X9988550D01*
Y11563350D01*
X10077400D01*
Y11569533D01*
X10070912Y11593746D01*
X10058379Y11615454D01*
X10040654Y11633179D01*
X10018946Y11645712D01*
X9994733Y11652200D01*
D02*
G37*
G36*
X9975850D02*
X9969667D01*
X9945454Y11645712D01*
X9923746Y11633179D01*
X9906021Y11615454D01*
X9893488Y11593746D01*
X9887000Y11569533D01*
Y11563350D01*
X9975850D01*
Y11652200D01*
D02*
G37*
G36*
X9740733D02*
X9734550D01*
Y11563350D01*
X9823400D01*
Y11569533D01*
X9816912Y11593746D01*
X9804379Y11615454D01*
X9786654Y11633179D01*
X9764946Y11645712D01*
X9740733Y11652200D01*
D02*
G37*
G36*
X9721850D02*
X9715667D01*
X9691454Y11645712D01*
X9669746Y11633179D01*
X9652021Y11615454D01*
X9639488Y11593746D01*
X9633000Y11569533D01*
Y11563350D01*
X9721850D01*
Y11652200D01*
D02*
G37*
G36*
X10248733D02*
X10223667D01*
X10199454Y11645712D01*
X10177746Y11633179D01*
X10160021Y11615454D01*
X10147488Y11593746D01*
X10141000Y11569533D01*
Y11544467D01*
X10147488Y11520254D01*
X10160021Y11498546D01*
X10177746Y11480821D01*
X10199454Y11468288D01*
X10223667Y11461800D01*
X10248733D01*
X10272946Y11468288D01*
X10294654Y11480821D01*
X10312379Y11498546D01*
X10324912Y11520254D01*
X10331400Y11544467D01*
Y11569533D01*
X10324912Y11593746D01*
X10312379Y11615454D01*
X10294654Y11633179D01*
X10272946Y11645712D01*
X10248733Y11652200D01*
D02*
G37*
G36*
X10077400Y11550650D02*
X9988550D01*
Y11461800D01*
X9994733D01*
X10018946Y11468288D01*
X10040654Y11480821D01*
X10058379Y11498546D01*
X10070912Y11520254D01*
X10077400Y11544467D01*
Y11550650D01*
D02*
G37*
G36*
X9975850D02*
X9887000D01*
Y11544467D01*
X9893488Y11520254D01*
X9906021Y11498546D01*
X9923746Y11480821D01*
X9945454Y11468288D01*
X9969667Y11461800D01*
X9975850D01*
Y11550650D01*
D02*
G37*
G36*
X9823400D02*
X9734550D01*
Y11461800D01*
X9740733D01*
X9764946Y11468288D01*
X9786654Y11480821D01*
X9804379Y11498546D01*
X9816912Y11520254D01*
X9823400Y11544467D01*
Y11550650D01*
D02*
G37*
G36*
X9721850D02*
X9633000D01*
Y11544467D01*
X9639488Y11520254D01*
X9652021Y11498546D01*
X9669746Y11480821D01*
X9691454Y11468288D01*
X9715667Y11461800D01*
X9721850D01*
Y11550650D01*
D02*
G37*
G36*
X9569400Y11652200D02*
X9379000D01*
Y11461800D01*
X9569400D01*
Y11652200D01*
D02*
G37*
G36*
X8001821Y11367600D02*
X7974779D01*
X7948659Y11360601D01*
X7925241Y11347080D01*
X7906120Y11327959D01*
X7892599Y11304541D01*
X7885600Y11278421D01*
Y11251379D01*
X7892599Y11225259D01*
X7906120Y11201841D01*
X7925241Y11182720D01*
X7948659Y11169199D01*
X7974779Y11162200D01*
X8001821D01*
X8027941Y11169199D01*
X8051359Y11182720D01*
X8070480Y11201841D01*
X8084001Y11225259D01*
X8091000Y11251379D01*
Y11278421D01*
X8084001Y11304541D01*
X8070480Y11327959D01*
X8051359Y11347080D01*
X8027941Y11360601D01*
X8001821Y11367600D01*
D02*
G37*
G36*
X13857993Y10948913D02*
X13841006D01*
X13825311Y10942412D01*
X13813300Y10930400D01*
X13813091Y10929894D01*
X13438293D01*
X13435387Y10932799D01*
X13419695Y10939300D01*
X13402705D01*
X13387013Y10932799D01*
X13375002Y10920787D01*
X13368500Y10905094D01*
Y10888106D01*
X13375002Y10872413D01*
X13387013Y10860401D01*
X13402705Y10853900D01*
X13419695D01*
X13435387Y10860401D01*
X13447398Y10872413D01*
X13447609Y10872919D01*
X13822406D01*
X13825311Y10870014D01*
X13841006Y10863513D01*
X13857993D01*
X13873688Y10870014D01*
X13885698Y10882025D01*
X13892200Y10897719D01*
Y10914706D01*
X13885698Y10930400D01*
X13873688Y10942412D01*
X13857993Y10948913D01*
D02*
G37*
G36*
X14058900Y10823488D02*
X14058899Y10823487D01*
X13665201D01*
X13665199Y10823488D01*
X13654298Y10821319D01*
X13645056Y10815144D01*
X13645056Y10815143D01*
X13361301Y10531387D01*
X12833499D01*
X12825787Y10539099D01*
X12810094Y10545600D01*
X12793106D01*
X12777413Y10539099D01*
X12765401Y10527087D01*
X12758900Y10511394D01*
Y10494406D01*
X12765401Y10478713D01*
X12777413Y10466701D01*
X12793106Y10460200D01*
X12810094D01*
X12825787Y10466701D01*
X12833499Y10474413D01*
X13373099D01*
X13373100Y10474412D01*
X13384003Y10476581D01*
X13393243Y10482756D01*
X13677000Y10766513D01*
X14047099D01*
X14067000Y10746613D01*
Y10735706D01*
X14073502Y10720013D01*
X14085513Y10708001D01*
X14101205Y10701500D01*
X14118195D01*
X14133887Y10708001D01*
X14145898Y10720013D01*
X14152400Y10735706D01*
Y10752694D01*
X14145898Y10768387D01*
X14133887Y10780399D01*
X14118195Y10786900D01*
X14107288D01*
X14079044Y10815144D01*
X14069801Y10821319D01*
X14058900Y10823488D01*
D02*
G37*
G36*
X8001821Y10859600D02*
X7994650D01*
Y10763250D01*
X8091000D01*
Y10770421D01*
X8084001Y10796541D01*
X8070480Y10819959D01*
X8051359Y10839080D01*
X8027941Y10852601D01*
X8001821Y10859600D01*
D02*
G37*
G36*
X7981950D02*
X7974779D01*
X7948659Y10852601D01*
X7925241Y10839080D01*
X7906120Y10819959D01*
X7892599Y10796541D01*
X7885600Y10770421D01*
Y10763250D01*
X7981950D01*
Y10859600D01*
D02*
G37*
G36*
X8091000Y10750550D02*
X7994650D01*
Y10654200D01*
X8001821D01*
X8027941Y10661199D01*
X8051359Y10674720D01*
X8070480Y10693841D01*
X8084001Y10717259D01*
X8091000Y10743379D01*
Y10750550D01*
D02*
G37*
G36*
X7981950D02*
X7885600D01*
Y10743379D01*
X7892599Y10717259D01*
X7906120Y10693841D01*
X7925241Y10674720D01*
X7948659Y10661199D01*
X7974779Y10654200D01*
X7981950D01*
Y10750550D01*
D02*
G37*
G36*
X14092793Y11206000D02*
X14075806D01*
X14060114Y11199499D01*
X14048100Y11187487D01*
X14041600Y11171794D01*
Y11154806D01*
X14048100Y11139113D01*
X14055814Y11131401D01*
Y10909301D01*
X14055812Y10909300D01*
X14057980Y10898398D01*
X14064156Y10889156D01*
X14295599Y10657713D01*
Y10646806D01*
X14302101Y10631113D01*
X14314113Y10619101D01*
X14329807Y10612600D01*
X14346794D01*
X14362486Y10619101D01*
X14374500Y10631113D01*
X14381000Y10646806D01*
Y10663794D01*
X14374500Y10679487D01*
X14362486Y10691499D01*
X14346794Y10698000D01*
X14335887D01*
X14112787Y10921100D01*
Y11131401D01*
X14120499Y11139113D01*
X14127000Y11154806D01*
Y11171794D01*
X14120499Y11187487D01*
X14108487Y11199499D01*
X14092793Y11206000D01*
D02*
G37*
G36*
X9047045Y10321650D02*
X9023755D01*
X9001260Y10315622D01*
X8981090Y10303978D01*
X8964622Y10287510D01*
X8952978Y10267340D01*
X8946950Y10244845D01*
Y10221555D01*
X8952978Y10199060D01*
X8964622Y10178890D01*
X8981090Y10162422D01*
X9001260Y10150778D01*
X9023755Y10144750D01*
X9047045D01*
X9069540Y10150778D01*
X9089710Y10162422D01*
X9106178Y10178890D01*
X9117822Y10199060D01*
X9123850Y10221555D01*
Y10244845D01*
X9117822Y10267340D01*
X9106178Y10287510D01*
X9089710Y10303978D01*
X9069540Y10315622D01*
X9047045Y10321650D01*
D02*
G37*
G36*
X8927045Y9816650D02*
X8903755D01*
X8881260Y9810622D01*
X8861090Y9798978D01*
X8844622Y9782510D01*
X8832978Y9762340D01*
X8826950Y9739845D01*
Y9716555D01*
X8832978Y9694060D01*
X8844622Y9673890D01*
X8861090Y9657422D01*
X8881260Y9645778D01*
X8903755Y9639750D01*
X8927045D01*
X8949540Y9645778D01*
X8969710Y9657422D01*
X8986178Y9673890D01*
X8997822Y9694060D01*
X9003850Y9716555D01*
Y9739845D01*
X8997822Y9762340D01*
X8986178Y9782510D01*
X8969710Y9798978D01*
X8949540Y9810622D01*
X8927045Y9816650D01*
D02*
G37*
G36*
X13318094Y9834400D02*
X13301106D01*
X13285413Y9827899D01*
X13273401Y9815887D01*
X13266901Y9800194D01*
Y9789287D01*
X13094600Y9616987D01*
X12065001D01*
X12065000Y9616988D01*
X12054098Y9614819D01*
X12044856Y9608644D01*
X12044856Y9608643D01*
X11646800Y9210587D01*
X11023601D01*
X11023600Y9210588D01*
X11012698Y9208419D01*
X11003456Y9202244D01*
X11003456Y9202243D01*
X10846700Y9045487D01*
X9666599D01*
X9658887Y9053199D01*
X9643194Y9059700D01*
X9626207D01*
X9610513Y9053199D01*
X9598501Y9041187D01*
X9592000Y9025494D01*
Y9008506D01*
X9598501Y8992813D01*
X9610513Y8980801D01*
X9626207Y8974300D01*
X9643194D01*
X9658887Y8980801D01*
X9666599Y8988513D01*
X10858499D01*
X10858500Y8988512D01*
X10869402Y8990681D01*
X10878644Y8996856D01*
X11035400Y9153613D01*
X11658599D01*
X11658600Y9153612D01*
X11669502Y9155781D01*
X11678744Y9161956D01*
X12076800Y9560013D01*
X13106400D01*
X13106400Y9560012D01*
X13117302Y9562181D01*
X13126544Y9568356D01*
X13307187Y9749000D01*
X13318094D01*
X13333788Y9755501D01*
X13345799Y9767513D01*
X13352299Y9783206D01*
Y9800194D01*
X13345799Y9815887D01*
X13333788Y9827899D01*
X13318094Y9834400D01*
D02*
G37*
G36*
X7989121Y9767400D02*
X7962079D01*
X7935959Y9760401D01*
X7912541Y9746880D01*
X7893420Y9727759D01*
X7879899Y9704341D01*
X7872900Y9678221D01*
Y9651179D01*
X7879899Y9625059D01*
X7893420Y9601641D01*
X7912541Y9582520D01*
X7935959Y9568999D01*
X7962079Y9562000D01*
X7989121D01*
X8015241Y9568999D01*
X8038659Y9582520D01*
X8057780Y9601641D01*
X8071301Y9625059D01*
X8078300Y9651179D01*
Y9678221D01*
X8071301Y9704341D01*
X8057780Y9727759D01*
X8038659Y9746880D01*
X8015241Y9760401D01*
X7989121Y9767400D01*
D02*
G37*
G36*
X13330794Y9720100D02*
X13313806D01*
X13298112Y9713599D01*
X13286101Y9701587D01*
X13279601Y9685894D01*
Y9674987D01*
X13132700Y9528087D01*
X12128501D01*
X12128500Y9528088D01*
X12117598Y9525919D01*
X12108356Y9519744D01*
X11684900Y9096287D01*
X11074400D01*
X11063498Y9094119D01*
X11054256Y9087944D01*
X11054256Y9087943D01*
X10795900Y8829587D01*
X10414001D01*
X10414000Y8829588D01*
X10403098Y8827419D01*
X10393856Y8821244D01*
X10393856Y8821243D01*
X10025556Y8452944D01*
X10019381Y8443702D01*
X10017212Y8432800D01*
X10017213Y8432799D01*
Y7466700D01*
X9919600Y7369087D01*
X9601200D01*
X9590298Y7366919D01*
X9581056Y7360744D01*
X9581056Y7360743D01*
X9517556Y7297244D01*
X9511381Y7288002D01*
X9509212Y7277100D01*
X9509213Y7277099D01*
Y6907900D01*
X9487800Y6886487D01*
X9442599D01*
X9434887Y6894199D01*
X9419194Y6900700D01*
X9402206D01*
X9386513Y6894199D01*
X9374501Y6882187D01*
X9368000Y6866494D01*
Y6849506D01*
X9374501Y6833813D01*
X9386513Y6821801D01*
X9402206Y6815300D01*
X9419194D01*
X9434887Y6821801D01*
X9442599Y6829513D01*
X9499599D01*
X9499600Y6829512D01*
X9510502Y6831681D01*
X9519744Y6837856D01*
X9557844Y6875956D01*
X9564019Y6885198D01*
X9566188Y6896100D01*
X9566187Y6896101D01*
Y7265300D01*
X9613000Y7312113D01*
X9931399D01*
X9931400Y7312112D01*
X9942302Y7314281D01*
X9951544Y7320456D01*
X10065843Y7434756D01*
X10065844Y7434756D01*
X10072019Y7443998D01*
X10074188Y7454900D01*
X10074187Y7454901D01*
Y8421000D01*
X10425800Y8772613D01*
X10807699D01*
X10807700Y8772612D01*
X10818602Y8774781D01*
X10827844Y8780956D01*
X11086200Y9039313D01*
X11696699D01*
X11696700Y9039312D01*
X11707602Y9041481D01*
X11716844Y9047656D01*
X12140300Y9471113D01*
X13144499D01*
X13144501Y9471112D01*
X13155402Y9473281D01*
X13164644Y9479456D01*
X13319887Y9634700D01*
X13330794D01*
X13346487Y9641201D01*
X13358499Y9653213D01*
X13364999Y9668906D01*
Y9685894D01*
X13358499Y9701587D01*
X13346487Y9713599D01*
X13330794Y9720100D01*
D02*
G37*
G36*
X9448800Y9925921D02*
X9431457Y9922471D01*
X9416753Y9912647D01*
X9406929Y9897943D01*
X9403479Y9880600D01*
Y9563100D01*
X9406929Y9545756D01*
X9416753Y9531053D01*
X9607253Y9340553D01*
X9621956Y9330729D01*
X9639300Y9327279D01*
X9994900D01*
X10012244Y9330729D01*
X10026947Y9340553D01*
X10103147Y9416753D01*
X10112971Y9431456D01*
X10116421Y9448800D01*
X10112971Y9466144D01*
X10103147Y9480847D01*
X10088444Y9490671D01*
X10071100Y9494121D01*
X10053756Y9490671D01*
X10039053Y9480847D01*
X9976127Y9417921D01*
X9658073D01*
X9494121Y9581873D01*
Y9880600D01*
X9490671Y9897943D01*
X9480847Y9912647D01*
X9466143Y9922471D01*
X9448800Y9925921D01*
D02*
G37*
G36*
X7989121Y9259400D02*
X7962079D01*
X7935959Y9252401D01*
X7912541Y9238880D01*
X7893420Y9219759D01*
X7879899Y9196341D01*
X7872900Y9170221D01*
Y9143179D01*
X7879899Y9117059D01*
X7893420Y9093641D01*
X7912541Y9074520D01*
X7935959Y9060999D01*
X7962079Y9054000D01*
X7989121D01*
X8015241Y9060999D01*
X8038659Y9074520D01*
X8057780Y9093641D01*
X8071301Y9117059D01*
X8078300Y9143179D01*
Y9170221D01*
X8071301Y9196341D01*
X8057780Y9219759D01*
X8038659Y9238880D01*
X8015241Y9252401D01*
X7989121Y9259400D01*
D02*
G37*
G36*
X13483194Y8615200D02*
X13466206D01*
X13450513Y8608699D01*
X13438501Y8596687D01*
X13432001Y8580994D01*
Y8564603D01*
X13403757Y8536360D01*
X13397581Y8527118D01*
X13395412Y8516216D01*
X13395413Y8516215D01*
Y8412556D01*
X13395412Y8412555D01*
X13397581Y8401653D01*
X13403757Y8392411D01*
X13421611Y8374557D01*
X13421611Y8374556D01*
X13430853Y8368381D01*
X13441756Y8366212D01*
X13441756Y8366213D01*
X13600121D01*
X13603601Y8357813D01*
X13615613Y8345801D01*
X13631306Y8339300D01*
X13648294D01*
X13663988Y8345801D01*
X13675999Y8357813D01*
X13682500Y8373506D01*
Y8390494D01*
X13675999Y8406187D01*
X13663988Y8418199D01*
X13648294Y8424700D01*
X13631306D01*
X13627475Y8423113D01*
X13627100Y8423188D01*
X13627100Y8423187D01*
X13453555D01*
X13452386Y8424355D01*
Y8504416D01*
X13477771Y8529800D01*
X13483194D01*
X13498888Y8536301D01*
X13510899Y8548313D01*
X13517400Y8564006D01*
Y8580994D01*
X13510899Y8596687D01*
X13498888Y8608699D01*
X13483194Y8615200D01*
D02*
G37*
G36*
X13584795Y8920000D02*
X13567805D01*
X13552113Y8913499D01*
X13540102Y8901487D01*
X13533600Y8885794D01*
Y8868806D01*
X13540102Y8853113D01*
X13552113Y8841101D01*
X13567805Y8834600D01*
X13578712D01*
X13712914Y8700400D01*
Y8337699D01*
X13705202Y8329987D01*
X13698700Y8314294D01*
Y8297306D01*
X13705202Y8281613D01*
X13716026Y8270787D01*
X13715295Y8265256D01*
X13712132Y8258087D01*
X13093701D01*
X13093700Y8258088D01*
X13082797Y8255919D01*
X13073557Y8249744D01*
X13073557Y8249743D01*
X12651612Y7827800D01*
X12640706D01*
X12625013Y7821299D01*
X12613001Y7809287D01*
X12606500Y7793594D01*
Y7776606D01*
X12613001Y7760913D01*
X12625013Y7748901D01*
X12640706Y7742400D01*
X12657694D01*
X12673387Y7748901D01*
X12685399Y7760913D01*
X12691900Y7776606D01*
Y7787512D01*
X13105499Y8201113D01*
X14251585D01*
X14251587Y8201112D01*
X14262489Y8203281D01*
X14271732Y8209456D01*
X14365887Y8303613D01*
X14376793D01*
X14392487Y8310113D01*
X14404498Y8322125D01*
X14411000Y8337819D01*
Y8354806D01*
X14404498Y8370500D01*
X14392487Y8382512D01*
X14376793Y8389012D01*
X14359805D01*
X14344113Y8382512D01*
X14332101Y8370500D01*
X14325600Y8354806D01*
Y8343900D01*
X14239787Y8258087D01*
X13770667D01*
X13767505Y8265256D01*
X13766774Y8270787D01*
X13777599Y8281613D01*
X13784100Y8297306D01*
Y8314294D01*
X13777599Y8329987D01*
X13769887Y8337699D01*
Y8712199D01*
X13769888Y8712200D01*
X13767719Y8723102D01*
X13761543Y8732344D01*
X13761543Y8732344D01*
X13619000Y8874888D01*
Y8885794D01*
X13612498Y8901487D01*
X13600487Y8913499D01*
X13584795Y8920000D01*
D02*
G37*
G36*
X8631794Y8285000D02*
X8614806D01*
X8599113Y8278499D01*
X8587101Y8266487D01*
X8580600Y8250794D01*
Y8233806D01*
X8587101Y8218113D01*
X8594813Y8210401D01*
Y8031885D01*
X8594812Y8031884D01*
X8596981Y8020982D01*
X8603156Y8011740D01*
X8631400Y7983497D01*
Y7967106D01*
X8637901Y7951413D01*
X8649913Y7939401D01*
X8665606Y7932900D01*
X8682594D01*
X8698287Y7939401D01*
X8710299Y7951413D01*
X8716800Y7967106D01*
Y7984094D01*
X8710299Y7999787D01*
X8698287Y8011799D01*
X8682594Y8018300D01*
X8677171D01*
X8651787Y8043684D01*
Y8210401D01*
X8659499Y8218113D01*
X8666000Y8233806D01*
Y8250794D01*
X8659499Y8266487D01*
X8647487Y8278499D01*
X8631794Y8285000D01*
D02*
G37*
G36*
X10664871Y7883200D02*
X10661650D01*
Y7816850D01*
X10728000D01*
Y7820071D01*
X10723046Y7838561D01*
X10713474Y7855139D01*
X10699939Y7868674D01*
X10683361Y7878246D01*
X10664871Y7883200D01*
D02*
G37*
G36*
X10648950D02*
X10645729D01*
X10627239Y7878246D01*
X10610661Y7868674D01*
X10597126Y7855139D01*
X10587554Y7838561D01*
X10582600Y7820071D01*
Y7816850D01*
X10648950D01*
Y7883200D01*
D02*
G37*
G36*
X10728000Y7804150D02*
X10661650D01*
Y7737800D01*
X10664871D01*
X10683361Y7742754D01*
X10699939Y7752326D01*
X10713474Y7765861D01*
X10723046Y7782439D01*
X10728000Y7800929D01*
Y7804150D01*
D02*
G37*
G36*
X10648950D02*
X10582600D01*
Y7800929D01*
X10587554Y7782439D01*
X10597126Y7765861D01*
X10610661Y7752326D01*
X10627239Y7742754D01*
X10645729Y7737800D01*
X10648950D01*
Y7804150D01*
D02*
G37*
G36*
X15375494Y7599200D02*
X15358505D01*
X15342813Y7592699D01*
X15335101Y7584987D01*
X15182999D01*
X15175287Y7592699D01*
X15159595Y7599200D01*
X15142606D01*
X15126913Y7592699D01*
X15114902Y7580687D01*
X15108400Y7564994D01*
Y7548006D01*
X15114902Y7532313D01*
X15126913Y7520301D01*
X15142606Y7513800D01*
X15159595D01*
X15175287Y7520301D01*
X15182999Y7528013D01*
X15335101D01*
X15342813Y7520301D01*
X15358505Y7513800D01*
X15375494D01*
X15391187Y7520301D01*
X15403198Y7532313D01*
X15409700Y7548006D01*
Y7564994D01*
X15403198Y7580687D01*
X15391187Y7592699D01*
X15375494Y7599200D01*
D02*
G37*
G36*
X14778593Y7624600D02*
X14761606D01*
X14745914Y7618099D01*
X14733900Y7606087D01*
X14727400Y7590394D01*
Y7579487D01*
X14644000Y7496087D01*
X14198601D01*
X14198599Y7496088D01*
X14187698Y7493919D01*
X14178456Y7487744D01*
X14178456Y7487743D01*
X14026056Y7335344D01*
X14019881Y7326102D01*
X14017712Y7315200D01*
X14017712Y7315199D01*
Y7161900D01*
X13921613Y7065800D01*
X13910706D01*
X13895013Y7059299D01*
X13883002Y7047287D01*
X13876500Y7031594D01*
Y7014606D01*
X13883002Y6998913D01*
X13895013Y6986901D01*
X13910706Y6980400D01*
X13927695D01*
X13943387Y6986901D01*
X13955399Y6998913D01*
X13961900Y7014606D01*
Y7025512D01*
X14066344Y7129956D01*
X14066344Y7129956D01*
X14072519Y7139198D01*
X14074689Y7150100D01*
X14074687Y7150101D01*
Y7303400D01*
X14210400Y7439113D01*
X14655798D01*
X14655800Y7439112D01*
X14666702Y7441281D01*
X14675945Y7447456D01*
X14767686Y7539200D01*
X14778593D01*
X14794287Y7545701D01*
X14806299Y7557713D01*
X14812801Y7573406D01*
Y7590394D01*
X14806299Y7606087D01*
X14794287Y7618099D01*
X14778593Y7624600D01*
D02*
G37*
G36*
X14905594Y7586500D02*
X14888606D01*
X14872913Y7579999D01*
X14860901Y7567987D01*
X14854401Y7552294D01*
Y7541387D01*
X14720200Y7407187D01*
X14312900D01*
X14301997Y7405019D01*
X14292757Y7398844D01*
X14292757Y7398843D01*
X14191156Y7297244D01*
X14184981Y7288002D01*
X14182812Y7277100D01*
X14182812Y7277099D01*
Y7073000D01*
X14162912Y7053100D01*
X14152007D01*
X14136313Y7046599D01*
X14124301Y7034587D01*
X14117799Y7018894D01*
Y7001906D01*
X14124301Y6986213D01*
X14136313Y6974201D01*
X14152007Y6967700D01*
X14168994D01*
X14184686Y6974201D01*
X14196700Y6986213D01*
X14203200Y7001906D01*
Y7012812D01*
X14231442Y7041056D01*
X14231444Y7041056D01*
X14237619Y7050298D01*
X14239787Y7061200D01*
X14239787Y7061201D01*
Y7265300D01*
X14324699Y7350213D01*
X14731999D01*
X14732001Y7350212D01*
X14742902Y7352381D01*
X14752144Y7358556D01*
X14894687Y7501100D01*
X14905594D01*
X14921288Y7507601D01*
X14933299Y7519613D01*
X14939799Y7535306D01*
Y7552294D01*
X14933299Y7567987D01*
X14921288Y7579999D01*
X14905594Y7586500D01*
D02*
G37*
G36*
X14816695Y7929400D02*
X14799706D01*
X14784013Y7922899D01*
X14772002Y7910887D01*
X14765500Y7895194D01*
Y7878206D01*
X14772002Y7862513D01*
X14784013Y7850501D01*
X14799706Y7844000D01*
X14810612D01*
X15008313Y7646300D01*
Y7480301D01*
X15008311Y7480300D01*
X15010481Y7469398D01*
X15016656Y7460156D01*
X15169057Y7307757D01*
X15169057Y7307756D01*
X15178297Y7301581D01*
X15189200Y7299412D01*
X15189201Y7299413D01*
X15335101D01*
X15342813Y7291701D01*
X15358505Y7285200D01*
X15375494D01*
X15391187Y7291701D01*
X15403198Y7303713D01*
X15409700Y7319406D01*
Y7336394D01*
X15403198Y7352087D01*
X15391187Y7364099D01*
X15375494Y7370600D01*
X15358505D01*
X15342813Y7364099D01*
X15335101Y7356387D01*
X15200999D01*
X15065286Y7492100D01*
Y7658100D01*
X15063120Y7669002D01*
X15056944Y7678244D01*
X15056943Y7678244D01*
X14850900Y7884288D01*
Y7895194D01*
X14844398Y7910887D01*
X14832387Y7922899D01*
X14816695Y7929400D01*
D02*
G37*
G36*
X10728000Y7383200D02*
X10582600D01*
Y7237800D01*
X10728000D01*
Y7383200D01*
D02*
G37*
G36*
X14300034Y6750000D02*
X14293851D01*
Y6661150D01*
X14382700D01*
Y6667333D01*
X14376212Y6691546D01*
X14363680Y6713254D01*
X14345953Y6730979D01*
X14324246Y6743512D01*
X14300034Y6750000D01*
D02*
G37*
G36*
X14281149D02*
X14274966D01*
X14250754Y6743512D01*
X14229047Y6730979D01*
X14211320Y6713254D01*
X14198788Y6691546D01*
X14192300Y6667333D01*
Y6661150D01*
X14281149D01*
Y6750000D01*
D02*
G37*
G36*
X14636700D02*
X14446300D01*
Y6559600D01*
X14636700D01*
Y6750000D01*
D02*
G37*
G36*
X14382700Y6648450D02*
X14293851D01*
Y6559600D01*
X14300034D01*
X14324246Y6566088D01*
X14345953Y6578621D01*
X14363680Y6596346D01*
X14376212Y6618054D01*
X14382700Y6642267D01*
Y6648450D01*
D02*
G37*
G36*
X14281149D02*
X14192300D01*
Y6642267D01*
X14198788Y6618054D01*
X14211320Y6596346D01*
X14229047Y6578621D01*
X14250754Y6566088D01*
X14274966Y6559600D01*
X14281149D01*
Y6648450D01*
D02*
G37*
G36*
X14046033Y6750000D02*
X14020967D01*
X13996754Y6743512D01*
X13975046Y6730979D01*
X13957321Y6713254D01*
X13944788Y6691546D01*
X13938300Y6667333D01*
Y6642267D01*
X13944788Y6618054D01*
X13957321Y6596346D01*
X13975046Y6578621D01*
X13996754Y6566088D01*
X14020967Y6559600D01*
X14046033D01*
X14070245Y6566088D01*
X14091954Y6578621D01*
X14109679Y6596346D01*
X14122212Y6618054D01*
X14128700Y6642267D01*
Y6667333D01*
X14122212Y6691546D01*
X14109679Y6713254D01*
X14091954Y6730979D01*
X14070245Y6743512D01*
X14046033Y6750000D01*
D02*
G37*
G36*
X13792033D02*
X13766966D01*
X13742754Y6743512D01*
X13721046Y6730979D01*
X13703320Y6713254D01*
X13690788Y6691546D01*
X13684300Y6667333D01*
Y6642267D01*
X13690788Y6618054D01*
X13703320Y6596346D01*
X13721046Y6578621D01*
X13742754Y6566088D01*
X13766966Y6559600D01*
X13792033D01*
X13816246Y6566088D01*
X13837955Y6578621D01*
X13855679Y6596346D01*
X13868211Y6618054D01*
X13874699Y6642267D01*
Y6667333D01*
X13868211Y6691546D01*
X13855679Y6713254D01*
X13837955Y6730979D01*
X13816246Y6743512D01*
X13792033Y6750000D01*
D02*
G37*
G36*
X13538033D02*
X13512967D01*
X13488754Y6743512D01*
X13467046Y6730979D01*
X13449321Y6713254D01*
X13436787Y6691546D01*
X13430299Y6667333D01*
Y6642267D01*
X13436787Y6618054D01*
X13449321Y6596346D01*
X13467046Y6578621D01*
X13488754Y6566088D01*
X13512967Y6559600D01*
X13538033D01*
X13562247Y6566088D01*
X13583954Y6578621D01*
X13601678Y6596346D01*
X13614212Y6618054D01*
X13620700Y6642267D01*
Y6667333D01*
X13614212Y6691546D01*
X13601678Y6713254D01*
X13583954Y6730979D01*
X13562247Y6743512D01*
X13538033Y6750000D01*
D02*
G37*
G36*
X15921187Y6598700D02*
X15884213D01*
X15847951Y6591487D01*
X15813791Y6577337D01*
X15783047Y6556796D01*
X15756905Y6530652D01*
X15736362Y6499909D01*
X15722214Y6465750D01*
X15714999Y6429487D01*
Y6392513D01*
X15722214Y6356250D01*
X15736362Y6322090D01*
X15756905Y6291348D01*
X15783047Y6265204D01*
X15813791Y6244662D01*
X15847951Y6230513D01*
X15884213Y6223300D01*
X15921187D01*
X15957449Y6230513D01*
X15991609Y6244662D01*
X16022353Y6265204D01*
X16048495Y6291348D01*
X16069037Y6322090D01*
X16083186Y6356250D01*
X16090401Y6392513D01*
Y6429487D01*
X16083186Y6465750D01*
X16069037Y6499909D01*
X16048495Y6530652D01*
X16022353Y6556796D01*
X15991609Y6577337D01*
X15957449Y6591487D01*
X15921187Y6598700D01*
D02*
G37*
G36*
X10921187D02*
X10884213D01*
X10847950Y6591487D01*
X10813791Y6577337D01*
X10783048Y6556796D01*
X10756904Y6530652D01*
X10736363Y6499909D01*
X10722213Y6465750D01*
X10715000Y6429487D01*
Y6392513D01*
X10722213Y6356250D01*
X10736363Y6322090D01*
X10756904Y6291348D01*
X10783048Y6265204D01*
X10813791Y6244662D01*
X10847950Y6230513D01*
X10884213Y6223300D01*
X10921187D01*
X10957450Y6230513D01*
X10991609Y6244662D01*
X11022352Y6265204D01*
X11048496Y6291348D01*
X11069038Y6322090D01*
X11083187Y6356250D01*
X11090400Y6392513D01*
Y6429487D01*
X11083187Y6465750D01*
X11069038Y6499909D01*
X11048496Y6530652D01*
X11022352Y6556796D01*
X10991609Y6577337D01*
X10957450Y6591487D01*
X10921187Y6598700D01*
D02*
G37*
%LPD*%
D33*
X9634700Y9017000D02*
X10858500D01*
X14251587Y8229600D02*
X14368300Y8346312D01*
X13093700Y8229600D02*
X14251587D01*
X13416006Y10901406D02*
X13844693D01*
X13849500Y10906213D01*
X13411200Y10896600D02*
X13416006Y10901406D01*
X13741400Y8305800D02*
Y8712200D01*
X13576300Y8877300D02*
X13741400Y8712200D01*
X14211301Y7061200D02*
Y7277100D01*
X14312900Y7378700D02*
X14732001D01*
X14211301Y7277100D02*
X14312900Y7378700D01*
X14732001D02*
X14897099Y7543800D01*
X14160500Y7010400D02*
X14211301Y7061200D01*
X12649200Y7785100D02*
X13093700Y8229600D01*
X13627100Y8394700D02*
X13639799Y8382000D01*
X13441756Y8394700D02*
X13627100D01*
X13423900Y8412555D02*
X13441756Y8394700D01*
X13423900Y8412555D02*
Y8516216D01*
X13474699Y8567016D01*
Y8572500D01*
X12065000Y9588500D02*
X13106400D01*
X13309599Y9791700D01*
X12128500Y9499600D02*
X13144501D01*
X13322301Y9677400D01*
X15151100Y7556500D02*
X15367000D01*
X15036800Y7480300D02*
X15189200Y7327900D01*
X14808200Y7886700D02*
X15036800Y7658100D01*
Y7480300D02*
Y7658100D01*
X10807700Y8801100D02*
X11074400Y9067800D01*
X11696700D02*
X12128500Y9499600D01*
X11074400Y9067800D02*
X11696700D01*
X11658600Y9182100D02*
X12065000Y9588500D01*
X11023600Y9182100D02*
X11658600D01*
X10858500Y9017000D02*
X11023600Y9182100D01*
X14084300Y10909300D02*
X14338300Y10655300D01*
X14084300Y10909300D02*
Y11163300D01*
X14058900Y10795000D02*
X14109700Y10744200D01*
X13665199Y10795000D02*
X14058900D01*
X12801601Y10502900D02*
X13373100D01*
X13665199Y10795000D01*
X8623300Y8031884D02*
Y8242300D01*
Y8031884D02*
X8674100Y7981084D01*
Y7975600D02*
Y7981084D01*
X10414000Y8801100D02*
X10807700D01*
X10045700Y8432800D02*
X10414000Y8801100D01*
X10045700Y7454900D02*
Y8432800D01*
X9931400Y7340600D02*
X10045700Y7454900D01*
X9601200Y7340600D02*
X9931400D01*
X9537700Y7277100D02*
X9601200Y7340600D01*
X9537700Y6896100D02*
Y7277100D01*
X9499600Y6858000D02*
X9537700Y6896100D01*
X9410700Y6858000D02*
X9499600D01*
X14655800Y7467600D02*
X14770100Y7581900D01*
X15189200Y7327900D02*
X15367000D01*
X14046201Y7150100D02*
Y7315200D01*
X13919200Y7023100D02*
X14046201Y7150100D01*
Y7315200D02*
X14198599Y7467600D01*
X14655800D01*
D35*
X9448800Y9563100D02*
X9639300Y9372600D01*
X9994900D02*
X10071100Y9448800D01*
X9639300Y9372600D02*
X9994900D01*
X9448800Y9563100D02*
Y9880600D01*
D36*
X10655300Y7310500D02*
D03*
D37*
Y7810500D02*
D03*
D38*
X7988300Y11264900D02*
D03*
Y10756900D02*
D03*
X7975600Y9156700D02*
D03*
Y9664700D02*
D03*
D39*
X9035400Y10233200D02*
D03*
X8915400Y9728200D02*
D03*
D40*
X13525500Y6654800D02*
D03*
X13779500D02*
D03*
X14033501D02*
D03*
X14287500D02*
D03*
X10236200Y11557000D02*
D03*
X9728200D02*
D03*
X9982200D02*
D03*
D41*
X14541499Y6654800D02*
D03*
X9474200Y11557000D02*
D03*
D42*
X15902699Y6411000D02*
D03*
Y11811000D02*
D03*
X8902700D02*
D03*
X10902700Y6411000D02*
D03*
D43*
X9634700Y9017000D02*
D03*
Y9144000D02*
D03*
X9906000Y8636000D02*
D03*
X7620000Y6096000D02*
D03*
X7874000Y8636000D02*
D03*
X7620000Y10160000D02*
D03*
X7874000Y10668000D02*
D03*
X7620000Y11176000D02*
D03*
X7874000Y11684000D02*
D03*
X8128000Y6096000D02*
D03*
X8382000Y6604000D02*
D03*
X8128000Y7112000D02*
D03*
X8382000Y7620000D02*
D03*
Y8636000D02*
D03*
X8128000Y9144000D02*
D03*
X8382000Y9652000D02*
D03*
X8128000Y10160000D02*
D03*
X8382000Y10668000D02*
D03*
Y11684000D02*
D03*
X8636000Y6096000D02*
D03*
X8890000Y6604000D02*
D03*
X8636000Y7112000D02*
D03*
X8890000Y8636000D02*
D03*
X8636000Y9144000D02*
D03*
Y10160000D02*
D03*
X8890000Y10668000D02*
D03*
X8636000Y11176000D02*
D03*
X9144000Y6096000D02*
D03*
Y8128000D02*
D03*
Y9144000D02*
D03*
Y10160000D02*
D03*
Y11176000D02*
D03*
X9398000Y11684000D02*
D03*
X9652000Y6096000D02*
D03*
X9906000Y6604000D02*
D03*
Y7620000D02*
D03*
X9652000Y8128000D02*
D03*
Y10160000D02*
D03*
X9906000Y10668000D02*
D03*
X9652000Y11176000D02*
D03*
X9906000Y11684000D02*
D03*
X10160000Y6096000D02*
D03*
X10414000Y6604000D02*
D03*
X10160000Y7112000D02*
D03*
X10414000Y7620000D02*
D03*
X10160000Y8128000D02*
D03*
X10414000Y9652000D02*
D03*
Y10668000D02*
D03*
Y11684000D02*
D03*
X10668000Y6096000D02*
D03*
Y7112000D02*
D03*
X10922000Y7620000D02*
D03*
X10668000Y8128000D02*
D03*
X10922000Y9652000D02*
D03*
Y10668000D02*
D03*
X10668000Y11176000D02*
D03*
X10922000Y11684000D02*
D03*
X11176000Y6096000D02*
D03*
X11430000Y6604000D02*
D03*
X11176000Y7112000D02*
D03*
X11430000Y7620000D02*
D03*
X11176000Y8128000D02*
D03*
Y10160000D02*
D03*
X11430000Y10668000D02*
D03*
X11176000Y11176000D02*
D03*
X11430000Y11684000D02*
D03*
X11684000Y6096000D02*
D03*
X11938000Y6604000D02*
D03*
X11684000Y7112000D02*
D03*
Y8128000D02*
D03*
Y10160000D02*
D03*
X11938000Y10668000D02*
D03*
X11684000Y11176000D02*
D03*
X11938000Y11684000D02*
D03*
X12192000Y6096000D02*
D03*
X12446000Y6604000D02*
D03*
Y7620000D02*
D03*
X12192000Y8128000D02*
D03*
X12446000Y8636000D02*
D03*
X12192000Y9144000D02*
D03*
X12446000Y9652000D02*
D03*
X12192000Y10160000D02*
D03*
X12446000Y10668000D02*
D03*
X12192000Y11176000D02*
D03*
X12446000Y11684000D02*
D03*
X12700000Y6096000D02*
D03*
X12953999Y6604000D02*
D03*
X12700000Y7112000D02*
D03*
X12953999Y8636000D02*
D03*
X12700000Y9144000D02*
D03*
X12953999Y9652000D02*
D03*
X12700000Y10160000D02*
D03*
X12953999Y10668000D02*
D03*
X12700000Y11176000D02*
D03*
X12953999Y11684000D02*
D03*
X13208000Y6096000D02*
D03*
Y7112000D02*
D03*
X13462000Y7620000D02*
D03*
X13208000Y8128000D02*
D03*
X13462000Y9652000D02*
D03*
X13208000Y10160000D02*
D03*
X13462000Y11684000D02*
D03*
X13716000Y6096000D02*
D03*
Y7112000D02*
D03*
X13970000Y9652000D02*
D03*
Y10668000D02*
D03*
X13716000Y11176000D02*
D03*
X13970000Y11684000D02*
D03*
X14224001Y6096000D02*
D03*
Y9144000D02*
D03*
X14478000Y9652000D02*
D03*
X14224001Y10160000D02*
D03*
Y11176000D02*
D03*
X14478000Y11684000D02*
D03*
X14732001Y6096000D02*
D03*
Y7112000D02*
D03*
Y8128000D02*
D03*
Y9144000D02*
D03*
X14986000Y9652000D02*
D03*
X14732001Y10160000D02*
D03*
X14986000Y11684000D02*
D03*
X15239999Y6096000D02*
D03*
X15494000Y6604000D02*
D03*
Y7620000D02*
D03*
X15239999Y8128000D02*
D03*
Y9144000D02*
D03*
X15494000Y9652000D02*
D03*
X15239999Y10160000D02*
D03*
Y11176000D02*
D03*
X15494000Y11684000D02*
D03*
X15748000Y6096000D02*
D03*
Y7112000D02*
D03*
X16002000Y7620000D02*
D03*
X15748000Y8128000D02*
D03*
Y11176000D02*
D03*
X14368300Y8346312D02*
D03*
X13849500Y10906213D02*
D03*
X13741400Y8305800D02*
D03*
X13576300Y8877300D02*
D03*
X13411200Y10896600D02*
D03*
X12649200Y7785100D02*
D03*
X13639799Y8382000D02*
D03*
X13474699Y8572500D02*
D03*
X13309599Y9791700D02*
D03*
X13322301Y9677400D02*
D03*
X15151100Y7556500D02*
D03*
X15367000D02*
D03*
X14338300Y10655300D02*
D03*
X14084300Y11163300D02*
D03*
X14109700Y10744200D02*
D03*
X12801601Y10502900D02*
D03*
X8623300Y8242300D02*
D03*
X8674100Y7975600D02*
D03*
X9410700Y6858000D02*
D03*
X14770100Y7581900D02*
D03*
X14808200Y7886700D02*
D03*
X15367000Y7327900D02*
D03*
X14897099Y7543800D02*
D03*
X14160500Y7010400D02*
D03*
X13919200Y7023100D02*
D03*
X10071100Y9448800D02*
D03*
X9448800Y9880600D02*
D03*
%TF.MD5,1a3fc2d7a1bf8b61d937c2067c2ad350*%
M02*
